<svg width="50" height="51" viewBox="0 0 50 51" fill="none" xmlns="http://www.w3.org/2000/svg">
<circle opacity="0.3" cx="25" cy="25" r="25" fill="#60A5FA"/>
<path d="M47.1088 30.2646H3.61719V50.1397H47.1088V30.2646Z" fill="#407BFF"/>
<path opacity="0.5" d="M47.1088 30.2646H3.61719V50.1397H47.1088V30.2646Z" fill="white"/>
<path opacity="0.05" d="M25.95 30.2646H3.61719V50.1397H25.95V30.2646Z" fill="black"/>
<path d="M33.5372 35.4346H28.0312V50.14H33.5372V35.4346Z" fill="#172554"/>
<path d="M40.3611 39.959H35.8506V44.1743H40.3611V39.959Z" fill="#407BFF"/>
<path d="M40.3611 35.4346H35.8506V39.6499H40.3611V35.4346Z" fill="#407BFF"/>
<path d="M45.1668 39.959H40.6562V44.1743H45.1668V39.959Z" fill="#407BFF"/>
<path d="M45.1668 35.4346H40.6562V39.6499H45.1668V35.4346Z" fill="#407BFF"/>
<path opacity="0.7" d="M40.3611 39.959H35.8506V44.1743H40.3611V39.959Z" fill="white"/>
<path opacity="0.7" d="M40.3611 35.4346H35.8506V39.6499H40.3611V35.4346Z" fill="white"/>
<path opacity="0.7" d="M45.1668 39.959H40.6562V44.1743H45.1668V39.959Z" fill="white"/>
<path opacity="0.7" d="M45.1668 35.4346H40.6562V39.6499H45.1668V35.4346Z" fill="white"/>
<path opacity="0.9" d="M35.8506 39.959H37.1481L36.0154 44.1743H35.8506V39.959Z" fill="white"/>
<path opacity="0.9" d="M38.3563 35.4346L37.2235 39.6567H35.8916L37.0175 35.4346H38.3563Z" fill="white"/>
<path opacity="0.9" d="M37.7792 39.959H38.2255L37.0996 44.1743H36.6533L37.7792 39.959Z" fill="white"/>
<path opacity="0.9" d="M39.4344 35.4346L38.3085 39.6567H37.8691L38.995 35.4346H39.4344Z" fill="white"/>
<path opacity="0.9" d="M42.6884 39.959H44.0272L42.8944 44.1743H41.5557L42.6884 39.959Z" fill="white"/>
<path opacity="0.9" d="M45.1665 35.4346V35.6886L44.1092 39.6567H42.7705L43.8964 35.4346H45.1665Z" fill="white"/>
<path opacity="0.9" d="M44.6591 39.959H45.1054L43.9794 44.1743H43.5332L44.6591 39.959Z" fill="white"/>
<path opacity="0.9" d="M45.1669 38.0635V39.6562H44.7412L45.1669 38.0635Z" fill="white"/>
<path d="M18.4192 39.959H15.8584V44.1743H18.4192V39.959Z" fill="#407BFF"/>
<path d="M18.4192 35.4346H15.8584V39.6499H18.4192V35.4346Z" fill="#407BFF"/>
<path d="M21.3511 39.959H18.7217V44.1743H21.3511V39.959Z" fill="#407BFF"/>
<path d="M21.3511 35.4346H18.7217V39.6499H21.3511V35.4346Z" fill="#407BFF"/>
<path opacity="0.7" d="M18.4192 39.959H15.8584V44.1743H18.4192V39.959Z" fill="white"/>
<path opacity="0.7" d="M18.4192 35.4346H15.8584V39.6499H18.4192V35.4346Z" fill="white"/>
<path opacity="0.7" d="M21.3511 39.959H18.7217V44.1743H21.3511V39.959Z" fill="white"/>
<path opacity="0.7" d="M21.3511 35.4346H18.7217V39.6499H21.3511V35.4346Z" fill="white"/>
<path opacity="0.9" d="M15.8584 35.4346V37.5216L16.4145 35.4346H15.8584Z" fill="white"/>
<path opacity="0.9" d="M15.8584 39.959V41.5586L16.284 39.959H15.8584Z" fill="white"/>
<path opacity="0.9" d="M17.4999 35.4346L16.3671 39.6567H15.9277L17.0536 35.4346H17.4999Z" fill="white"/>
<path opacity="0.9" d="M21.3512 39.959H20.747L19.6143 44.1743H20.953L21.3512 42.7051V39.959Z" fill="white"/>
<path opacity="0.9" d="M21.3509 37.707L20.8291 39.6568H21.3509V37.707Z" fill="white"/>
<path d="M9.46017 39.959H6.89941V44.1743H9.46017V39.959Z" fill="#407BFF"/>
<path d="M9.46017 35.4346H6.89941V39.6499H9.46017V35.4346Z" fill="#407BFF"/>
<path d="M12.3921 39.959H9.7627V44.1743H12.3921V39.959Z" fill="#407BFF"/>
<path d="M12.3921 35.4346H9.7627V39.6499H12.3921V35.4346Z" fill="#407BFF"/>
<path opacity="0.7" d="M9.46017 39.959H6.89941V44.1743H9.46017V39.959Z" fill="white"/>
<path opacity="0.7" d="M9.46017 35.4346H6.89941V39.6499H9.46017V35.4346Z" fill="white"/>
<path opacity="0.7" d="M12.3921 39.959H9.7627V44.1743H12.3921V39.959Z" fill="white"/>
<path opacity="0.7" d="M12.3921 35.4346H9.7627V39.6499H12.3921V35.4346Z" fill="white"/>
<path opacity="0.9" d="M6.89941 35.4346V37.5216L7.46237 35.4346H6.89941Z" fill="white"/>
<path opacity="0.9" d="M6.89941 39.959V41.5586L7.33193 39.959H6.89941Z" fill="white"/>
<path opacity="0.9" d="M8.5409 35.4346L7.41499 39.6567H6.96875L8.10152 35.4346H8.5409Z" fill="white"/>
<path opacity="0.9" d="M12.3922 39.959H11.788L10.6621 44.1743H12.0009L12.3922 42.7051V39.959Z" fill="white"/>
<path opacity="0.9" d="M12.3919 37.707L11.8701 39.6568H12.3919V37.707Z" fill="white"/>
<path d="M12.6394 34.0342H6.08301V34.858H12.6394V34.0342Z" fill="#172554"/>
<path opacity="0.4" d="M12.6324 34.0342H11.8086V34.858H12.6324V34.0342Z" fill="white"/>
<path d="M21.5915 34.0342H15.0352V34.858H21.5915V34.0342Z" fill="#172554"/>
<path opacity="0.4" d="M21.5846 34.0342H20.7607V34.858H21.5846V34.0342Z" fill="white"/>
<path d="M35.1843 34.8643H46.2168V34.0404H35.1843V34.8643Z" fill="#172554"/>
<path opacity="0.4" d="M35.184 34.8643H36.0078V34.0404H35.184V34.8643Z" fill="white"/>
<path d="M44.0272 15.7441H6.37793V28.4999H44.0272V15.7441Z" fill="#407BFF"/>
<path opacity="0.5" d="M44.0272 15.7441H6.37793V28.4999H44.0272V15.7441Z" fill="white"/>
<path opacity="0.05" d="M25.6488 15.7441H6.37793V28.4999H25.6488V15.7441Z" fill="black"/>
<path d="M45.9701 16.088H4.78516L10.6275 11.502H39.9973L45.4758 15.7104L45.9701 16.088Z" fill="#407BFF"/>
<path opacity="0.2" d="M45.4764 15.7104H25.9034L25.6494 11.502H39.9979L45.4764 15.7104Z" fill="white"/>
<path d="M45.9694 15.2227H4.24902V16.5133H45.9694V15.2227Z" fill="#407BFF"/>
<path d="M45.9694 15.2227H4.24902V16.5133H45.9694V15.2227Z" fill="#CCA559"/>
<path d="M45.9769 15.2227H26.04V16.5133H45.9769V15.2227Z" fill="#EDD097"/>
<path d="M20.0393 23.5508H17.4785V27.7661H20.0393V23.5508Z" fill="#407BFF"/>
<path d="M20.0393 19.0332H17.4785V23.2485H20.0393V19.0332Z" fill="#407BFF"/>
<path d="M22.9712 23.5508H20.3418V27.7661H22.9712V23.5508Z" fill="#407BFF"/>
<path d="M22.9712 19.0332H20.3418V23.2485H22.9712V19.0332Z" fill="#407BFF"/>
<path opacity="0.7" d="M20.0393 23.5508H17.4785V27.7661H20.0393V23.5508Z" fill="white"/>
<path opacity="0.7" d="M20.0393 19.0332H17.4785V23.2485H20.0393V19.0332Z" fill="white"/>
<path opacity="0.7" d="M22.9712 23.5508H20.3418V27.7661H22.9712V23.5508Z" fill="white"/>
<path opacity="0.7" d="M22.9712 19.0332H20.3418V23.2485H22.9712V19.0332Z" fill="white"/>
<path opacity="0.9" d="M17.4785 19.0332V21.1203L18.0346 19.0332H17.4785Z" fill="white"/>
<path opacity="0.9" d="M17.4785 23.5508V25.1504L17.9042 23.5508H17.4785Z" fill="white"/>
<path opacity="0.9" d="M19.12 19.0332L17.9872 23.2485H17.5479L18.6738 19.0332H19.12Z" fill="white"/>
<path opacity="0.9" d="M22.9644 23.5508H22.3671L21.2344 27.7661H22.5731L22.9644 26.3038V23.5508Z" fill="white"/>
<path opacity="0.9" d="M22.9641 21.3057L22.4492 23.2485H22.9641V21.3057Z" fill="white"/>
<path d="M11.0803 23.5508H8.51953V27.7661H11.0803V23.5508Z" fill="#407BFF"/>
<path d="M11.0803 19.0332H8.51953V23.2485H11.0803V19.0332Z" fill="#407BFF"/>
<path d="M14.0122 23.5508H11.3828V27.7661H14.0122V23.5508Z" fill="#407BFF"/>
<path d="M14.0122 19.0332H11.3828V23.2485H14.0122V19.0332Z" fill="#407BFF"/>
<path opacity="0.7" d="M11.0803 23.5508H8.51953V27.7661H11.0803V23.5508Z" fill="white"/>
<path opacity="0.7" d="M11.0803 19.0332H8.51953V23.2485H11.0803V19.0332Z" fill="white"/>
<path opacity="0.7" d="M14.0122 23.5508H11.3828V27.7661H14.0122V23.5508Z" fill="white"/>
<path opacity="0.7" d="M14.0122 19.0332H11.3828V23.2485H14.0122V19.0332Z" fill="white"/>
<path opacity="0.9" d="M8.51953 19.0332V21.1203L9.08249 19.0332H8.51953Z" fill="white"/>
<path opacity="0.9" d="M8.51953 23.5508V25.1504L8.95205 23.5508H8.51953Z" fill="white"/>
<path opacity="0.9" d="M10.16 19.0332L9.03413 23.2485H8.58789L9.72066 19.0332H10.16Z" fill="white"/>
<path opacity="0.9" d="M14.0113 23.5508H13.4072L12.2812 27.7661H13.62L14.0113 26.3038V23.5508Z" fill="white"/>
<path opacity="0.9" d="M14.013 21.3057L13.4912 23.2485H14.013V21.3057Z" fill="white"/>
<path d="M14.2595 17.6328H7.70312V18.4567H14.2595V17.6328Z" fill="#172554"/>
<path opacity="0.4" d="M14.2526 17.6328H13.4287V18.4567H14.2526V17.6328Z" fill="white"/>
<path d="M23.2106 17.6328H16.6543V18.4567H23.2106V17.6328Z" fill="#172554"/>
<path opacity="0.4" d="M23.2047 17.6328H22.3809V18.4567H23.2047V17.6328Z" fill="white"/>
<path d="M39.7365 23.5508H37.1758V27.7661H39.7365V23.5508Z" fill="#407BFF"/>
<path d="M39.7365 19.0332H37.1758V23.2485H39.7365V19.0332Z" fill="#407BFF"/>
<path d="M42.6675 23.5508H40.0381V27.7661H42.6675V23.5508Z" fill="#407BFF"/>
<path d="M42.6675 19.0332H40.0381V23.2485H42.6675V19.0332Z" fill="#407BFF"/>
<path opacity="0.7" d="M39.7365 23.5508H37.1758V27.7661H39.7365V23.5508Z" fill="white"/>
<path opacity="0.7" d="M39.7365 19.0332H37.1758V23.2485H39.7365V19.0332Z" fill="white"/>
<path opacity="0.7" d="M42.6675 23.5508H40.0381V27.7661H42.6675V23.5508Z" fill="white"/>
<path opacity="0.7" d="M42.6675 19.0332H40.0381V23.2485H42.6675V19.0332Z" fill="white"/>
<path opacity="0.9" d="M37.1758 19.0332V21.1203L37.7387 19.0332H37.1758Z" fill="white"/>
<path opacity="0.9" d="M37.1758 23.5508V25.1504L37.6083 23.5508H37.1758Z" fill="white"/>
<path opacity="0.9" d="M38.8163 19.0332L37.6904 23.2485H37.2441L38.3769 19.0332H38.8163Z" fill="white"/>
<path opacity="0.9" d="M42.6676 23.5508H42.0634L40.9375 27.7661H42.2762L42.6676 26.3038V23.5508Z" fill="white"/>
<path opacity="0.9" d="M42.6683 21.3057L42.1465 23.2485H42.6683V21.3057Z" fill="white"/>
<path d="M30.7844 23.5508H28.2236V27.7661H30.7844V23.5508Z" fill="#407BFF"/>
<path d="M30.7844 19.0332H28.2236V23.2485H30.7844V19.0332Z" fill="#407BFF"/>
<path d="M33.7163 23.5508H31.0869V27.7661H33.7163V23.5508Z" fill="#407BFF"/>
<path d="M33.7163 19.0332H31.0869V23.2485H33.7163V19.0332Z" fill="#407BFF"/>
<path opacity="0.7" d="M30.7844 23.5508H28.2236V27.7661H30.7844V23.5508Z" fill="white"/>
<path opacity="0.7" d="M30.7844 19.0332H28.2236V23.2485H30.7844V19.0332Z" fill="white"/>
<path opacity="0.7" d="M33.7163 23.5508H31.0869V27.7661H33.7163V23.5508Z" fill="white"/>
<path opacity="0.7" d="M33.7163 19.0332H31.0869V23.2485H33.7163V19.0332Z" fill="white"/>
<path opacity="0.9" d="M28.2236 19.0332V21.1203L28.7797 19.0332H28.2236Z" fill="white"/>
<path opacity="0.9" d="M28.2236 23.5508V25.1504L28.6493 23.5508H28.2236Z" fill="white"/>
<path opacity="0.9" d="M29.8641 19.0332L28.7314 23.2485H28.292L29.4179 19.0332H29.8641Z" fill="white"/>
<path opacity="0.9" d="M33.7154 23.5508H33.1113L31.9854 27.7661H33.3241L33.7154 26.3038V23.5508Z" fill="white"/>
<path opacity="0.9" d="M33.7151 21.3057L33.1934 23.2485H33.7151V21.3057Z" fill="white"/>
<path d="M36.7981 18.4561H43.3545V17.6322H36.7981V18.4561Z" fill="#172554"/>
<path opacity="0.4" d="M36.8041 18.4561H37.6279V17.6322H36.8041V18.4561Z" fill="white"/>
<path d="M27.8528 18.4561H34.4092V17.6322H27.8528V18.4561Z" fill="#172554"/>
<path opacity="0.4" d="M27.8529 18.4561H28.6768V17.6322H27.8529V18.4561Z" fill="white"/>
<path d="M46.4424 28.583H4.00804L0.527344 31.3154H49.9987L49.5044 30.9309L46.4424 28.583Z" fill="#407BFF"/>
<path opacity="0.2" d="M25.7656 28.583L25.9029 30.9309H49.5058L46.4439 28.583H25.7656Z" fill="white"/>
<path d="M50 30.4434H0V31.734H50V30.4434Z" fill="#407BFF"/>
<path d="M50 30.4434H0V31.734H50V30.4434Z" fill="#CCA559"/>
<path d="M49.9999 30.4434H26.04V31.734H49.9999V30.4434Z" fill="#EDD097"/>
<path d="M49.025 49.6934H1.81233L1.16699 50.1396H49.6703L49.025 49.6934Z" fill="#E0E0E0"/>
</svg>
