<svg width="286" height="286" viewBox="0 0 286 286" fill="none" xmlns="http://www.w3.org/2000/svg">
<path d="M101.641 100.524L100.053 96.0614C98.9596 92.9945 96.8582 90.3893 94.0922 88.6719C91.3261 86.9545 88.0591 86.2267 84.8256 86.6075L21.5481 94.0091C17.7575 94.4537 14.2986 96.3857 11.9323 99.3803C9.56594 102.375 8.48591 106.187 8.92972 109.977L26.9371 263.967C27.0866 265.255 27.4886 266.501 28.12 267.633C28.7514 268.766 29.5999 269.763 30.6169 270.567C31.6339 271.371 32.7995 271.967 34.047 272.321C35.2946 272.674 36.5995 272.778 37.8872 272.627L264.304 246.145C265.594 245.999 266.843 245.599 267.978 244.969C269.114 244.339 270.114 243.491 270.921 242.474C271.728 241.457 272.326 240.29 272.681 239.041C273.036 237.792 273.141 236.485 272.99 235.195L257.366 102.073C257.064 99.4741 255.742 97.1019 253.691 95.478C251.64 93.854 249.028 93.1113 246.429 93.4133L114.948 108.799C112.122 109.126 109.267 108.486 106.851 106.983C104.434 105.481 102.598 103.204 101.641 100.524Z" fill="#172554"/>
<path d="M107.961 33.559L36.4238 47.8145L56.0643 146.374L127.601 132.118L107.961 33.559Z" fill="#407BFF"/>
<path opacity="0.7" d="M107.961 33.559L36.4238 47.8145L56.0643 146.374L127.601 132.118L107.961 33.559Z" fill="white"/>
<g opacity="0.4">
<path d="M98.4085 57.2389L54.3433 66.0307C53.3168 66.23 52.2531 66.0164 51.383 65.4364C50.513 64.8563 49.9067 63.9566 49.6958 62.9324C49.4966 61.9059 49.7102 60.8422 50.2902 59.9721C50.8702 59.102 51.77 58.4958 52.7942 58.2849L96.8858 49.5328C97.9124 49.3335 98.9761 49.5471 99.8461 50.1271C100.716 50.7072 101.322 51.6069 101.533 52.6311C101.72 53.6554 101.498 54.7123 100.913 55.574C100.329 56.4358 99.4294 57.0337 98.4085 57.2389Z" fill="#407BFF"/>
<path d="M101.653 73.5644L57.5874 82.396C56.5629 82.5914 55.5026 82.376 54.6355 81.7963C53.7684 81.2166 53.1642 80.3191 52.9532 79.2977C52.7578 78.2731 52.9732 77.2128 53.5529 76.3458C54.1326 75.4787 55.03 74.8744 56.0515 74.6634L100.117 65.8848C101.141 65.6894 102.202 65.9048 103.069 66.4845C103.936 67.0642 104.54 67.9617 104.751 68.9831C104.931 69.9997 104.708 71.0464 104.13 71.9016C103.552 72.7567 102.663 73.3531 101.653 73.5644Z" fill="#407BFF"/>
<path d="M104.897 89.864L60.8316 98.6427C59.807 98.8381 58.7467 98.6226 57.8797 98.0429C57.0126 97.4632 56.4083 96.5658 56.1973 95.5443C56.0019 94.5198 56.2173 93.4595 56.797 92.5924C57.3767 91.7253 58.2742 91.121 59.2956 90.91L103.361 82.1182C104.385 81.9228 105.446 82.1382 106.313 82.7179C107.18 83.2976 107.784 84.1951 107.995 85.2165C108.194 86.2431 107.981 87.3068 107.401 88.1768C106.821 89.0469 105.921 89.6531 104.897 89.864Z" fill="#407BFF"/>
<path d="M108.155 106.23L64.0894 115.008C63.0629 115.208 61.9992 114.994 61.1291 114.414C60.2591 113.834 59.6528 112.934 59.4419 111.91C59.2427 110.884 59.4562 109.82 60.0363 108.95C60.6163 108.08 61.5161 107.473 62.5403 107.263L106.605 98.4839C107.632 98.2847 108.696 98.4982 109.566 99.0783C110.436 99.6583 111.042 100.558 111.253 101.582C111.452 102.609 111.239 103.672 110.659 104.543C110.079 105.413 109.179 106.019 108.155 106.23Z" fill="#407BFF"/>
<path d="M99.3482 124.859L67.3321 131.241C66.3075 131.437 65.2472 131.221 64.3801 130.641C63.5131 130.062 62.9088 129.164 62.6978 128.143C62.4985 127.116 62.7121 126.053 63.2921 125.183C63.8722 124.313 64.7719 123.706 65.7961 123.495L97.8122 117.113C98.8368 116.918 99.8971 117.133 100.764 117.713C101.631 118.293 102.236 119.19 102.446 120.212C102.646 121.238 102.432 122.302 101.852 123.172C101.272 124.042 100.372 124.648 99.3482 124.859Z" fill="#407BFF"/>
</g>
<path d="M209.891 14.5643L137.621 24.4512L151.243 124.021L223.513 114.134L209.891 14.5643Z" fill="#407BFF"/>
<path opacity="0.7" d="M209.891 14.5643L137.621 24.4512L151.243 124.021L223.513 114.134L209.891 14.5643Z" fill="white"/>
<g opacity="0.4">
<path d="M198.92 37.6432L154.405 43.734C153.368 43.87 152.319 43.5917 151.487 42.9596C150.654 42.3276 150.104 41.3926 149.956 40.3576C149.82 39.3209 150.098 38.2724 150.73 37.4396C151.362 36.6067 152.297 36.0566 153.332 35.9087L197.847 29.8179C198.884 29.6819 199.933 29.9602 200.765 30.5923C201.598 31.2243 202.148 32.1593 202.296 33.1943C202.432 34.231 202.154 35.2795 201.522 36.1123C200.89 36.9452 199.955 37.4953 198.92 37.6432Z" fill="#407BFF"/>
<path d="M201.17 54.1019L156.655 60.1926C155.618 60.3286 154.57 60.0504 153.737 59.4183C152.904 58.7862 152.354 57.8513 152.206 56.8162C152.074 55.7817 152.354 54.7366 152.985 53.9067C153.617 53.0768 154.55 52.5286 155.582 52.3806L200.098 46.2899C201.132 46.1536 202.179 46.4301 203.012 47.0594C203.844 47.6887 204.395 48.6204 204.547 49.653C204.683 50.6897 204.404 51.7382 203.772 52.571C203.14 53.4039 202.205 53.954 201.17 54.1019Z" fill="#407BFF"/>
<path d="M171.167 74.9823L158.906 76.6639C157.87 76.7999 156.821 76.5217 155.988 75.8896C155.156 75.2575 154.606 74.3226 154.458 73.2875C154.322 72.2509 154.6 71.2024 155.232 70.3695C155.864 69.5367 156.799 68.9866 157.834 68.8386L170.108 67.1571C171.143 67.0248 172.188 67.3048 173.018 67.9365C173.848 68.5682 174.396 69.501 174.544 70.5334C174.68 71.5701 174.402 72.6186 173.769 73.4515C173.137 74.2843 172.202 74.8344 171.167 74.9823Z" fill="#407BFF"/>
<path d="M194.96 71.725L182.686 73.4065C181.652 73.5388 180.607 73.2588 179.777 72.6271C178.947 71.9954 178.399 71.0626 178.251 70.0301C178.115 68.9935 178.393 67.945 179.025 67.1121C179.657 66.2793 180.592 65.7292 181.627 65.5813L193.888 63.9129C194.923 63.7767 195.969 64.0531 196.802 64.6824C197.634 65.3118 198.186 66.2435 198.337 67.2761C198.473 68.3127 198.195 69.3612 197.562 70.1941C196.93 71.0269 195.995 71.577 194.96 71.725Z" fill="#407BFF"/>
<path d="M205.672 87.0309L161.157 93.1217C160.12 93.2576 159.072 92.9794 158.239 92.3473C157.406 91.7153 156.856 90.7803 156.708 89.7453C156.576 88.7107 156.856 87.6656 157.487 86.8357C158.119 86.0058 159.052 85.4576 160.084 85.3096L204.6 79.2056C205.636 79.0696 206.685 79.3479 207.518 79.98C208.35 80.612 208.901 81.547 209.049 82.582C209.185 83.6187 208.906 84.6672 208.274 85.5C207.642 86.3329 206.707 86.883 205.672 87.0309Z" fill="#407BFF"/>
<path d="M195.768 105.158L163.407 109.58C162.375 109.713 161.331 109.435 160.502 108.806C159.672 108.177 159.123 107.247 158.972 106.217C158.835 105.182 159.112 104.136 159.741 103.303C160.37 102.471 161.302 101.919 162.335 101.768L194.695 97.3458C195.728 97.2133 196.771 97.4915 197.6 98.1205C198.43 98.7494 198.98 99.6789 199.131 100.709C199.267 101.744 198.99 102.79 198.361 103.623C197.732 104.455 196.8 105.007 195.768 105.158Z" fill="#407BFF"/>
</g>
<path d="M141.695 29.0927L69.0273 35.4248L77.7513 135.543L150.419 129.211L141.695 29.0927Z" fill="#407BFF"/>
<path opacity="0.8" d="M141.695 29.0927L69.0273 35.4248L77.7513 135.543L150.419 129.211L141.695 29.0927Z" fill="white"/>
<path d="M129.607 51.6249L84.8396 55.5177C83.798 55.6024 82.7651 55.2732 81.9645 54.6016C81.164 53.9299 80.6604 52.9699 80.5628 51.9295C80.4818 50.8901 80.8126 49.8606 81.4839 49.0629C82.1552 48.2653 83.1131 47.7636 84.151 47.666L128.918 43.6937C129.96 43.6091 130.992 43.9382 131.793 44.6099C132.594 45.2815 133.097 46.2416 133.195 47.282C133.246 47.803 133.193 48.329 133.04 48.8297C132.888 49.3304 132.637 49.796 132.304 50.1996C131.97 50.6032 131.56 50.9369 131.097 51.1815C130.635 51.4261 130.128 51.5768 129.607 51.6249Z" fill="#CCA559"/>
<path d="M131.049 68.1759L86.282 72.1481C85.2405 72.2328 84.2075 71.9037 83.407 71.232C82.6065 70.5604 82.1028 69.6003 82.0053 68.5599C81.9206 67.5184 82.2497 66.4854 82.9214 65.6849C83.593 64.8843 84.5531 64.3807 85.5935 64.2831L130.36 60.3109C131.402 60.2262 132.435 60.5554 133.235 61.227C134.036 61.8987 134.54 62.8587 134.637 63.8992C134.722 64.9407 134.393 65.9737 133.721 66.7742C133.049 67.5747 132.089 68.0783 131.049 68.1759Z" fill="#CCA559"/>
<path d="M132.494 84.7267L87.7273 88.6989C86.6858 88.7836 85.6528 88.4544 84.8523 87.7828C84.0518 87.1111 83.5482 86.1511 83.4506 85.1107C83.3659 84.0691 83.695 83.0362 84.3667 82.2356C85.0384 81.4351 85.9984 80.9315 87.0388 80.8339L131.806 76.8617C132.847 76.777 133.88 77.1062 134.681 77.7778C135.481 78.4495 135.985 79.4095 136.083 80.4499C136.167 81.4915 135.838 82.5244 135.166 83.325C134.495 84.1255 133.535 84.6291 132.494 84.7267Z" fill="#CCA559"/>
<path d="M133.963 101.278L89.1961 105.25C88.1545 105.335 87.1216 105.006 86.3211 104.334C85.5205 103.663 85.0169 102.703 84.9193 101.662C84.8346 100.621 85.1638 99.5876 85.8355 98.7871C86.5071 97.9865 87.4672 97.4829 88.5076 97.3853L133.275 93.4926C134.316 93.4079 135.349 93.737 136.15 94.4087C136.95 95.0803 137.454 96.0404 137.551 97.0808C137.614 98.1092 137.275 99.1218 136.606 99.9049C135.936 100.688 134.989 101.18 133.963 101.278Z" fill="#CCA559"/>
<path d="M123.145 118.902L90.6128 121.735C89.5647 121.831 88.5215 121.507 87.7122 120.834C86.9029 120.161 86.3936 119.195 86.2963 118.147C86.2116 117.105 86.5407 116.072 87.2124 115.272C87.8841 114.471 88.8441 113.968 89.8845 113.87L122.417 111.037C123.459 110.952 124.492 111.281 125.292 111.953C126.093 112.624 126.596 113.584 126.694 114.625C126.779 115.66 126.455 116.688 125.792 117.487C125.129 118.286 124.179 118.794 123.145 118.902Z" fill="#407BFF"/>
<path d="M230.243 24.2278L157.385 27.7402L162.224 128.121L235.083 124.608L230.243 24.2278Z" fill="#407BFF"/>
<path opacity="0.8" d="M230.243 24.2278L157.385 27.7402L162.224 128.121L235.083 124.608L230.243 24.2278Z" fill="white"/>
<path d="M217.3 46.2498L172.428 48.4213C171.385 48.4647 170.367 48.0959 169.594 47.3947C168.821 46.6935 168.355 45.7162 168.296 44.6742C168.253 43.6314 168.622 42.6135 169.323 41.8404C170.024 41.0674 171.001 40.6013 172.044 40.5431L216.93 38.3716C217.972 38.3282 218.99 38.697 219.763 39.3982C220.537 40.0994 221.003 41.0767 221.061 42.1187C221.104 43.1637 220.733 44.1836 220.029 44.957C219.325 45.7304 218.345 46.195 217.3 46.2498Z" fill="#CCA559"/>
<path d="M218.107 62.8539L173.22 65.0121C172.178 65.0555 171.16 64.6867 170.387 63.9855C169.614 63.2843 169.148 62.307 169.089 61.265C169.046 60.22 169.417 59.2002 170.121 58.4267C170.825 57.6533 171.805 57.1888 172.85 57.1339L217.723 54.9624C218.768 54.9191 219.787 55.2897 220.561 55.9937C221.334 56.6977 221.799 57.6783 221.854 58.7228C221.897 59.7655 221.528 60.7835 220.827 61.5566C220.126 62.3296 219.149 62.7956 218.107 62.8539Z" fill="#CCA559"/>
<path d="M186.396 81.0726L174.029 81.6685C172.986 81.7118 171.968 81.3431 171.195 80.6419C170.422 79.9407 169.956 78.9634 169.898 77.9213C169.855 76.8785 170.223 75.8606 170.925 75.0875C171.626 74.3145 172.603 73.8485 173.645 73.7902L186.012 73.1811C187.057 73.1379 188.077 73.5085 188.85 74.2125C189.624 74.9165 190.088 75.8971 190.143 76.9415C190.186 77.9843 189.818 79.0023 189.116 79.7753C188.415 80.5484 187.438 81.0144 186.396 81.0726Z" fill="#CCA559"/>
<path d="M210.376 79.8553L198.01 80.4511C196.967 80.4945 195.949 80.1257 195.176 79.4245C194.403 78.7233 193.937 77.7461 193.878 76.704C193.835 75.6612 194.204 74.6433 194.905 73.8702C195.606 73.0972 196.584 72.6311 197.626 72.5729L209.992 71.9771C211.035 71.9337 212.053 72.3025 212.826 73.0037C213.599 73.7049 214.065 74.6821 214.124 75.7242C214.167 76.767 213.798 77.7849 213.097 78.558C212.396 79.331 211.418 79.7971 210.376 79.8553Z" fill="#CCA559"/>
<path d="M219.71 96.0482L174.824 98.2064C173.781 98.2498 172.763 97.881 171.99 97.1798C171.217 96.4787 170.751 95.5014 170.693 94.4593C170.65 93.4144 171.02 92.3945 171.724 91.6211C172.428 90.8476 173.409 90.3831 174.453 90.3282L219.326 88.1567C220.371 88.1135 221.391 88.484 222.164 89.188C222.938 89.892 223.402 90.8727 223.457 91.9171C223.501 92.9599 223.132 93.9778 222.431 94.7509C221.729 95.5239 220.752 95.99 219.71 96.0482Z" fill="#CCA559"/>
<path d="M208.245 113.235L175.633 114.811C174.59 114.854 173.572 114.485 172.799 113.784C172.026 113.083 171.56 112.106 171.501 111.064C171.458 110.021 171.827 109.003 172.528 108.23C173.229 107.457 174.207 106.991 175.249 106.933L207.861 105.357C208.903 105.314 209.921 105.682 210.694 106.384C211.467 107.085 211.933 108.062 211.992 109.104C212.035 110.147 211.666 111.165 210.965 111.938C210.264 112.711 209.287 113.177 208.245 113.235Z" fill="#407BFF"/>
<path d="M121.847 103.37L120.682 99.0134C119.865 95.9986 117.97 93.3887 115.355 91.6799C112.741 89.9711 109.59 89.2825 106.501 89.7449L43.2233 97.1465C39.3844 97.617 35.8489 99.4716 33.2797 102.363C30.7105 105.254 29.284 108.982 29.2676 112.85L32.8558 263.596C32.8772 264.837 33.1642 266.06 33.6975 267.182C34.2308 268.303 34.998 269.297 35.9475 270.098C36.8971 270.898 38.007 271.486 39.2026 271.821C40.3982 272.157 41.6517 272.233 42.8791 272.043L269.296 245.562C271.925 245.243 274.347 243.977 276.109 242C277.872 240.023 278.853 237.472 278.869 234.824L275.77 104.508C275.747 103.266 275.458 102.043 274.924 100.922C274.389 99.8003 273.62 98.8062 272.67 98.0061C271.719 97.2061 270.609 96.6185 269.412 96.283C268.216 95.9475 266.962 95.8717 265.734 96.0607L134.267 111.433C131.568 111.845 128.812 111.252 126.522 109.765C124.232 108.278 122.569 106.002 121.847 103.37Z" fill="#407BFF"/>
</svg>
