<svg width="20" height="20" viewBox="0 0 20 20" fill="none" xmlns="http://www.w3.org/2000/svg">
<rect width="20" height="20" rx="10" fill="#F2E1C1"/>
<path d="M4.00098 10H4.66764M10.001 4V4.66667M15.3343 10H16.001M5.73431 5.73333L6.20098 6.2M14.2676 5.73333L13.801 6.2" stroke="#172554" stroke-width="0.833333" stroke-linecap="round" stroke-linejoin="round"/>
<path d="M8.00033 12.6665C7.44064 12.2467 7.02721 11.6615 6.81861 10.9937C6.61001 10.3259 6.61681 9.60945 6.83805 8.94574C7.05928 8.28204 7.48374 7.70476 8.05129 7.2957C8.61884 6.88663 9.30072 6.6665 10.0003 6.6665C10.6999 6.6665 11.3818 6.88663 11.9494 7.2957C12.5169 7.70476 12.9414 8.28204 13.1626 8.94574C13.3838 9.60945 13.3906 10.3259 13.182 10.9937C12.9734 11.6615 12.56 12.2467 12.0003 12.6665C11.74 12.9242 11.5441 13.2395 11.4282 13.5869C11.3124 13.9344 11.28 14.3042 11.3337 14.6665C11.3337 15.0201 11.1932 15.3593 10.9431 15.6093C10.6931 15.8594 10.3539 15.9998 10.0003 15.9998C9.6467 15.9998 9.30757 15.8594 9.05752 15.6093C8.80747 15.3593 8.66699 15.0201 8.66699 14.6665C8.72063 14.3042 8.68823 13.9344 8.57241 13.5869C8.45659 13.2395 8.26061 12.9242 8.00033 12.6665Z" stroke="#172554" stroke-width="0.833333" stroke-linecap="round" stroke-linejoin="round"/>
<path d="M8.4668 13.3335H11.5335" stroke="#172554" stroke-width="0.833333" stroke-linecap="round" stroke-linejoin="round"/>
</svg>
