<svg width="515" height="355" viewBox="0 0 515 355" fill="none" xmlns="http://www.w3.org/2000/svg">
<g clip-path="url(#clip0_15629_38246)">
<path d="M0 0H244.542H452.38C439.125 20.1798 426.111 40.5178 413.343 61.0099L402.075 79.3226C397.982 86.1041 396.185 89.8579 390.983 96.1587C387.567 100.98 383.781 105.774 380.281 110.63C373.035 120.79 365.909 131.034 358.905 141.362C356.906 144.31 347.487 157.31 347.624 159.956C347.804 161.076 348.01 162.679 348.256 163.746C346.78 165.665 344.577 168.885 343.732 171.118C343.441 172.701 343.835 174.648 344.154 176.224C338.981 181.531 336.064 182.112 328.991 184.179C327.59 188.127 324.641 198.866 323.569 203.141C323.409 203.639 323.124 204.43 323.01 204.911C322.796 205.505 322.442 206.727 321.955 207.069C321.756 207.624 321.656 207.915 321.414 208.454C320.113 214.785 317.415 221.977 315.904 228.607C311.788 233.319 307.131 237.911 310.93 244.461C310.898 245.836 310.227 247.062 309.916 248.367L308.96 251.433C308.271 254.209 307.872 256.17 305.998 258.449C303.697 258.07 303.277 257.846 301.396 256.606C301.276 255.681 301.522 254.375 301.651 253.417L300.806 252.818C300.068 251.892 299.003 250.184 297.79 251.111C296.772 250.12 295.936 249.606 294.973 248.455L295.48 248.111L295.537 247.663C294.96 246.782 294.293 246.481 293.385 245.908C292.055 244.146 291.687 242.312 292.387 240.232C290.94 234.278 289.85 232.967 286.706 227.681C285.69 227.072 277.954 220.396 277.186 219.399C276.521 219.89 276.174 220.223 275.372 220.452L272.752 220.615C271.465 221.602 272.465 224.488 269.6 225.814C267.105 226.498 264.982 225.4 263.88 223.109C262.502 222.269 261.575 219.994 260.788 218.5C260.64 220.308 260.64 223.682 259.515 224.916C257.329 226.479 255.998 226.013 253.878 224.672C253.138 224.899 252.934 224.775 252.209 224.591L229.005 232.33C227.332 232.878 221.475 234.492 220.356 235.083L221.412 240.19C221.579 241.834 221.591 241.871 220.4 243.115C223.146 245.794 225.037 247.133 225.93 250.986L225.982 251.493C224.592 253.991 223.883 254.796 220.909 254.789L220.379 254.211L219.984 254.683C216.076 257.219 212.595 256.581 208.287 256.734C203.732 259.664 200.293 261.035 194.693 261.281C190.849 261.899 185.233 263.669 181.676 263.093C180.022 262.941 177.98 262.079 176.396 261.491C175.378 261.119 174.293 260.768 173.263 260.416L170.918 259.298C159.02 252.691 156.636 249.644 149.066 238.237C147.284 235.552 144.891 232.513 143.253 229.785C141.897 228.46 141.199 227.895 139.671 226.76C138.915 226.176 136.555 224.815 135.633 224.25C134.936 226.186 134.657 226.733 134.658 228.815L134.478 228.952C133.32 228.721 130.03 226.013 128.994 225.195C127.393 223.777 125.941 222.621 124.251 221.304C123.379 222.532 122.957 224.659 122.772 226.125L122.402 225.903C115.674 221.834 107.5 215.671 101.102 210.901C90.0053 202.623 79.0344 194.177 68.1942 185.564C60.0402 179.12 51.7303 172.69 43.8295 165.91C38.478 161.319 28.2884 153.11 24.4286 147.318C18.2445 138.038 14.1189 124.003 10.8549 113.419C9.60832 109.377 7.97994 104.036 6.98594 99.9754L0 101.224V72.624V0Z" fill="#35475D"/>
<path d="M244.542 0H452.381C439.125 20.1798 426.111 40.5178 413.343 61.0099L402.076 79.3226C397.983 86.1041 396.186 89.8579 390.984 96.1587C387.567 100.98 383.782 105.774 380.281 110.63C373.035 120.79 365.91 131.034 358.905 141.362C356.907 144.31 347.488 157.31 347.624 159.956C347.805 161.076 348.011 162.679 348.257 163.746C346.78 165.665 344.578 168.885 343.732 171.118C343.442 172.701 343.836 174.648 344.154 176.224C338.981 181.531 336.064 182.112 328.992 184.179C327.591 188.127 324.642 198.866 323.57 203.141C323.41 203.639 323.124 204.43 323.011 204.911C322.797 205.505 322.442 206.727 321.956 207.069C321.756 207.624 321.656 207.915 321.414 208.454C320.114 214.785 317.416 221.977 315.905 228.607C311.789 233.319 307.132 237.911 310.93 244.461C310.898 245.836 310.228 247.062 309.917 248.367L308.96 251.433C308.272 254.209 307.873 256.17 305.998 258.449C303.697 258.07 303.278 257.846 301.397 256.606C301.276 255.681 301.523 254.375 301.652 253.417L300.807 252.818C300.069 251.892 299.003 250.184 297.791 251.111C296.773 250.12 295.937 249.606 294.973 248.455L295.481 248.111L295.537 247.663C294.961 246.782 294.294 246.481 293.386 245.908C292.055 244.146 291.688 242.312 292.387 240.232C290.941 234.278 289.851 232.967 286.707 227.681C285.691 227.072 277.955 220.396 277.187 219.399C276.521 219.89 276.174 220.223 275.373 220.452L272.752 220.615C271.465 221.602 272.466 224.488 269.601 225.814C267.106 226.498 264.983 225.4 263.881 223.109C262.503 222.269 261.576 219.994 260.789 218.5C260.641 220.308 260.64 223.682 259.515 224.916C257.33 226.479 255.999 226.013 253.879 224.672L253.49 224.213C252.813 224.261 252.824 224.254 252.157 224.113C250.498 222.78 249.527 220.362 248.603 218.49C244.255 209.678 239.954 191.637 229.65 188.527C228.98 189.779 228.331 191.031 227.593 192.244C227.404 197.649 226.216 202.466 220.728 204.883C219.813 205.171 219.044 205.276 218.069 205.12L217.803 204.999C216.735 204.519 216.665 204.554 215.962 203.649C216.03 200.653 215.57 197.816 215.646 194.843C213.498 185.205 214.689 184.283 215.485 174.936C216.509 162.914 225.437 156.035 225.026 144.607C223.413 143.725 222.689 143.489 221.876 141.886C221.219 141.171 221.025 140.913 220.898 139.951C220.665 137.942 220 134.811 219.669 132.6C228.814 121.891 251.059 120.065 263.102 126.304C264.019 128.583 264.22 130.595 264.581 132.992C265.385 131.858 266.513 130.039 266.513 128.657C266.512 122.689 265.332 115.718 264.472 109.823C262.592 96.7053 260.522 83.6161 258.265 70.5585C256.262 57.9581 253.487 44.6106 251.095 32.0426C249.178 21.9717 247.105 9.84369 244.542 0Z" fill="#F8FAFC"/>
<path d="M224.28 139.059C227.402 137.237 230.715 135.765 234.161 134.67C241.232 132.497 255.272 131.523 261.843 135.043C261.612 136.653 262.055 139.319 262.46 140.915C262.128 144.958 268.601 153.768 270.889 157.266L281.925 174.162C291.463 188.683 290.187 186.512 286.338 202.808C285.128 202.892 284.621 203.028 283.423 203.312L282.821 204.011C282.468 205.444 281.669 208.982 281.078 210.25L280.876 210.314L279.973 212.498C278.39 213.007 276.36 213.51 274.693 213.362C274.431 214.747 274.188 215.924 273.849 217.298L272.986 216.819L272.725 217.942C272.535 218.796 272.209 219.667 272.546 220.426L272.752 220.615C271.465 221.603 272.466 224.488 269.601 225.815C267.106 226.499 264.983 225.4 263.881 223.109C262.503 222.27 261.576 219.994 260.789 218.5C260.641 220.309 260.64 223.682 259.515 224.916C257.33 226.48 255.999 226.013 253.879 224.672L253.49 224.213C252.813 224.262 252.824 224.255 252.157 224.113C250.498 222.78 249.527 220.362 248.603 218.49C244.255 209.679 239.954 191.638 229.65 188.527C228.98 189.779 228.331 191.031 227.593 192.244C227.404 197.65 226.216 202.467 220.728 204.884C219.813 205.171 219.044 205.276 218.069 205.121L217.803 204.999C216.735 204.52 216.665 204.554 215.962 203.65C216.03 200.653 215.57 197.817 215.646 194.843C213.498 185.206 214.689 184.284 215.485 174.936C216.509 162.914 225.437 156.035 225.026 144.608C223.413 143.725 222.689 143.489 221.876 141.886C222.681 140.5 223.071 140.098 224.28 139.059Z" fill="#F6AC88"/>
<path d="M227.592 192.244C227.198 185.49 228.092 174.647 237.569 181.496C240.637 185.207 246.661 195.588 248.1 200.307C250.252 207.362 249.015 218.052 253.489 224.213C252.812 224.261 252.823 224.254 252.155 224.113C250.497 222.78 249.526 220.362 248.602 218.49C244.254 209.678 239.953 191.637 229.649 188.527C228.979 189.778 228.33 191.031 227.592 192.244Z" fill="#BBCBEF"/>
<path d="M257.541 187.613C258.82 189.863 262.158 195.438 262.719 197.544C264.359 203.692 261.816 216.503 263.626 222.108L263.88 223.109C262.502 222.269 261.575 219.993 260.788 218.5C260.579 216.477 260.684 213.655 260.562 211.428C260.717 206.302 260.379 200.191 259.555 195.129C259.201 192.953 257.585 189.702 257.541 187.613Z" fill="url(#paint0_linear_15629_38246)"/>
<path d="M253.912 177.919C256.766 181.884 262.588 192.849 264.607 197.528C265.536 199.681 265.245 220.791 263.626 222.109C261.816 216.504 264.358 203.693 262.719 197.544C262.158 195.439 258.82 189.864 257.541 187.614C255.781 184.616 254.554 181.336 253.912 177.919Z" fill="#E18F68"/>
<path d="M220.727 204.883C220.333 204.719 220.539 204.844 220.152 204.446C220.557 203.564 222.309 202.437 223.034 201.411C225.394 198.073 226.43 195.481 226.09 191.35C225.992 190.157 225.967 187.383 226.083 186.121C226.334 183.419 227.549 178.313 229.823 176.654C232.749 174.521 236.74 179.159 237.569 181.496C228.092 174.647 227.198 185.49 227.592 192.244C227.403 197.649 226.215 202.466 220.727 204.883Z" fill="#E18F68"/>
<path d="M260.562 211.428C260.684 213.655 260.578 216.478 260.787 218.5C260.64 220.308 260.639 223.682 259.514 224.916C258.64 224.15 256.819 224.65 255.687 223.452C254.155 221.831 252.846 219.513 254.926 217.699C256.603 216.237 258.403 216.614 260.448 216.84C260.433 214.932 260.415 213.327 260.562 211.428Z" fill="#F7BD9F"/>
<path d="M272.985 216.818C274.739 211.536 276.215 199.176 275.106 193.529C274.179 188.811 268.007 181.038 267.449 176.411C268.22 176.811 269.716 179.615 270.148 180.526C272.544 185.586 276.657 191.477 276.595 197.232C276.537 202.566 275.597 208.116 274.692 213.361C274.43 214.746 274.187 215.923 273.848 217.297L272.985 216.818Z" fill="#E18F68"/>
<path d="M269.6 225.814C269.298 224.863 268.645 225.099 267.84 224.509C265.251 222.612 265.481 217.832 269.123 217.415C269.932 217.323 272.112 217.391 272.724 217.941C272.534 218.796 272.207 219.667 272.545 220.425L272.751 220.615C271.464 221.602 272.464 224.488 269.6 225.814Z" fill="#F7BD9F"/>
<path d="M280.876 210.314L280.635 210.14C280.958 205.321 284.182 197.579 283.623 191.845C283.19 187.414 276.178 178.171 276.75 175.634C278.357 176.988 283.53 187.938 284.425 190.301C285.484 193.099 283.553 200.734 282.821 204.011C282.468 205.443 281.669 208.982 281.078 210.249L280.876 210.314Z" fill="#E18F68"/>
<path d="M215.645 194.843L216.031 195.374C217.127 195.455 218.395 195.271 219.106 195.836C220.492 198.512 219.9 201.053 217.567 203.069C217.264 203.33 217.341 203.273 217.112 203.643C217.468 204.268 217.66 204.551 218.068 205.121L217.803 204.999C216.734 204.52 216.665 204.554 215.961 203.65C216.029 200.653 215.569 197.817 215.645 194.843Z" fill="#F7BD9F"/>
<path d="M224.28 139.06C224.543 140.487 225.183 143.311 225.025 144.608C223.412 143.725 222.689 143.489 221.875 141.887C222.68 140.5 223.07 140.099 224.28 139.06Z" fill="#AAA9A9"/>
<path d="M318.056 186.016C317.207 188.932 316.287 192.434 315.344 195.272C315.555 196.366 315.273 196.012 315.972 196.545C316.577 196.466 316.578 196.493 317.148 196.305C317.081 197.2 317.03 198.221 316.933 199.1C316.711 199.802 316.56 200.355 316.259 201.031L315.976 201.646L315.992 202.73C315.743 203.639 315.549 204.202 315.481 205.136C317.856 205.989 319.51 206.448 321.955 207.07C321.755 207.625 321.655 207.916 321.413 208.454C320.113 214.785 317.414 221.977 315.904 228.607C311.788 233.319 307.131 237.912 310.929 244.461C310.897 245.837 310.227 247.063 309.916 248.367L308.959 251.433C308.271 254.21 307.871 256.17 305.997 258.449C303.696 258.07 303.277 257.847 301.396 256.606C301.275 255.681 301.522 254.375 301.651 253.417L300.806 252.819C300.067 251.892 299.002 250.184 297.79 251.112C296.772 250.121 295.935 249.607 294.972 248.455L295.48 248.112L295.536 247.663C294.96 246.783 294.293 246.482 293.384 245.909C292.054 244.146 291.687 242.312 292.386 240.232C290.94 234.279 289.849 232.968 286.706 227.682L286.636 227.428C285.778 224.178 286.874 222.429 288.489 219.677C288.983 218.29 286.253 214.035 290.037 209.367C294.199 204.232 300.537 194.225 305.073 189.611C306.271 188.393 316.087 186.387 318.056 186.016Z" fill="#E18F68"/>
<path d="M315.482 205.135C317.856 205.989 319.511 206.447 321.956 207.069C321.756 207.624 321.656 207.915 321.414 208.454C320.114 214.784 317.415 221.976 315.905 228.606C311.789 233.318 307.131 237.911 310.93 244.46C310.898 245.836 310.228 247.062 309.917 248.367L308.96 251.432C308.272 254.209 307.872 256.17 305.998 258.448C303.697 258.07 303.278 257.846 301.397 256.606C301.276 255.681 301.523 254.375 301.652 253.417C301.997 252.563 302.709 249.441 302.974 248.386C304.619 247.197 305.389 247.584 306.79 245.132C308.422 242.274 307.662 238.482 306.891 235.447C307.055 232.806 308.637 228.038 309.398 225.387C311.326 218.673 313.76 211.895 315.482 205.135Z" fill="#434343"/>
<path d="M315.976 201.646L315.993 202.73C315.743 203.639 315.549 204.202 315.482 205.136C313.76 211.896 311.325 218.674 309.398 225.388C308.637 228.039 307.054 232.807 306.891 235.448C306.059 231.541 302.836 222.401 301.415 218.237C301.251 217.759 298.516 214.846 297.889 214.078C298.782 214.397 300.866 215.429 301.608 215.588C306.321 216.596 310.633 208.898 313.1 205.816C314.182 204.465 314.617 202.65 315.976 201.646Z" fill="#D86F56"/>
<path d="M288.489 219.676C292.272 229.114 292.014 230.817 298.433 240.101C299.119 241.558 301.278 245.739 301.261 247.109L302.201 247.835L302.973 248.386C302.708 249.441 301.996 252.563 301.651 253.416L300.806 252.818C300.067 251.891 299.002 250.183 297.79 251.111C296.772 250.12 295.935 249.606 294.972 248.454L295.48 248.111L295.536 247.662C294.96 246.782 294.293 246.481 293.384 245.908C292.054 244.145 291.687 242.311 292.386 240.232C290.94 234.278 289.849 232.967 286.706 227.681L286.636 227.427C285.778 224.178 286.874 222.428 288.489 219.676Z" fill="#D86F56"/>
<path d="M292.387 240.231C293.516 241.187 294.825 241.956 296.054 242.842C297.846 244.134 299.564 245.828 301.262 247.108L302.201 247.835L302.973 248.385C302.709 249.441 301.996 252.563 301.651 253.416L300.806 252.818C300.068 251.891 299.003 250.183 297.79 251.111C296.772 250.12 295.936 249.606 294.973 248.454L295.48 248.111L295.537 247.662C294.96 246.782 294.293 246.481 293.385 245.907C292.055 244.145 291.687 242.311 292.387 240.231Z" fill="#CCDDF8"/>
<path d="M298.433 240.101C302.799 237.99 304.447 241.329 303.428 245.358C303.261 246.017 302.492 247.068 302.201 247.835L301.261 247.109C301.278 245.739 299.119 241.558 298.433 240.101Z" fill="#F6AC88"/>
<path d="M316.933 199.1C315.427 198.283 313.438 197.382 313.874 195.174L314.33 194.938L315.345 195.271C315.555 196.365 315.274 196.012 315.972 196.544C316.577 196.465 316.578 196.493 317.149 196.304C317.081 197.199 317.03 198.22 316.933 199.1Z" fill="#F6AC88"/>
<path d="M324.594 168.914C325.388 168.857 326.311 167.733 326.908 167.133C327.89 167.418 328.61 167.5 329.596 167.739C330.597 167.982 332.375 168.772 333.257 168.955C333.132 172.625 329.775 180.116 328.991 184.18C327.59 188.128 324.641 198.867 323.569 203.142C323.409 203.639 323.124 204.431 323.01 204.911C322.796 205.505 322.442 206.727 321.955 207.069C319.51 206.448 317.856 205.989 315.482 205.135C315.549 204.201 315.743 203.638 315.993 202.73L315.976 201.646L316.26 201.03C316.56 200.354 316.711 199.802 316.933 199.1C317.031 198.22 317.081 197.199 317.149 196.304C316.578 196.493 316.577 196.466 315.972 196.545C315.274 196.012 315.555 196.366 315.345 195.272C316.287 192.434 317.207 188.931 318.057 186.015C319.185 182.281 321.702 170.964 324.594 168.914Z" fill="#C1C0C0"/>
<path d="M324.594 168.913C325.609 169.465 325.3 169.075 325.717 169.973C325.385 170.688 325.632 170.432 325 170.811C323.534 171.932 320.346 183.168 319.72 185.647C318.885 188.455 317.826 191.614 317.762 194.496C317.75 195.023 317.376 195.807 317.149 196.304C316.578 196.492 316.577 196.465 315.972 196.544C315.274 196.011 315.555 196.365 315.345 195.271C316.287 192.433 317.207 188.931 318.057 186.015C319.185 182.28 321.702 170.964 324.594 168.913Z" fill="url(#paint1_linear_15629_38246)"/>
<path d="M315.992 202.729C317.959 203.246 321.082 204.167 323.01 204.91C322.796 205.504 322.441 206.726 321.955 207.068C319.51 206.447 317.856 205.988 315.481 205.134C315.549 204.2 315.743 203.637 315.992 202.729Z" fill="#C1C0C0"/>
<path d="M325 170.812C324.932 172.852 321.619 184.041 320.463 185.529L319.72 185.647C320.346 183.169 323.534 171.933 325 170.812Z" fill="#EEEFEF"/>
<path d="M316.26 201.029C318.513 201.399 321.344 202.424 323.57 203.141C323.409 203.638 323.124 204.43 323.011 204.91C321.083 204.168 317.96 203.246 315.993 202.729L315.977 201.645L316.26 201.029Z" fill="#777678"/>
<path d="M274.692 213.362C276.359 213.51 278.39 213.007 279.972 212.498C279.2 214.63 278.247 217.466 277.186 219.399C276.521 219.89 276.174 220.223 275.372 220.452L272.752 220.615L272.546 220.426C272.208 219.667 272.535 218.796 272.725 217.942L272.986 216.819L273.849 217.298C274.188 215.924 274.431 214.747 274.692 213.362Z" fill="#F7BD9F"/>
<path d="M272.986 216.818L273.849 217.297C273.373 220.483 274.329 218.641 275.372 220.452L272.752 220.615L272.546 220.425C272.208 219.667 272.535 218.796 272.725 217.941L272.986 216.818Z" fill="#E18F68"/>
<path d="M282.821 204.011L283.422 203.312C284.62 203.028 285.127 202.892 286.338 202.808C285.477 205.462 284.616 210.616 281.077 210.249C281.669 208.982 282.467 205.443 282.821 204.011Z" fill="#F7BD9F"/>
<path d="M326.907 167.133C328.901 163.403 333.375 164.618 333.256 168.955C332.375 168.772 330.597 167.982 329.596 167.739C328.61 167.5 327.89 167.418 326.907 167.133Z" fill="#434343"/>
<path d="M261.842 135.043C265.489 137.239 265.195 138.111 262.459 140.915C262.054 139.319 261.611 136.652 261.842 135.043Z" fill="#AAA9A9"/>
<path d="M200.105 59.9326C201.95 66.434 203.603 77.1112 205.014 84.1205C207.477 96.5555 210.262 108.924 213.366 121.215C214.552 126.099 215.797 132.406 217.811 136.998C218.204 137.895 220.069 139.341 220.898 139.951C221.024 140.913 221.219 141.171 221.875 141.886C222.689 143.489 223.412 143.725 225.026 144.607C225.437 156.035 216.509 162.914 215.485 174.936C214.689 184.283 213.498 185.205 215.646 194.843C215.57 197.816 216.029 200.653 215.961 203.649C216.665 204.554 216.734 204.519 217.803 204.999L218.069 205.12C219.043 205.276 219.813 205.171 220.728 204.883C226.216 202.466 227.404 197.649 227.593 192.244C228.331 191.031 228.98 189.779 229.65 188.527C239.954 191.637 244.255 209.678 248.603 218.49C249.526 220.362 250.498 222.78 252.156 224.113C252.824 224.254 252.813 224.261 253.49 224.213L253.879 224.672C253.138 224.899 252.934 224.775 252.21 224.591L229.005 232.33C227.333 232.878 221.475 234.492 220.357 235.083L221.412 240.19C221.58 241.834 221.592 241.871 220.4 243.115C223.146 245.794 225.037 247.133 225.93 250.986L225.983 251.493C224.593 253.991 223.883 254.796 220.909 254.789L220.38 254.211L219.984 254.683C216.076 257.219 212.596 256.581 208.288 256.734C203.733 259.664 200.293 261.035 194.694 261.281C190.85 261.899 185.233 263.669 181.676 263.093C180.022 262.941 177.981 262.079 176.396 261.491C175.379 261.119 174.294 260.768 173.263 260.416L170.918 259.298C159.02 252.691 156.636 249.644 149.066 238.237C147.285 235.552 144.891 232.513 143.253 229.785C141.897 228.46 141.199 227.895 139.672 226.76C138.916 226.176 136.556 224.815 135.633 224.25C138.076 218.489 140.156 214.731 143.525 209.475C146.279 204.34 154.01 196.609 158.59 193.052C159.786 192.225 160.615 191.985 161.963 191.473C160.608 189.281 158.915 188.534 156.851 187.046C157.287 182.108 150.563 177.35 147.095 174.254L135.176 163.644C123.78 153.685 112.502 143.592 101.345 133.367C92.9941 125.678 85.4612 118.825 78.0863 110.18C77.6955 109.432 77.2695 107.919 76.9924 107.057C75.89 102.916 74.172 93.216 73.5488 88.9034C84.8346 86.7151 96.66 83.6789 107.959 81.1522L189.665 62.4337C189.929 62.3155 189.976 62.1827 190.196 61.9272C191.569 62.3965 198.189 60.4355 200.105 59.9326Z" fill="#D9DDEC"/>
<path d="M175.875 190.178C176.646 191.097 176.187 190.791 177.267 191.186C178.567 191.071 179.376 191.152 180.361 192.123C184.194 195.898 187.754 201.037 191.17 205.257C198.926 207.562 207.907 213.691 215.093 217.589C219.246 219.843 219.204 225.561 219.3 229.756C219.616 231.539 219.968 233.315 220.356 235.083L221.412 240.19C221.579 241.834 221.592 241.871 220.4 243.115C223.146 245.794 225.037 247.133 225.93 250.985L225.983 251.493C224.593 253.991 223.883 254.796 220.909 254.789L220.379 254.211L219.984 254.683C216.076 257.219 212.596 256.581 208.288 256.733C203.733 259.664 200.293 261.034 194.693 261.281C190.849 261.899 185.233 263.669 181.676 263.092C180.022 262.941 177.98 262.079 176.396 261.491C175.378 261.119 174.294 260.768 173.263 260.416L170.918 259.298C159.02 252.691 156.636 249.644 149.066 238.237C147.285 235.552 144.891 232.513 143.253 229.785C141.897 228.46 141.199 227.894 139.671 226.76C138.915 226.175 136.556 224.814 135.633 224.25C138.076 218.489 140.156 214.731 143.525 209.475C146.279 204.34 154.01 196.609 158.59 193.051C159.786 192.225 160.615 191.985 161.963 191.473C162.313 192.589 162.219 194.115 162.225 195.326C164.35 196.288 172.084 199.566 174.188 199.395C173.263 198.096 172.052 196.667 171.037 195.41L170.563 194.227C172.235 192.793 174.078 191.453 175.875 190.178Z" fill="#F6AC88"/>
<path d="M202.678 246.821C200.015 244.161 181.615 231.764 181.955 229.473C183.755 229.83 197.242 241.341 200.451 243.321C203.697 245.323 218.583 253.03 219.984 254.684C216.076 257.22 212.595 256.581 208.287 256.734C203.732 259.664 200.293 261.035 194.693 261.281C190.849 261.899 185.233 263.669 181.676 263.093C182.581 262.266 183.69 261.546 184.702 260.839C181.167 258.382 171.18 252.138 168.684 249.59C174.41 251.242 181.943 258.164 187.728 260.508C189.125 261.074 189.506 261.194 190.84 260.612C192.697 259.271 193.491 258.346 194.761 256.519C193.281 255.218 189.832 253.077 188.054 251.876C185.18 249.905 182.346 247.874 179.554 245.787C177.994 244.635 176.081 243.338 174.864 241.849L174.918 241.526C177.797 241.658 192.514 254.53 196.963 255.124C200.665 255.618 202.498 249.578 202.678 246.821Z" fill="#E18F68"/>
<path d="M175.874 190.178C176.646 191.097 176.187 190.791 177.267 191.186C178.567 191.071 179.375 191.152 180.361 192.123C184.193 195.898 187.754 201.037 191.17 205.257C192.395 206.787 193.845 208.513 194.98 210.083C195.791 211.565 195.874 211.118 195.263 212.736C195.445 214.006 196.485 214.796 197.423 215.749C196.854 217.262 195.035 218.76 193.807 219.93C189.233 215.412 184.327 213.077 180.677 207.663C178.989 205.16 176.19 201.628 174.188 199.395C173.262 198.096 172.052 196.667 171.036 195.41L170.562 194.227C172.234 192.793 174.078 191.453 175.874 190.178Z" fill="#25282B"/>
<path d="M177.267 191.186C178.567 191.072 179.375 191.153 180.361 192.124C184.193 195.898 187.754 201.038 191.17 205.257C192.395 206.788 193.845 208.513 194.98 210.084C194.457 210.086 193.44 210.038 192.994 210.174C192.106 209.89 179.031 194.025 178.41 192.598L178.572 192.392C178.353 191.772 178.018 191.772 177.276 191.334L177.267 191.186Z" fill="#434343"/>
<path d="M178.41 192.598C180.206 193.473 193.02 209.105 192.994 210.174C192.106 209.889 179.031 194.025 178.41 192.598Z" fill="#C1C0C0"/>
<path d="M175.874 190.178C176.646 191.097 176.187 190.791 177.267 191.186L177.276 191.333C175.176 192.99 173.564 194.419 171.036 195.41L170.562 194.227C172.234 192.793 174.078 191.453 175.874 190.178Z" fill="#35475D"/>
<path d="M199.45 218.318C204.786 225.425 211.965 232.881 217.378 240.306C213.861 237.822 209.785 234.841 206.589 231.939C202.949 228.633 199.55 224.923 195.747 221.755C196.93 220.606 198.165 219.34 199.45 218.318Z" fill="#25282B"/>
<path d="M143.525 209.476C143.989 210.198 144.067 210.158 143.864 211.202C143.238 214.416 141.168 219.156 141.621 222.36C141.908 224.393 142.936 226.925 143.673 228.852C143.851 229.32 143.502 229.571 143.253 229.785C141.897 228.46 141.199 227.895 139.671 226.761C138.915 226.176 136.556 224.815 135.633 224.25C138.076 218.49 140.156 214.732 143.525 209.476Z" fill="#E18F68"/>
<path d="M220.379 254.211C219.745 253.007 218.762 253.023 217.85 251.296C217.75 250.343 217.816 250.178 218.408 249.417C221.379 245.605 223.631 251.235 225.93 250.986L225.982 251.493C224.592 253.991 223.882 254.796 220.909 254.789L220.379 254.211Z" fill="#F7BD9F"/>
<path d="M197.424 215.749C198.01 216.487 198.938 217.578 199.45 218.318C198.166 219.34 196.931 220.606 195.748 221.755L193.808 219.93C195.035 218.76 196.855 217.262 197.424 215.749Z" fill="#35475D"/>
<path d="M219.3 229.756C219.616 231.539 219.968 233.315 220.357 235.083L221.412 240.19C217.849 237.896 219.064 233.199 219.3 229.756Z" fill="#F7BD9F"/>
<path d="M161.963 191.473C162.313 192.589 162.219 194.115 162.225 195.326L158.59 193.051C159.786 192.225 160.615 191.985 161.963 191.473Z" fill="#AAA9A9"/>
<path d="M200.105 59.9326C201.95 66.434 203.604 77.1112 205.014 84.1205C207.477 96.5555 210.263 108.924 213.367 121.215C214.552 126.099 215.798 132.406 217.812 136.998C218.205 137.895 220.07 139.341 220.898 139.951C221.025 140.913 221.219 141.171 221.876 141.886C222.689 143.489 223.413 143.725 225.026 144.607C225.437 156.035 216.509 162.914 215.485 174.936C214.689 184.283 213.498 185.205 215.646 194.843C215.57 197.816 216.03 200.653 215.962 203.649C214.765 201.384 214.059 195.451 213.555 192.702C211.946 183.919 211.298 174.59 214.315 166.033C216.948 158.565 219.144 155.054 219.205 147.033C217.836 146.286 214.605 144.663 213.939 143.362C210.881 137.384 208.749 128.647 206.807 122.216C202.019 106.363 197.994 90.4705 193.449 74.5714C192.931 72.7598 190.439 63.4848 189.665 62.4337C189.93 62.3155 189.976 62.1827 190.196 61.9272C191.569 62.3965 198.19 60.4355 200.105 59.9326Z" fill="#BBCBEF"/>
<path d="M170.562 194.227C168.41 190.311 172.153 187.633 175.874 190.178C174.078 191.454 172.234 192.794 170.562 194.227Z" fill="#434343"/>
<path d="M153.18 184.562C154.738 185.39 155.455 185.971 156.851 187.046C158.915 188.534 160.609 189.281 161.964 191.473C160.615 191.985 159.786 192.225 158.591 193.051C154.01 196.609 146.279 204.34 143.526 209.475C140.156 214.731 138.077 218.489 135.633 224.25C134.936 226.186 134.658 226.733 134.659 228.815L134.479 228.952C133.321 228.721 130.031 226.012 128.995 225.195C127.394 223.777 125.942 222.621 124.252 221.304C124.043 220.634 124.07 220.681 124.384 219.826C129.329 206.353 140.393 191.114 153.18 184.562Z" fill="#FDFEFD"/>
<path d="M40.9316 111.372C48.9025 105.362 59.9468 103.535 69.6251 105.079C71.9436 105.448 74.832 106.955 76.9931 107.057C77.2702 107.919 77.6961 109.433 78.0869 110.181C75.4501 111.061 72.0925 110.39 69.6704 110.908C62.5746 112.424 54.6102 115.47 48.5466 119.468C46.1472 121.051 44.9747 122.328 42.8887 124.001C48.5142 114.089 58.9273 109.123 69.9646 108.061C63.7937 106.808 53.9403 107.25 47.7171 108.844C45.7152 109.356 42.9064 110.548 40.9316 111.372Z" fill="#293A4E"/>
<path d="M0 72.624C0.981618 75.6959 1.8046 79.6339 2.56332 82.834C3.94392 88.6579 5.30012 94.2284 6.98594 99.9754L0 101.224V72.624Z" fill="#FDFEFD"/>
<path d="M193.723 41.4258C195.785 48.4312 197.515 53.1499 200.104 59.9324C198.189 60.4353 191.568 62.3962 190.195 61.927C191.185 55.394 192.501 47.9013 193.723 41.4258Z" fill="#FDFEFD"/>
<path d="M452.38 0H515V184.76V234.852V286.46C502 289.269 488.889 291.535 475.7 293.253C469.449 294.063 463.041 294.938 456.729 295C455.94 295.008 454.977 294.81 454.53 295.413C454.672 296.911 455.18 299.115 454.875 300.433C454.23 301.17 454.114 301.057 452.86 301.232C448.995 301.49 443.981 302.728 440.047 302.428C439.31 302.372 439.132 301.944 438.823 301.46C438.833 299.921 438.785 298.945 438.648 297.417C437.432 297.489 436.245 297.528 435.045 297.734C429.756 298.263 427.642 299.389 423.029 301.804C420.432 303.164 416.606 304.037 413.737 304.628C398.577 307.174 383.106 304.644 368.046 307.085C362.128 308.045 356.391 312.014 350.83 313.459C348.444 314.579 344.853 315.546 342.222 315.755L341.546 315.749L340.979 315.518C339.749 315.041 339.51 314.943 338.451 314.167C335.524 311.614 340.83 308.638 342.534 307.68C341.282 307.085 336.953 308.222 335.29 308.373C333.05 308.577 330.821 308.728 328.569 308.844L328.996 308.104C326.587 307.99 325.38 307.86 323.651 306.181L322.818 304.587C323.026 303.886 323.021 303.867 323.053 303.133C322.421 302.317 321.886 302.331 320.789 301.929C321.561 301.67 321.875 301.69 322.671 301.648C322.669 300.962 322.772 300.954 323.17 300.362C322.625 300.189 321.903 300.121 321.32 300.037C326.275 296.599 325.618 296.149 322.945 291.83C324.84 290.503 326.294 287.773 327.843 285.698C328.785 284.963 331.431 281.54 332.223 280.474C333.293 279.884 337.685 274.729 338.732 273.531C337.412 272.154 334.687 270.122 333.115 268.718C330.306 266.209 327.426 263.707 324.625 261.185C323.401 260.084 321.807 259.071 320.806 257.904C320.647 257.667 320.35 257.48 320.103 257.286C319.319 256.61 317.601 254.705 316.718 254.307C315.78 253.886 316.962 255.113 315.27 254.172C314.29 253.539 310.287 252.017 308.96 251.433L309.917 248.367C310.227 247.062 310.898 245.836 310.93 244.461C307.131 237.911 311.788 233.319 315.904 228.607C317.415 221.977 320.113 214.785 321.414 208.454C321.656 207.915 321.756 207.624 321.956 207.069C322.442 206.727 322.797 205.505 323.01 204.911C323.124 204.43 323.409 203.639 323.57 203.141C324.641 198.866 327.59 188.127 328.992 184.179C336.064 182.112 338.981 181.531 344.154 176.224C343.835 174.648 343.441 172.701 343.732 171.118C344.577 168.885 346.78 165.665 348.256 163.746C348.01 162.679 347.804 161.076 347.624 159.956C347.487 157.31 356.906 144.31 358.905 141.362C365.909 131.034 373.035 120.79 380.281 110.63C383.781 105.774 387.567 100.98 390.983 96.1587C396.185 89.8579 397.983 86.1041 402.075 79.3226L413.343 61.0099C426.111 40.5178 439.125 20.1798 452.38 0Z" fill="#EEEFEF"/>
<path d="M452.381 0H515.001V184.76C509.624 188.137 503.77 190.935 497.257 190.453C480.396 189.206 476.076 172.008 473.604 158.282C472.378 151.583 471.485 144.827 470.927 138.04C470.809 136.699 470.474 130.658 469.887 129.994L469.502 130.848C470.237 118.259 469.627 106.584 470.214 94.416C465.75 99.1848 461.14 104.687 456.852 109.659C451.171 116.118 445.622 122.693 440.209 129.379C434.809 136.134 429.596 143.105 424.211 149.861C417.813 157.888 411.025 165.712 404.519 173.66C401.074 177.53 397.723 181.505 394.403 185.482C391.917 188.461 390.215 190.135 386.046 189.809C385.035 190.814 380.293 195.977 379.532 196.304C379.205 194.485 378.774 192.976 378.279 191.193C374.919 182.931 367.92 177.054 359.838 173.642C357.304 172.037 351.88 171.4 348.982 171.124C347.716 170.792 345.053 171.023 343.732 171.118C344.578 168.885 346.78 165.665 348.257 163.746C348.011 162.679 347.805 161.076 347.624 159.956C347.488 157.31 356.907 144.31 358.905 141.362C365.91 131.034 373.035 120.79 380.281 110.63C383.782 105.774 387.567 100.98 390.984 96.1587C396.185 89.8579 397.983 86.1041 402.076 79.3226L413.343 61.0099C426.111 40.5178 439.125 20.1798 452.381 0Z" fill="#C1C0C0"/>
<path d="M352.026 158.992C352.912 158.318 357.807 158.895 359.172 159.131C373.483 161.601 386.201 171.021 389.707 185.354C388.541 187.299 387.613 188.171 386.046 189.808C385.035 190.813 380.293 195.976 379.532 196.303C379.205 194.485 378.774 192.976 378.279 191.193C374.919 182.931 367.92 177.054 359.838 173.641C357.304 172.037 351.88 171.4 348.982 171.123C347.716 170.791 345.053 171.023 343.732 171.118C344.578 168.885 346.78 165.664 348.257 163.745C348.011 162.678 347.805 161.075 347.624 159.955C349.324 159.29 350.205 158.99 352.026 158.992Z" fill="#FDFEFD"/>
<path d="M347.623 159.956C349.322 159.29 350.204 158.99 352.025 158.992C350.612 160.567 349.516 162.059 348.256 163.746C348.01 162.679 347.804 161.076 347.623 159.956Z" fill="#AAA9A9"/>
<path d="M430.256 257.414C431.018 258.105 433.204 265.165 433.433 266.352C435.82 273.534 438.055 289.505 438.648 297.417C437.432 297.489 436.245 297.528 435.045 297.734C429.755 298.264 427.642 299.389 423.029 301.804C420.432 303.165 416.606 304.037 413.737 304.628C398.576 307.174 383.106 304.644 368.046 307.085C362.127 308.045 356.391 312.014 350.83 313.46C348.444 314.579 344.853 315.546 342.222 315.755L341.546 315.749L340.979 315.519C339.748 315.041 339.51 314.943 338.451 314.167C335.523 311.614 340.829 308.638 342.533 307.68C341.281 307.085 336.953 308.222 335.29 308.373C333.05 308.577 330.821 308.728 328.569 308.844L328.996 308.104C326.586 307.99 325.38 307.86 323.651 306.181L322.818 304.587C323.026 303.886 323.021 303.867 323.053 303.133C322.421 302.317 321.886 302.331 320.789 301.929C321.561 301.67 321.875 301.69 322.671 301.648C322.668 300.962 322.772 300.954 323.169 300.362C322.624 300.189 321.903 300.121 321.32 300.037C326.275 296.599 325.618 296.149 322.945 291.83C324.84 290.503 326.294 287.773 327.843 285.698C328.785 284.963 331.431 281.54 332.223 280.474C333.292 279.884 337.684 274.729 338.732 273.531C343.96 268.153 346.759 267.627 353.803 265.127C350.351 254.964 359.784 260.052 364.456 259.256C380.627 256.502 396.007 257.704 412.26 258.502C417.794 258.773 424.649 257.987 430.256 257.414Z" fill="#E18F68"/>
<path d="M433.433 266.352C435.82 273.534 438.055 289.505 438.648 297.417C437.432 297.489 436.245 297.528 435.045 297.734C429.756 298.263 427.643 299.389 423.03 301.804C420.432 303.165 416.606 304.037 413.737 304.628C398.577 307.174 383.106 304.644 368.046 307.085C362.128 308.045 356.391 312.014 350.83 313.46L350.985 312.865C352.378 311.642 353.995 311.069 355.572 310.193C361.258 306.824 366.278 306.242 372.559 304.98C388.018 301.785 405.337 304.077 419.732 296.68C424.512 294.223 427.875 292.308 433.022 291.037C435.116 290.52 434.798 277.21 434.361 275.302C434.078 274.063 432.996 267.129 433.433 266.352Z" fill="#D86F56"/>
<path d="M353.003 298.324C354.874 297.693 368.83 294.235 369.699 294.564C366.503 295.838 361.952 296.931 359.016 298.417C353.698 301.107 348.165 304.61 342.974 307.617L342.534 307.68C341.282 307.085 336.953 308.222 335.29 308.373C333.05 308.577 330.821 308.728 328.569 308.844L328.996 308.104C332.983 307.581 340.872 303.542 345.02 301.88C347.009 300.694 350.837 299.074 353.003 298.324Z" fill="#C9CBD2"/>
<path d="M323.17 300.362C328.78 297.88 336.61 291.798 342.117 288.407C348.865 284.252 353.771 283.421 361.353 281.407C364.375 280.604 367.183 279.635 370.295 279.094C365.092 283.037 356.255 283.652 350.172 285.966C345.53 287.732 341.087 291.087 336.798 293.709C334.644 295.027 330.701 297.189 328.881 298.558C327.455 299.284 323.937 301.593 323.175 301.84L322.671 301.648C322.669 300.962 322.773 300.954 323.17 300.362Z" fill="#D86F56"/>
<path d="M328.881 298.559C329.872 299.272 330.662 300.202 330.932 301.485C331.568 304.516 327.793 305.626 325.523 306C324.83 306.115 324.436 305.821 323.651 306.181L322.818 304.588C323.026 303.887 323.021 303.868 323.053 303.133C322.421 302.317 321.886 302.332 320.789 301.929C321.561 301.67 321.875 301.691 322.671 301.648L323.174 301.841C323.936 301.594 327.454 299.285 328.881 298.559Z" fill="#F6AC88"/>
<path d="M342.533 307.681L342.973 307.617C346.685 310.493 346.275 312.275 341.826 313.586C340.873 313.867 339.086 313.758 338.451 314.168C335.523 311.615 340.829 308.639 342.533 307.681Z" fill="#F6AC88"/>
<path d="M514.658 234.778L515 234.852V286.46C502 289.269 488.889 291.535 475.7 293.252C469.449 294.063 463.041 294.938 456.729 295C455.939 295.008 454.977 294.81 454.53 295.413C454.672 296.911 455.18 299.115 454.875 300.433C454.23 301.17 454.113 301.056 452.86 301.231C448.995 301.489 443.981 302.728 440.046 302.428C439.31 302.372 439.132 301.944 438.823 301.459C438.833 299.92 438.785 298.945 438.648 297.416C438.055 289.505 435.82 273.534 433.433 266.351C433.204 265.165 431.018 258.105 430.256 257.414C430.322 257.126 430.471 256.281 430.492 256.129C430.909 253.136 441.14 254.659 442.689 253.192C443.284 251.515 443.9 250.751 444.957 249.405C450.026 247.9 458.718 246.279 464.054 245.199L501.071 237.827C503.045 237.415 513.416 235.41 514.658 234.778Z" fill="#C1C0C0"/>
<path d="M442.689 253.193L445.106 252.989C448.674 263.997 452.154 275.341 453.592 286.868C453.77 288.293 454.242 294.685 454.53 295.414C454.672 296.912 455.18 299.116 454.875 300.434C454.23 301.171 454.113 301.057 452.86 301.232C448.995 301.49 443.981 302.729 440.046 302.429C439.31 302.372 439.132 301.945 438.823 301.46C438.833 299.921 438.785 298.945 438.648 297.417C438.055 289.506 435.82 273.535 433.433 266.352C433.204 265.166 431.018 258.106 430.256 257.415C430.322 257.127 430.471 256.282 430.492 256.13C430.909 253.137 441.14 254.659 442.689 253.193Z" fill="#FDFEFD"/>
<path d="M343.732 171.118C345.052 171.023 347.715 170.792 348.981 171.124C351.879 171.401 357.304 172.037 359.838 173.642C367.92 177.055 374.918 182.931 378.278 191.193C378.773 192.976 379.204 194.486 379.531 196.304C377.178 196.729 375.535 196.696 373.144 196.633C370.326 199.263 366.664 202.804 364.633 206.005C361.387 211.119 360.501 215.906 355.699 220.085C350.112 224.946 345.737 224.7 339.633 229.237C337.852 231.039 336.261 232.08 334.247 233.435C333.299 234.073 328.57 236.728 328.165 237.221C325.909 238.076 323.734 239.25 321.609 240.398C319.485 241.909 316.128 244.511 313.507 244.74C312.538 244.573 311.915 244.526 310.93 244.461C307.131 237.912 311.788 233.319 315.904 228.607C317.415 221.977 320.113 214.785 321.414 208.454C321.656 207.915 321.756 207.624 321.955 207.069C322.442 206.727 322.796 205.505 323.01 204.911C323.124 204.431 323.409 203.639 323.569 203.142C324.641 198.867 327.59 188.128 328.991 184.18C336.064 182.113 338.981 181.532 344.154 176.224C343.835 174.649 343.441 172.701 343.732 171.118Z" fill="#E18F68"/>
<path d="M359.838 173.642C367.92 177.054 374.918 182.931 378.278 191.193C378.773 192.976 379.204 194.486 379.532 196.304C377.178 196.729 375.535 196.696 373.144 196.633C370.327 199.263 366.665 202.803 364.633 206.005C361.388 211.119 360.502 215.906 355.7 220.085C350.113 224.946 345.737 224.7 339.633 229.236C339.55 227.819 343.045 224.697 344.044 223.711C348.53 219.286 352.961 214.991 356.669 209.862C358.824 206.882 360.392 203.4 362.72 200.572C365.014 197.785 368.719 195.787 370.313 192.482C371.13 190.786 370.984 189.071 370.498 187.297C368.528 180.12 360.829 176.44 359.838 173.642Z" fill="#D86F56"/>
<path d="M378.278 191.193C378.773 192.976 379.204 194.486 379.532 196.304C377.178 196.729 375.535 196.696 373.145 196.633C374.404 194.968 376.656 193.308 378.278 191.193Z" fill="#AFA293"/>
<path d="M325.715 203.937C334.039 215.463 325.222 221.832 316.605 228.178C316.372 228.321 316.138 228.464 315.904 228.607C317.415 221.977 320.113 214.785 321.414 208.454C323.801 211.278 324.366 211.825 327.416 213.843C327.081 208.286 326.792 208.785 325.715 203.937Z" fill="#D86F56"/>
<path d="M313.508 244.74C312.101 242.546 310.572 240.314 311.918 237.608C312.43 236.555 313.364 235.766 314.488 235.438C317.598 234.513 320.877 237.675 321.61 240.398C319.486 241.909 316.129 244.512 313.508 244.74Z" fill="#F6AC88"/>
<path d="M343.732 171.118C345.053 171.023 347.716 170.792 348.982 171.124C347.464 171.355 345.501 174.867 344.154 176.224C343.836 174.649 343.442 172.701 343.732 171.118Z" fill="#AFA293"/>
<path d="M469.502 130.848L469.886 129.994C470.474 130.659 470.808 136.7 470.926 138.041C471.484 144.828 472.377 151.583 473.603 158.282C476.075 172.008 480.395 189.206 497.256 190.454C503.77 190.936 509.624 188.137 515 184.76V234.852L514.658 234.779C508.603 231.845 499.704 226.605 493.689 223.206C482.874 217.093 470.966 210.828 460.378 204.471C461.195 200.757 461.887 196.132 462.539 192.303C464.425 181.328 465.963 170.296 467.151 159.224C468.099 150.451 469.283 139.649 469.502 130.848Z" fill="#AAA9A9"/>
<path d="M404.519 173.66C410.419 176.159 417.506 180.891 423.462 183.688C415.716 189.316 407.28 194.639 399.496 200.372C397.124 202.118 389.883 207.427 387.597 208.43C386.673 208.105 385.537 207.742 384.646 207.383C381.792 209.263 375.134 213.986 373.236 216.546C368.914 222.376 366.323 228.602 360.437 233.514C353.614 239.209 342.078 242.627 335.22 247.99C335.301 249.201 335.885 249.472 335.63 250.737C334.149 253.108 330.06 251.579 328.487 253.46C328.404 254.557 328.461 255.947 327.522 256.494C325.937 257.417 322.587 257.721 320.806 257.904C320.647 257.668 320.35 257.481 320.103 257.286C319.319 256.611 317.601 254.705 316.718 254.308C315.78 253.886 316.962 255.113 315.27 254.173C314.29 253.539 310.287 252.018 308.96 251.433L309.917 248.367C310.227 247.063 310.898 245.837 310.93 244.461C311.916 244.526 312.538 244.574 313.507 244.74C316.128 244.512 319.485 241.91 321.609 240.398C323.735 239.251 325.91 238.076 328.165 237.221C328.57 236.729 333.299 234.074 334.247 233.435C336.261 232.08 337.852 231.039 339.633 229.237C345.737 224.7 350.113 224.946 355.7 220.085C360.502 215.907 361.387 211.119 364.633 206.006C366.665 202.804 370.326 199.264 373.144 196.633C375.535 196.697 377.178 196.73 379.532 196.304C380.292 195.977 385.035 190.814 386.046 189.809C390.215 190.135 391.916 188.461 394.403 185.483C397.723 181.506 401.074 177.53 404.519 173.66Z" fill="#BBCBEF"/>
<path d="M328.165 237.221C331.56 237.781 334.594 240.056 334.803 243.692C334.044 246.394 329.928 246.468 327.587 247.201C327.562 247.828 327.567 248.482 327.458 249.092C325.279 251.675 321.417 250.791 318.163 250.731C317.849 251.793 317.783 252.541 316.923 253.166C316.434 253.297 315.943 253.421 315.45 253.538L315.27 254.172C314.29 253.539 310.287 252.017 308.96 251.433L309.917 248.367C310.227 247.063 310.898 245.836 310.93 244.461C311.916 244.526 312.538 244.574 313.507 244.74C316.128 244.512 319.485 241.91 321.609 240.398C323.735 239.251 325.91 238.076 328.165 237.221Z" fill="#D86F56"/>
<path d="M309.917 248.367C311.243 248.492 313.582 248.706 314.654 249.442C316.122 251.587 315.21 251.419 315.45 253.538L315.27 254.173C314.29 253.539 310.287 252.017 308.96 251.433L309.917 248.367Z" fill="#E18F68"/>
<path d="M318.797 247.961C320.661 247.935 323.686 247.386 325.391 247.814C326.513 248.095 325.212 248.501 327.457 249.092C325.278 251.675 321.416 250.79 318.162 250.731C318.211 249.877 318.565 248.816 318.797 247.961Z" fill="#E18F68"/>
<path d="M332.271 242.666C333.333 243.227 333.652 243.468 334.803 243.691C334.043 246.393 329.928 246.467 327.587 247.2C327.569 246.184 327.607 245.063 327.618 244.037C329.205 243.513 330.659 243.105 332.271 242.666Z" fill="#E18F68"/>
<path d="M260.789 218.5C261.576 219.994 262.503 222.269 263.881 223.109C264.983 225.4 267.106 226.499 269.601 225.815C272.466 224.488 271.465 221.603 272.752 220.615L275.373 220.452C276.174 220.223 276.521 219.89 277.187 219.399C277.955 220.397 285.691 227.072 286.707 227.681C289.85 232.967 290.941 234.278 292.387 240.232C291.688 242.312 292.055 244.146 293.385 245.908C294.294 246.481 294.961 246.782 295.537 247.663L295.481 248.111L294.973 248.455C295.936 249.606 296.773 250.12 297.791 251.111C299.003 250.184 300.068 251.892 300.807 252.818L301.652 253.417C301.523 254.375 301.276 255.681 301.397 256.606C303.278 257.846 303.697 258.07 305.998 258.449C307.872 256.17 308.272 254.21 308.96 251.433C310.287 252.017 314.29 253.539 315.27 254.172C316.962 255.113 315.78 253.886 316.718 254.308C317.601 254.705 319.32 256.611 320.104 257.286C320.351 257.481 320.647 257.667 320.807 257.904C321.807 259.071 323.401 260.084 324.625 261.186C327.426 263.707 330.306 266.209 333.115 268.718C334.688 270.122 337.412 272.155 338.732 273.531C337.685 274.73 333.293 279.885 332.224 280.474C331.431 281.54 328.786 284.963 327.843 285.698C326.295 287.773 324.841 290.503 322.946 291.83C325.619 296.149 326.275 296.599 321.32 300.037C321.903 300.121 322.625 300.189 323.17 300.362C322.773 300.954 322.669 300.962 322.671 301.648C321.875 301.691 321.561 301.67 320.79 301.929C321.887 302.331 322.421 302.317 323.053 303.133C323.021 303.867 323.027 303.886 322.818 304.587L323.651 306.181C325.38 307.861 326.587 307.99 328.996 308.104L328.569 308.844C330.822 308.728 333.051 308.577 335.291 308.373C336.953 308.222 341.282 307.085 342.534 307.681C340.83 308.638 335.524 311.614 338.451 314.167C339.51 314.943 339.749 315.041 340.979 315.519C338.061 316.932 334.152 318.377 331.06 319.605C325.549 321.822 320.017 323.985 314.464 326.095L285.46 337.37L273.668 341.895C271.556 342.71 267.671 344.144 265.797 345.228C264.357 344.287 259.417 339.487 257.83 338.043L242.183 323.604C239.178 320.789 235.96 317.584 232.876 314.909L230.593 312.743C229.496 312.811 229.449 312.829 228.515 312.32C227.591 311.451 226.475 310.2 225.319 310.175L224.974 308.83C224.353 308.336 224.311 308.294 223.601 307.951C222.776 307.206 221.896 306.285 221.099 305.491C220.92 304.096 219.926 303.6 218.725 303.217C218.005 302.665 217.965 302.69 217.493 301.875C218.241 302.165 218.787 302.962 219.321 302.887L219.321 302.689L219.178 302.892L219.019 302.751L219.257 302.32L219.115 302.091C218.945 301.813 218.999 301.93 218.915 301.707C217.733 300.649 216.538 299.605 215.33 298.577L213.936 298.61C211.877 296.672 209.84 294.709 207.828 292.723L208.283 291.924L206.374 290.214C198.427 282.513 190.077 275.119 182.194 267.396C181.04 266.347 176.715 262.607 176.396 261.491C177.981 262.079 180.022 262.941 181.676 263.093C185.233 263.669 190.85 261.899 194.694 261.281C200.293 261.035 203.733 259.664 208.288 256.734C212.596 256.581 216.076 257.22 219.984 254.683L220.38 254.211L220.909 254.789C223.883 254.796 224.593 253.991 225.983 251.493L225.931 250.986C225.037 247.133 223.146 245.794 220.4 243.115C221.592 241.872 221.58 241.834 221.412 240.19L220.357 235.084C221.475 234.492 227.333 232.878 229.005 232.331L252.21 224.591C252.934 224.776 253.138 224.899 253.879 224.672C255.999 226.013 257.33 226.479 259.515 224.916C260.64 223.682 260.641 220.309 260.789 218.5Z" fill="#FDFEFD"/>
<path d="M322.818 304.588L323.651 306.181C325.38 307.861 326.586 307.991 328.996 308.105L328.569 308.844C324.488 309.735 313.958 314.225 309.69 315.885C295.204 321.442 280.78 327.161 266.423 333.042C264.987 331.533 263.277 329.968 261.757 328.536L303.251 312.247C306.98 310.79 310.722 309.365 314.475 307.972C316.84 307.1 320.73 305.781 322.818 304.588Z" fill="#F0BB56"/>
<path d="M302.1 265.881C302.273 265.933 302.447 265.986 302.62 266.038C304.515 264.425 310.198 263.828 312.157 262.303C312.268 263.374 313.021 264.347 313.612 265.303C290.715 273.389 268 282.694 245.237 291.178C239.806 293.203 234.39 295.487 228.954 297.46C228.116 296.77 227.287 296.12 226.519 295.354L264.022 281.025C268.512 279.328 273.017 277.533 277.503 275.821C277.595 275.786 277.857 274.948 277.895 274.824C279.015 274.474 280.539 274.564 280.966 274.169C281.542 273.636 281.607 273.299 282.513 273.02C283.03 273.281 282.901 273.2 283.378 273.579C284.53 272.87 284.976 271.996 286.026 271.665C287.656 272.213 287.147 271.851 288.701 271.126C289.353 270.821 291.719 269.212 292.291 269.297C294.058 269.559 293.909 270.315 295 268.191C295.831 267.796 295.876 267.921 296.685 268.491C298.437 267.111 297.785 266.449 300.306 266.907L301.195 266.313C301.896 266.182 301.59 266.306 302.1 265.881Z" fill="#F0BB56"/>
<path d="M220.38 254.211L220.909 254.789C222.415 256.687 223.985 258.863 225.99 260.205L230.336 263.132C227.537 263.592 222.93 261.743 220.457 260.514C215.506 261.191 212.322 262.896 207.77 264.416C200.261 266.924 190.147 268.092 182.194 267.396C181.04 266.347 176.715 262.607 176.396 261.491C177.981 262.079 180.022 262.941 181.676 263.093C185.233 263.669 190.85 261.899 194.694 261.281C200.293 261.035 203.733 259.664 208.288 256.734C212.596 256.581 216.076 257.219 219.984 254.683L220.38 254.211Z" fill="#CCDDF8"/>
<path d="M245.856 313.597C253.809 310.79 262.819 307.057 270.777 303.959L316.231 286.639C321.393 284.698 327.159 282.282 332.223 280.474C331.43 281.54 328.785 284.963 327.843 285.698C326.146 285.081 256.619 312.717 247.988 315.879C247.32 315.124 246.551 314.338 245.856 313.597Z" fill="#F0BB56"/>
<path d="M297.79 251.111C299.003 250.184 300.068 251.892 300.806 252.818C298.908 253.124 295.459 254.616 293.561 255.356C289.661 256.887 285.751 258.396 281.833 259.88C259.705 268.112 237.625 276.471 215.593 284.955C214.937 284.303 214.241 283.532 213.599 282.853C223.218 278.822 234.583 274.824 244.423 271.093C262.147 264.259 279.937 257.599 297.79 251.111Z" fill="#F0BB56"/>
<path d="M221.673 290.679C227.281 289.093 235.116 285.666 240.825 283.521L282.489 267.626C285.578 266.426 298.922 260.963 301.245 260.646C301.197 261.444 301.06 262.926 301.111 263.664C294.225 265.457 283.463 270.301 276.505 272.955L223.967 292.97L221.673 290.679Z" fill="#F0BB56"/>
<path d="M293.385 245.908C294.294 246.482 294.961 246.782 295.537 247.663L295.481 248.112L294.973 248.455C293.465 248.61 287.48 251.089 285.752 251.729C275.67 255.427 265.621 259.218 255.607 263.101C254.869 262.362 254.064 261.681 253.278 260.991C256.711 259.499 260.871 258.116 264.399 256.763C274.007 253.083 283.82 249.68 293.385 245.908Z" fill="#F0BB56"/>
<path d="M308.959 251.433C310.287 252.017 314.289 253.539 315.27 254.172C316.961 255.113 315.78 253.886 316.717 254.307C317.6 254.705 319.319 256.61 320.103 257.286C316.745 257.691 311.452 257.185 308.761 258.083C307.112 257.746 307.54 258.565 306.081 258.802L305.997 258.448C307.871 256.17 308.271 254.209 308.959 251.433Z" fill="#CCDDF8"/>
<path d="M322.945 291.83C325.618 296.149 326.274 296.599 321.319 300.037L319.972 300.68C319.183 299.736 318.641 298.56 317.407 298.99C316.991 296.334 321.047 293.325 322.945 291.83Z" fill="#F6AC88"/>
<path d="M225.983 251.493C227.155 253.054 229.158 255.557 229.97 257.252C228.226 258.293 227.455 259.385 225.99 260.205C223.985 258.863 222.414 256.687 220.909 254.789C223.883 254.796 224.593 253.991 225.983 251.493Z" fill="#25282B"/>
<path d="M301.396 256.605C303.277 257.846 303.697 258.069 305.998 258.448L306.081 258.802L306.062 258.944C305.294 260.118 304.675 260.692 304.053 261.585C303.293 263.08 302.419 262.988 302.133 264.723L302.099 265.88C301.589 266.305 301.895 266.181 301.194 266.312L301.111 263.663C301.06 262.925 301.197 261.443 301.245 260.646C301.364 259.167 301.391 258.079 301.396 256.605Z" fill="#AAA9A9"/>
<path d="M229.97 257.252C230.557 258.53 233.095 263.631 233.035 264.693C232.286 264.633 231.191 263.65 230.336 263.132L225.989 260.205C227.454 259.384 228.225 258.293 229.97 257.252Z" fill="#434343"/>
<path d="M306.081 258.802C307.54 258.565 307.112 257.746 308.761 258.083C309.279 258.636 310.237 259.525 310.441 260.178C307.522 261.933 304.584 262.456 302.133 264.723C302.418 262.988 303.293 263.08 304.053 261.586C304.675 260.692 305.293 260.119 306.061 258.944L306.081 258.802Z" fill="#F0BB56"/>
<path d="M306.061 258.944L306.577 259.428C306.639 261.487 305.705 261.535 304.053 261.586C304.675 260.693 305.293 260.119 306.061 258.944Z" fill="#C9CBD2"/>
<path d="M217.492 301.875C218.241 302.165 218.787 302.962 219.32 302.886L219.32 302.689L219.177 302.891L219.019 302.751L219.256 302.32L219.115 302.091C218.945 301.813 218.998 301.93 218.914 301.707C220.607 303.29 223.088 305.464 224.625 307.068L224.406 307.656C224.724 308.168 224.85 308.247 224.974 308.83C224.352 308.336 224.31 308.294 223.601 307.951C222.775 307.206 221.895 306.285 221.099 305.491C220.92 304.096 219.925 303.6 218.724 303.217C218.005 302.665 217.964 302.69 217.492 301.875Z" fill="#BBCBEF"/>
<path d="M208.284 291.924C210.646 294.128 212.994 296.346 215.33 298.578L213.936 298.61C211.877 296.672 209.841 294.71 207.828 292.723L208.284 291.924Z" fill="#BBCBEF"/>
<path d="M224.625 307.067C226.347 308.672 229.056 311.086 230.592 312.742C229.495 312.81 229.448 312.829 228.514 312.319C227.59 311.45 226.474 310.2 225.318 310.175L224.974 308.829C224.849 308.246 224.724 308.168 224.406 307.656L224.625 307.067Z" fill="#BBCBEF"/>
<path d="M321.319 300.036C321.902 300.121 322.624 300.189 323.169 300.361C322.772 300.953 322.668 300.961 322.67 301.647C321.875 301.69 321.56 301.669 320.789 301.928L319.589 301.658L319.972 300.679L321.319 300.036Z" fill="#D27C5F"/>
<path d="M312.156 262.303C313.337 262.679 314.881 263.203 314.751 264.649C314.233 265.028 314.2 265.047 313.611 265.303C313.02 264.347 312.267 263.374 312.156 262.303Z" fill="#C9CBD2"/>
<path d="M317.407 298.99C318.642 298.56 319.184 299.736 319.973 300.68L319.589 301.658C318.351 300.845 317.95 300.351 317.407 298.99Z" fill="#E18F68"/>
<path d="M327.263 275.89C327.894 276.104 329.164 277.495 329.738 278.054C319.908 281.482 309.518 285.803 299.706 289.557C281.007 296.638 262.347 303.819 243.726 311.101C242.584 311.047 241.727 309.801 240.986 308.983C269.531 297.857 298.876 287.257 327.263 275.89Z" fill="#F0BB56"/>
<path d="M321.903 271.568L322.505 271.502C323.367 271.826 324.081 272.869 324.709 273.61C315.044 276.749 302.153 282.155 292.517 285.873L238.973 306.491L238.521 306.571C237.693 306.153 236.899 305.173 236.24 304.471C246.49 300.796 257.791 296.185 267.953 292.206L297.442 280.953C305.574 277.768 313.728 274.64 321.903 271.568Z" fill="#F0BB56"/>
<path d="M317.208 267.002C318.095 267.13 319.118 268.447 319.779 269.148C299.036 276.867 278.348 284.736 257.717 292.752C249.895 295.755 241.792 299.09 233.935 301.891C233.134 301.876 232.127 300.496 231.389 299.736C239.651 296.89 247.621 293.512 255.794 290.451L317.208 267.002Z" fill="#F0BB56"/>
<path d="M307.633 302.22C308.489 302.29 309.515 303.634 310.143 304.307C305.212 306.549 297.87 309.138 292.645 311.187L258.065 324.742L257.797 324.819C257.017 324.534 256.135 323.467 255.516 322.831C267.666 317.941 279.845 313.12 292.051 308.37C297.152 306.369 302.636 304.376 307.633 302.22Z" fill="#F0BB56"/>
<path d="M277.667 231.312C278.555 231.732 279.168 232.567 279.836 233.314C275.808 234.489 269.889 236.948 265.866 238.494C257.443 241.79 248.97 244.956 240.45 247.994C239.848 247.602 238.805 246.496 238.245 245.944C246.436 243.008 254.6 239.999 262.738 236.918C267.672 235.072 272.812 233.307 277.667 231.312Z" fill="#F0BB56"/>
<path d="M287.849 241.134C288.879 241.15 289.99 242.399 290.832 243.147C288.345 244.251 283.914 245.681 281.274 246.627C275.183 248.788 269.127 251.048 263.108 253.404C263.011 253.428 262.569 253.385 262.448 253.377C261.624 252.682 261.326 252.314 260.616 251.484C269.101 247.779 279.747 244.893 287.849 241.134Z" fill="#F0BB56"/>
<path d="M170.918 259.299L173.263 260.416C174.293 260.768 175.378 261.119 176.396 261.491C176.714 262.608 181.039 266.347 182.193 267.396C190.077 275.119 198.426 282.513 206.373 290.214L208.283 291.924L207.827 292.723C209.84 294.71 211.876 296.672 213.935 298.61L215.329 298.578C216.538 299.606 217.733 300.649 218.915 301.707C218.998 301.93 218.945 301.814 219.115 302.092L219.257 302.32L219.019 302.751L219.177 302.892L219.32 302.689L219.32 302.887C218.787 302.962 218.241 302.166 217.492 301.875C217.965 302.691 218.005 302.665 218.724 303.217C219.926 303.6 220.92 304.096 221.099 305.491C221.895 306.285 222.775 307.206 223.601 307.951C224.31 308.294 224.352 308.336 224.974 308.83L225.318 310.175C226.474 310.2 227.591 311.451 228.514 312.32C229.448 312.83 229.496 312.811 230.592 312.743L232.875 314.909C235.959 317.584 239.177 320.79 242.183 323.604L257.83 338.043C259.416 339.487 264.357 344.287 265.796 345.228C267.671 344.145 271.555 342.71 273.667 341.895L285.459 337.37L314.463 326.095C320.016 323.986 325.548 321.823 331.059 319.606C334.151 318.377 338.061 316.932 340.979 315.519L341.546 315.749L341.372 315.991C342.724 316.018 342.709 316.158 343.691 317.02C345.168 318.315 347.235 319.592 348.984 320.486C348.785 320.835 348.685 321.005 348.456 321.342C346.988 321.633 341.481 323.969 339.744 324.639L316.781 333.55L267.797 351.747C261.962 353.961 255.733 356.089 250.027 358.501C247.044 355.876 243.605 352.283 240.749 349.435C234.746 343.453 228.774 337.44 222.833 331.395L178.912 287.864C171.657 280.656 164.712 273.242 157.291 266.162L155.56 264.636C157.356 263.569 161.827 262.422 163.997 261.805L163.925 261.626C165.878 261.411 169.043 260.039 170.918 259.299Z" fill="#FDFEFD"/>
<path d="M231.029 314.64C232.081 315.337 232.845 316.124 233.83 316.888L233.842 316.476L234.154 317.032C234.048 316.222 233.306 315.658 232.876 314.909C235.96 317.583 239.178 320.789 242.183 323.604L257.83 338.042C259.417 339.487 264.357 344.287 265.797 345.227C267.671 344.144 271.556 342.71 273.668 341.895L285.46 337.37L314.464 326.094C320.017 323.985 325.549 321.822 331.06 319.605C334.152 318.376 338.061 316.932 340.979 315.518L341.547 315.749L341.373 315.991L287.169 337.891C280.3 340.713 271.542 343.982 265.014 347.08C264.095 346.107 260.621 342.905 260.306 342.216C259.601 341.2 256.549 338.154 255.335 337.929C253.757 336.301 252.748 335.385 250.995 333.944C250.476 332.6 249.886 331.873 248.4 331.713C245.834 329.217 243.292 326.694 240.778 324.146C240.298 323.47 239.032 322.452 238.323 321.745L235.818 319.5C235.864 319.197 235.849 318.803 235.853 318.486C235.202 317.589 234.547 317.552 233.474 317.333C232.489 316.38 231.813 315.787 231.029 314.64Z" fill="#BBCBEF"/>
<path d="M255.335 337.93C256.549 338.154 259.601 341.2 260.306 342.217C257.447 343.146 254.184 344.447 251.338 345.516C249.921 344.063 248.534 342.581 247.178 341.071C249.873 339.965 252.593 338.918 255.335 337.93Z" fill="#C1C0C0"/>
<path d="M170.918 259.299L173.263 260.416C174.677 261.688 179.806 265.951 180.585 266.955C174.558 266.19 169.357 263.336 163.997 261.805L163.926 261.626C165.878 261.411 169.043 260.039 170.918 259.299Z" fill="#CCDDF8"/>
<path d="M173.263 260.416C174.293 260.768 175.378 261.119 176.396 261.491C176.714 262.607 181.039 266.347 182.193 267.396C190.077 275.119 198.426 282.513 206.373 290.214L205.437 290.554C203.885 288.977 197.322 282.363 195.759 281.574L194.88 282.248C194.149 282.327 194.488 282.399 193.871 281.907C193.985 281.026 194.317 281.879 195.203 281.101C193.063 278.585 183.335 269.195 180.585 266.955C179.805 265.95 174.676 261.688 173.263 260.416Z" fill="#BBCBEF"/>
<path d="M228.514 312.319C229.448 312.829 229.495 312.811 230.592 312.743L232.875 314.909C233.305 315.658 234.047 316.223 234.153 317.032L233.841 316.476L233.829 316.888C232.844 316.124 232.08 315.337 231.028 314.64C228.814 315.321 225.258 316.789 222.94 317.625C222.259 316.931 221.548 316.113 220.886 315.388C223.321 314.333 226.029 313.33 228.514 312.319Z" fill="#C9CBD2"/>
<path d="M215.329 298.577C216.538 299.605 217.733 300.648 218.915 301.707C218.998 301.93 218.945 301.813 219.115 302.091L219.257 302.32L219.019 302.75L219.177 302.891L219.32 302.689L219.32 302.886C218.787 302.962 218.241 302.165 217.492 301.874C217.387 301.79 216.766 301.294 216.627 301.245C215.26 300.765 210.435 302.965 209.072 303.492L206.777 301.278C208.691 300.668 212.244 299.518 213.935 298.609L215.329 298.577Z" fill="#C9CBD2"/>
<path d="M248.401 331.713C249.886 331.873 250.476 332.6 250.995 333.944C248.645 334.732 245.296 336.177 242.957 337.13L240.646 334.829C242.858 333.822 246.071 332.668 248.401 331.713Z" fill="#C1C0C0"/>
<path d="M233.473 317.333C234.546 317.552 235.201 317.589 235.852 318.486C235.849 318.804 235.864 319.197 235.817 319.5C233.421 320.171 230.152 321.514 227.666 322.362L225.642 320.305C227.915 319.121 231.004 318.137 233.473 317.333Z" fill="#C1C0C0"/>
<path d="M238.322 321.745C239.031 322.452 240.296 323.47 240.776 324.146C238.142 324.968 235.12 326.185 232.495 327.181C231.684 326.166 231.252 325.806 230.288 324.95C232.954 323.787 235.502 323.052 238.322 321.745Z" fill="#C1C0C0"/>
<path d="M218.724 303.217C219.926 303.6 220.92 304.096 221.099 305.491C218.674 306.269 216.05 307.301 213.535 308.127C212.844 307.265 212.305 306.721 211.525 305.93C213.724 305.165 216.665 304.179 218.724 303.217Z" fill="#C1C0C0"/>
<path d="M206.373 290.214L208.283 291.923L207.827 292.722C205.932 293.252 203.059 294.462 201.148 295.201L198.837 292.942C201.227 292.171 203.111 291.472 205.437 290.554L206.373 290.214Z" fill="#C1C0C0"/>
<path d="M223.601 307.951C224.31 308.294 224.352 308.336 224.974 308.83L225.319 310.175C222.954 311.085 220.577 311.965 218.191 312.814C217.676 312.186 216.728 311.317 216.124 310.728C218.12 309.799 221.444 308.72 223.601 307.951Z" fill="#C1C0C0"/>
<path d="M515 286.46V299.471V305.712C511.806 305.756 508.758 307.247 505.524 308.149C501.829 307.965 497.757 308.816 494.06 309.195C488.555 309.759 460.561 312.439 456.91 311.492C455.244 311.06 453.905 309.408 452.728 308.227C449.586 308.487 445.794 309.005 442.721 308.988C439.857 308.973 437.12 307.66 433.974 308.046C430.397 308.485 427.373 309.866 423.988 310.998C421.176 311.91 418.291 312.58 415.365 313C402.677 314.771 391.323 313.415 378.861 314.001C366.063 314.602 355.446 317.13 342.222 315.755C344.853 315.545 348.444 314.579 350.829 313.459C356.391 312.014 362.127 308.045 368.046 307.085C383.105 304.643 398.576 307.174 413.736 304.627C416.606 304.036 420.431 303.164 423.029 301.804C427.642 299.388 429.755 298.263 435.044 297.734C436.244 297.527 437.431 297.489 438.647 297.416C438.784 298.945 438.832 299.92 438.822 301.459C439.131 301.944 439.309 302.372 440.046 302.428C443.981 302.728 448.995 301.489 452.859 301.231C454.113 301.056 454.23 301.17 454.875 300.433C455.18 299.115 454.672 296.911 454.529 295.413C454.977 294.81 455.939 295.008 456.729 295C463.041 294.938 469.449 294.063 475.7 293.253C488.889 291.535 502 289.269 515 286.46Z" fill="#BBCBEF"/>
<path d="M515 286.46V299.471C500.966 301.342 486.894 302.911 472.793 304.176C467.734 304.602 462.616 305.099 457.542 305.107C455.191 305.111 453.717 303.259 452.859 301.231C454.113 301.056 454.23 301.17 454.875 300.433C455.18 299.115 454.672 296.911 454.53 295.413C454.977 294.81 455.939 295.008 456.729 295C463.041 294.938 469.449 294.063 475.7 293.253C488.889 291.535 502 289.269 515 286.46Z" fill="#AAA9A9"/>
<path d="M438.648 297.417C438.785 298.945 438.833 299.921 438.823 301.46C437.721 300.055 436.376 298.917 435.045 297.734C436.245 297.528 437.432 297.49 438.648 297.417Z" fill="#C1C0C0"/>
<path d="M6.98594 99.9756C7.97994 104.036 9.60832 109.377 10.8549 113.419C14.1189 124.004 18.2445 138.038 24.4286 147.318C28.2884 153.111 38.478 161.319 43.8295 165.911C51.7303 172.69 60.0402 179.121 68.1942 185.565C79.0344 194.177 90.0053 202.624 101.102 210.901C107.5 215.671 115.674 221.834 122.402 225.903L122.772 226.125C122.957 224.659 123.379 222.533 124.251 221.304C125.941 222.622 127.393 223.777 128.994 225.196C130.03 226.013 133.32 228.722 134.478 228.952L134.658 228.815C134.657 226.733 134.936 226.186 135.633 224.25C136.555 224.815 138.915 226.176 139.671 226.761C141.199 227.895 141.897 228.46 143.253 229.785C144.891 232.514 147.284 235.552 149.066 238.237C156.636 249.644 159.02 252.692 170.918 259.299C169.043 260.039 165.878 261.41 163.925 261.626C155.153 257.951 146.386 242.747 139.884 236.171C137.586 233.847 133.571 233.635 129.368 230.202C127.277 231.025 126.179 231.342 124 231.809C121.367 230.599 117.728 227.911 115.228 226.166L102.279 217.099C84.1995 204.604 66.1001 192.249 48.6038 178.907C38.9004 171.508 26.6456 162.61 18.112 153.994C11.3332 147.15 4.50875 135.461 0 126.968V101.224L6.98594 99.9756Z" fill="#BBCBEF"/>
<path d="M124.251 221.305C125.941 222.622 127.393 223.778 128.994 225.196C127.24 225.836 124.6 226.519 122.771 226.125C122.957 224.659 123.379 222.533 124.251 221.305Z" fill="#293A4E"/>
<path d="M135.632 224.25C136.555 224.815 138.915 226.176 139.671 226.761C137.989 227.546 136.428 228.222 134.658 228.815C134.657 226.733 134.935 226.186 135.632 224.25Z" fill="#AAA9A9"/>
<path d="M157.559 267.255C156.612 266.473 155.841 265.936 155.127 264.935L155.56 264.637L157.291 266.163C164.713 273.242 171.657 280.656 178.912 287.865L222.833 331.395C228.774 337.44 234.746 343.453 240.749 349.436C243.606 352.284 247.044 355.876 250.028 358.501C255.734 356.089 261.963 353.961 267.797 351.747L316.781 333.551L339.744 324.639C341.482 323.969 346.988 321.633 348.457 321.342C347.458 322.565 341.707 324.48 339.917 325.168L326.031 330.545L274.252 350.918C266.392 354.056 257.175 357.277 249.665 360.871C243.283 355.04 236.181 347.375 229.988 341.09C218.292 329.382 206.691 317.581 195.186 305.686L170.153 280.031C166.452 276.262 160.808 271.048 157.559 267.255Z" fill="#BBCBEF"/>
<path d="M37.0412 297.656C36.9598 296.978 36.9781 296.493 37.289 295.866C37.6786 295.08 38.2864 294.545 38.9699 294.017C42.4554 291.33 83.6921 261.46 85.2375 261.123C87.2388 260.687 89.17 261.478 90.8718 262.456C93.716 264.248 95.6176 265.395 98.6693 266.912C100.7 267.978 104.642 270.383 106.594 271.57C109.406 273.281 121.046 279.055 121.979 281.265C121.996 281.838 122.034 282.313 121.988 282.879C121.654 284.026 121.727 283.922 120.587 284.775C111.209 291.797 101.743 298.788 92.4455 305.916L80.3012 315.287C78.3277 316.814 75.4501 319.31 73.2357 320.304C69.2547 318.972 38.956 301.112 37.4951 298.775C37.2921 298.45 37.1641 298.012 37.0412 297.656Z" fill="#F0BB56"/>
<path d="M37.0412 297.656C36.9598 296.978 36.9781 296.493 37.289 295.866C37.6786 295.08 38.2864 294.545 38.9699 294.017C42.4554 291.33 83.6921 261.46 85.2375 261.123C87.2388 260.687 89.17 261.478 90.8718 262.456C93.716 264.248 95.6176 265.395 98.6693 266.912C95.0269 270.288 88.5509 274.865 84.3718 277.986L63.9521 293.194C59.0637 296.788 52.9042 301.167 48.2239 304.999C47.2076 305.054 41.405 301.029 40.4062 300.14C39.4958 298.722 38.5595 298.332 37.0412 297.656Z" fill="#434343"/>
<path d="M37.0412 297.656C36.9598 296.978 36.9781 296.493 37.289 295.866C37.6786 295.08 38.2864 294.545 38.9699 294.017C42.4554 291.33 83.6921 261.46 85.2375 261.123C87.2388 260.687 89.17 261.478 90.8718 262.456C76.208 273.606 61.2264 284.276 46.5102 295.35C44.4863 296.874 42.2889 298.457 40.4062 300.14C39.4958 298.722 38.5595 298.332 37.0412 297.656Z" fill="#F0BB56"/>
<path d="M121.988 282.877C121.654 284.024 121.726 283.92 120.587 284.773C111.209 291.795 101.743 298.786 92.4454 305.915L80.3011 315.285C78.3276 316.812 75.4499 319.309 73.2356 320.302C69.2545 318.971 38.9559 301.11 37.495 298.773C37.292 298.448 37.164 298.01 37.041 297.654C38.5593 298.33 39.4956 298.72 40.4061 300.138C41.4048 301.028 47.2074 305.053 48.2238 304.997C52.9028 307.059 69.2419 318.607 73.2324 318.426C77.0703 318.251 117.773 283.485 121.988 282.877Z" fill="#C9953B"/>
<path d="M83.5597 282.539C84.6511 283.12 87.305 285.827 88.2545 286.768C84.322 289 78.7754 293.291 75.1083 296.081C69.9911 299.989 64.8505 303.867 59.6866 307.714C57.6154 306.348 56.297 305.375 54.3613 303.82C57.1507 302.145 60.1709 299.558 62.8802 297.627C69.7225 292.751 76.6222 287.216 83.5597 282.539Z" fill="#F9DBA2"/>
<path d="M98.1863 271.097C100.322 272.197 101.722 273.031 103.751 274.326C99.6548 277.486 95.4701 280.588 91.7551 284.185C89.8163 282.8 87.8503 281.514 85.8623 280.201C89.0205 277.541 94.6951 273.655 98.1863 271.097Z" fill="#F9DBA2"/>
<path d="M99.0153 290.062C99.9031 290.661 100.269 290.993 100.583 291.872C92.04 297.564 79.1864 307.378 71.1202 313.912L70.9071 313.911C69.8466 313.29 70.1663 313.714 69.7236 312.767C72.0124 309.518 94.656 293.516 99.0153 290.062Z" fill="#C9953B"/>
<path d="M95.4616 288.064C96.6539 288.687 96.4162 288.265 96.7958 289.17C95.8614 290.494 92.7668 292.462 91.3917 293.668C83.8539 300.274 75.3016 305.723 67.5249 311.944C66.7103 311.46 66.7267 311.526 66.2803 310.702C66.6195 310.11 92.8791 290.049 95.4616 288.064Z" fill="#C9953B"/>
</g>
<defs>
<linearGradient id="paint0_linear_15629_38246" x1="257.899" y1="205.462" x2="263.136" y2="205.672" gradientUnits="userSpaceOnUse">
<stop stop-color="#CCCFD4"/>
<stop offset="1" stop-color="#C8CCE7"/>
</linearGradient>
<linearGradient id="paint1_linear_15629_38246" x1="322.881" y1="183.977" x2="317.638" y2="181.15" gradientUnits="userSpaceOnUse">
<stop stop-color="#5F4744"/>
<stop offset="1" stop-color="#405052"/>
</linearGradient>
<clipPath id="clip0_15629_38246">
<rect width="515" height="355" rx="61" fill="white"/>
</clipPath>
</defs>
</svg>
