<svg width="602" height="602" viewBox="0 0 602 602" fill="none" xmlns="http://www.w3.org/2000/svg">
<g filter="url(#filter0_d_15630_38448)">
<g clip-path="url(#clip0_15630_38448)">
<path d="M33.8135 35.5469H278.355H486.194H548.813V220.307V270.399V322.007V335.018V341.259V355.828V550.547H33.8135V348.931V332.612V162.514V136.771V108.171V35.5469Z" fill="#EEEFEF"/>
<path d="M33.8135 35.5469H278.355H486.194C472.938 55.7266 459.924 76.0647 447.156 96.5568L435.889 114.869C431.796 121.651 429.998 125.405 424.797 131.706C421.38 136.527 417.595 141.321 414.094 146.177C406.848 156.337 399.722 166.581 392.718 176.909C390.72 179.857 381.301 192.857 381.437 195.503C381.618 196.623 381.824 198.226 382.07 199.293C380.593 201.211 378.391 204.432 377.545 206.665C377.255 208.248 377.648 210.195 377.967 211.771C372.794 217.078 369.877 217.659 362.805 219.726C361.404 223.674 358.455 234.413 357.383 238.688C357.222 239.186 356.937 239.977 356.824 240.458C356.61 241.052 356.255 242.274 355.769 242.616C355.569 243.171 355.469 243.462 355.227 244.001C353.927 250.332 351.228 257.523 349.718 264.154C345.602 268.866 340.945 273.458 344.743 280.007C344.711 281.383 344.041 282.609 343.73 283.914L342.773 286.98C342.085 289.756 341.685 291.717 339.811 293.995C337.51 293.617 337.091 293.393 335.21 292.153C335.089 291.228 335.336 289.922 335.465 288.964L334.62 288.365C333.881 287.439 332.816 285.731 331.604 286.658C330.586 285.667 329.749 285.153 328.786 284.002L329.294 283.658L329.35 283.21C328.774 282.329 328.107 282.028 327.199 281.455C325.868 279.693 325.501 277.858 326.2 275.779C324.754 269.825 323.663 268.514 320.52 263.228C319.504 262.619 311.768 255.943 311 254.945C310.334 255.437 309.987 255.77 309.186 255.999L306.565 256.162C305.278 257.149 306.279 260.035 303.414 261.361C300.919 262.045 298.796 260.946 297.694 258.656C296.316 257.816 295.389 255.54 294.602 254.047C294.454 255.855 294.453 259.229 293.328 260.463C291.143 262.026 289.812 261.559 287.692 260.219C286.951 260.446 286.747 260.322 286.023 260.138L262.818 267.877C261.146 268.425 255.288 270.039 254.17 270.63L255.225 275.737C255.393 277.381 255.405 277.418 254.213 278.662C256.959 281.341 258.85 282.68 259.744 286.532L259.796 287.04C258.406 289.538 257.696 290.343 254.722 290.336L254.193 289.758L253.797 290.23C249.889 292.766 246.409 292.128 242.101 292.28C237.546 295.21 234.106 296.581 228.507 296.828C224.663 297.446 219.046 299.216 215.489 298.639C213.835 298.488 211.794 297.626 210.21 297.038C209.192 296.666 208.107 296.315 207.076 295.963L204.731 294.845C192.833 288.238 190.449 285.191 182.879 273.784C181.098 271.099 178.704 268.06 177.066 265.332C175.711 264.007 175.012 263.441 173.485 262.307C172.729 261.722 170.369 260.361 169.446 259.797C168.749 261.733 168.471 262.28 168.472 264.362L168.291 264.499C167.134 264.268 163.843 261.559 162.807 260.742C161.207 259.324 159.755 258.168 158.065 256.851C157.192 258.079 156.77 260.206 156.585 261.672L156.216 261.45C149.487 257.381 141.314 251.218 134.916 246.448C123.819 238.17 112.848 229.724 102.008 221.111C93.8537 214.667 85.5438 208.237 77.6429 201.457C72.2915 196.866 62.1019 188.657 58.2421 182.865C52.058 173.584 47.9324 159.55 44.6684 148.966C43.4218 144.924 41.7934 139.582 40.7994 135.522L33.8135 136.771V108.171V35.5469Z" fill="#35475D"/>
<path d="M278.356 35.5469H486.194C472.939 55.7266 459.925 76.0647 447.157 96.5568L435.889 114.869C431.796 121.651 429.999 125.405 424.797 131.706C421.381 136.527 417.595 141.321 414.095 146.177C406.849 156.337 399.723 166.581 392.719 176.909C390.72 179.857 381.301 192.857 381.438 195.503C381.618 196.623 381.824 198.226 382.07 199.293C380.594 201.211 378.391 204.432 377.546 206.665C377.255 208.248 377.649 210.195 377.968 211.771C372.795 217.078 369.878 217.659 362.806 219.726C361.404 223.674 358.455 234.413 357.384 238.688C357.223 239.186 356.938 239.977 356.824 240.458C356.611 241.052 356.256 242.274 355.77 242.616C355.57 243.171 355.47 243.462 355.228 244.001C353.927 250.332 351.229 257.523 349.718 264.154C345.602 268.866 340.945 273.458 344.744 280.007C344.712 281.383 344.041 282.609 343.73 283.914L342.774 286.98C342.085 289.756 341.686 291.717 339.812 293.995C337.511 293.617 337.091 293.393 335.21 292.153C335.09 291.228 335.337 289.922 335.465 288.964L334.62 288.365C333.882 287.439 332.817 285.731 331.604 286.658C330.586 285.667 329.75 285.153 328.787 284.002L329.294 283.658L329.351 283.21C328.774 282.329 328.107 282.028 327.199 281.455C325.869 279.693 325.501 277.858 326.201 275.779C324.754 269.825 323.664 268.514 320.52 263.228C319.504 262.619 311.768 255.943 311 254.945C310.335 255.437 309.988 255.77 309.186 255.999L306.566 256.162C305.279 257.149 306.279 260.035 303.415 261.361C300.92 262.045 298.796 260.946 297.694 258.656C296.316 257.816 295.389 255.54 294.602 254.047C294.454 255.855 294.454 259.229 293.329 260.463C291.144 262.026 289.812 261.559 287.693 260.219L287.304 259.76C286.627 259.808 286.637 259.801 285.97 259.66C284.311 258.327 283.34 255.909 282.416 254.037C278.069 245.225 273.767 227.184 263.463 224.074C262.793 225.325 262.145 226.578 261.407 227.791C261.218 233.196 260.03 238.013 254.541 240.43C253.627 240.718 252.857 240.823 251.882 240.667L251.617 240.546C250.548 240.066 250.479 240.101 249.775 239.196C249.843 236.2 249.383 233.363 249.459 230.389C247.311 220.752 248.502 219.83 249.298 210.482C250.322 198.46 259.251 191.582 258.839 180.154C257.226 179.272 256.503 179.036 255.689 177.433C255.033 176.718 254.838 176.46 254.712 175.498C254.478 173.488 253.814 170.358 253.483 168.147C262.627 157.437 284.873 155.612 296.915 161.851C297.832 164.129 298.034 166.142 298.394 168.539C299.198 167.405 300.327 165.586 300.327 164.204C300.325 158.236 299.145 151.265 298.286 145.37C296.405 132.252 294.336 119.163 292.078 106.105C290.076 93.505 287.301 80.1574 284.908 67.5895C282.991 57.5186 280.918 45.3906 278.356 35.5469Z" fill="#F8FAFC"/>
<path d="M258.094 174.606C261.215 172.784 264.529 171.311 267.974 170.217C275.046 168.043 289.086 167.07 295.656 170.59C295.425 172.2 295.868 174.866 296.273 176.462C295.941 180.505 302.414 189.315 304.702 192.813L315.739 209.709C325.276 224.23 324 222.059 320.152 238.355C318.941 238.439 318.434 238.575 317.236 238.859L316.635 239.558C316.281 240.99 315.482 244.528 314.891 245.796L314.689 245.861L313.787 248.045C312.204 248.553 310.173 249.057 308.506 248.909C308.245 250.294 308.002 251.47 307.663 252.844L306.8 252.366L306.539 253.489C306.349 254.343 306.022 255.214 306.36 255.973L306.566 256.162C305.279 257.15 306.279 260.035 303.415 261.362C300.92 262.046 298.796 260.947 297.694 258.656C296.316 257.816 295.389 255.541 294.602 254.047C294.454 255.855 294.454 259.229 293.329 260.463C291.144 262.026 289.812 261.56 287.693 260.219L287.304 259.76C286.627 259.808 286.637 259.801 285.97 259.66C284.311 258.327 283.34 255.909 282.416 254.037C278.069 245.226 273.767 227.184 263.463 224.074C262.793 225.326 262.145 226.578 261.407 227.791C261.218 233.196 260.03 238.014 254.541 240.431C253.627 240.718 252.857 240.823 251.882 240.668L251.617 240.546C250.548 240.066 250.479 240.101 249.775 239.196C249.843 236.2 249.383 233.363 249.459 230.39C247.311 220.752 248.502 219.831 249.298 210.483C250.322 198.461 259.251 191.582 258.839 180.154C257.226 179.272 256.503 179.036 255.689 177.433C256.494 176.047 256.885 175.645 258.094 174.606Z" fill="#F6AC88"/>
<path d="M261.406 227.791C261.012 221.037 261.906 210.194 271.382 217.042C274.45 220.754 280.474 231.135 281.914 235.854C284.066 242.909 282.829 253.599 287.303 259.76C286.626 259.808 286.636 259.801 285.969 259.66C284.31 258.326 283.339 255.909 282.415 254.036C278.068 245.225 273.766 227.184 263.462 224.074C262.792 225.325 262.144 226.578 261.406 227.791Z" fill="#BBCBEF"/>
<path d="M291.354 223.16C292.634 225.41 295.971 230.985 296.533 233.091C298.172 239.239 295.63 252.05 297.439 257.655L297.693 258.655C296.315 257.816 295.389 255.54 294.601 254.047C294.392 252.024 294.498 249.202 294.376 246.974C294.53 241.849 294.192 235.737 293.368 230.675C293.014 228.5 291.398 225.249 291.354 223.16Z" fill="url(#paint0_linear_15630_38448)"/>
<path d="M287.726 213.466C290.579 217.43 296.402 228.396 298.42 233.075C299.35 235.228 299.058 256.338 297.439 257.656C295.63 252.051 298.172 239.239 296.532 233.091C295.971 230.986 292.634 225.411 291.354 223.161C289.595 220.163 288.367 216.883 287.726 213.466Z" fill="#E18F68"/>
<path d="M254.54 240.43C254.147 240.266 254.353 240.391 253.966 239.993C254.37 239.111 256.122 237.984 256.848 236.958C259.207 233.62 260.244 231.028 259.904 226.896C259.806 225.704 259.78 222.93 259.896 221.668C260.147 218.966 261.362 213.86 263.637 212.201C266.562 210.068 270.554 214.706 271.382 217.043C261.906 210.194 261.011 221.037 261.406 227.791C261.217 233.196 260.029 238.013 254.54 240.43Z" fill="#E18F68"/>
<path d="M294.375 246.975C294.497 249.202 294.392 252.025 294.601 254.047C294.453 255.855 294.452 259.229 293.327 260.463C292.454 259.697 290.633 260.197 289.5 258.999C287.969 257.378 286.659 255.06 288.74 253.246C290.416 251.784 292.216 252.161 294.261 252.387C294.246 250.479 294.229 248.874 294.375 246.975Z" fill="#F7BD9F"/>
<path d="M306.799 252.365C308.552 247.083 310.029 234.723 308.919 229.076C307.992 224.358 301.82 216.584 301.263 211.958C302.034 212.358 303.53 215.162 303.961 216.073C306.357 221.133 310.471 227.024 310.408 232.779C310.35 238.113 309.411 243.663 308.505 248.908C308.244 250.293 308.001 251.47 307.662 252.844L306.799 252.365Z" fill="#E18F68"/>
<path d="M303.413 261.361C303.112 260.41 302.459 260.645 301.653 260.056C299.065 258.158 299.294 253.379 302.936 252.962C303.745 252.87 305.925 252.938 306.537 253.488C306.347 254.343 306.021 255.214 306.358 255.972L306.565 256.162C305.278 257.149 306.278 260.034 303.413 261.361Z" fill="#F7BD9F"/>
<path d="M314.689 245.861L314.449 245.687C314.772 240.868 317.996 233.126 317.436 227.392C317.004 222.961 309.992 213.718 310.563 211.181C312.171 212.535 317.343 223.485 318.238 225.848C319.297 228.646 317.367 236.28 316.635 239.557C316.281 240.99 315.483 244.528 314.891 245.796L314.689 245.861Z" fill="#E18F68"/>
<path d="M249.459 230.39L249.845 230.921C250.941 231.002 252.208 230.818 252.919 231.382C254.306 234.059 253.714 236.6 251.38 238.616C251.078 238.877 251.154 238.82 250.925 239.189C251.281 239.815 251.473 240.098 251.882 240.668L251.616 240.546C250.548 240.067 250.478 240.101 249.775 239.196C249.842 236.2 249.383 233.363 249.459 230.39Z" fill="#F7BD9F"/>
<path d="M258.093 174.606C258.357 176.034 258.996 178.858 258.839 180.155C257.225 179.272 256.502 179.036 255.688 177.433C256.494 176.047 256.884 175.645 258.093 174.606Z" fill="#AAA9A9"/>
<path d="M351.87 221.562C351.02 224.478 350.1 227.981 349.158 230.819C349.368 231.913 349.087 231.559 349.785 232.092C350.391 232.013 350.392 232.04 350.962 231.851C350.895 232.747 350.844 233.768 350.746 234.647C350.524 235.349 350.373 235.902 350.073 236.577L349.789 237.193L349.806 238.277C349.556 239.186 349.362 239.748 349.295 240.682C351.669 241.536 353.324 241.995 355.768 242.617C355.569 243.171 355.469 243.463 355.227 244.001C353.926 250.332 351.228 257.524 349.717 264.154C345.601 268.866 340.944 273.459 344.743 280.008C344.71 281.383 344.04 282.61 343.729 283.914L342.773 286.98C342.084 289.757 341.685 291.717 339.81 293.996C337.51 293.617 337.09 293.393 335.209 292.153C335.088 291.228 335.335 289.922 335.464 288.964L334.619 288.366C333.881 287.439 332.816 285.731 331.603 286.659C330.585 285.667 329.749 285.153 328.786 284.002L329.293 283.659L329.349 283.21C328.773 282.329 328.106 282.029 327.198 281.455C325.868 279.693 325.5 277.859 326.2 275.779C324.753 269.826 323.663 268.514 320.519 263.229L320.45 262.975C319.591 259.725 320.687 257.976 322.302 255.224C322.797 253.837 320.067 249.582 323.85 244.914C328.012 239.779 334.35 229.772 338.887 225.158C340.085 223.94 349.901 221.934 351.87 221.562Z" fill="#E18F68"/>
<path d="M349.296 240.682C351.67 241.536 353.325 241.994 355.769 242.616C355.57 243.171 355.47 243.462 355.228 244C353.927 250.331 351.229 257.523 349.718 264.153C345.602 268.865 340.945 273.458 344.744 280.007C344.711 281.383 344.041 282.609 343.73 283.913L342.774 286.979C342.085 289.756 341.686 291.716 339.811 293.995C337.51 293.616 337.091 293.393 335.21 292.152C335.089 291.228 335.336 289.921 335.465 288.963C335.81 288.11 336.523 284.988 336.787 283.933C338.433 282.744 339.203 283.131 340.603 280.679C342.235 277.82 341.475 274.028 340.705 270.994C340.868 268.353 342.451 263.585 343.212 260.934C345.139 254.219 347.574 247.442 349.296 240.682Z" fill="#434343"/>
<path d="M349.79 237.193L349.806 238.277C349.557 239.186 349.363 239.749 349.295 240.683C347.573 247.443 345.139 254.221 343.211 260.935C342.45 263.586 340.868 268.354 340.704 270.995C339.873 267.088 336.649 257.948 335.228 253.784C335.065 253.306 332.33 250.393 331.702 249.625C332.595 249.944 334.679 250.976 335.422 251.135C340.135 252.142 344.446 244.445 346.914 241.363C347.996 240.012 348.43 238.197 349.79 237.193Z" fill="#D86F56"/>
<path d="M322.302 255.223C326.086 264.661 325.827 266.364 332.246 275.648C332.933 277.105 335.091 281.286 335.075 282.655L336.014 283.382L336.786 283.932C336.522 284.988 335.809 288.11 335.464 288.963L334.619 288.365C333.881 287.438 332.816 285.73 331.603 286.658C330.585 285.666 329.749 285.153 328.786 284.001L329.293 283.658L329.349 283.209C328.773 282.329 328.106 282.028 327.198 281.454C325.868 279.692 325.5 277.858 326.2 275.778C324.753 269.825 323.663 268.514 320.519 263.228L320.45 262.974C319.591 259.724 320.687 257.975 322.302 255.223Z" fill="#D86F56"/>
<path d="M326.2 275.778C327.33 276.734 328.639 277.503 329.868 278.389C331.66 279.681 333.378 281.374 335.075 282.655L336.015 283.382L336.787 283.932C336.522 284.988 335.81 288.11 335.465 288.963L334.62 288.365C333.881 287.438 332.816 285.73 331.604 286.658C330.586 285.666 329.749 285.152 328.786 284.001L329.294 283.658L329.35 283.209C328.774 282.328 328.107 282.028 327.199 281.454C325.868 279.692 325.501 277.858 326.2 275.778Z" fill="#CCDDF8"/>
<path d="M332.246 275.648C336.612 273.537 338.261 276.876 337.241 280.905C337.075 281.564 336.306 282.615 336.014 283.382L335.075 282.655C335.091 281.286 332.933 277.105 332.246 275.648Z" fill="#F6AC88"/>
<path d="M350.746 234.647C349.241 233.83 347.251 232.929 347.687 230.721L348.143 230.485L349.158 230.818C349.368 231.912 349.087 231.559 349.785 232.091C350.391 232.012 350.392 232.039 350.962 231.851C350.895 232.746 350.844 233.767 350.746 234.647Z" fill="#F6AC88"/>
<path d="M358.408 204.461C359.201 204.404 360.124 203.28 360.721 202.68C361.704 202.965 362.423 203.047 363.41 203.286C364.411 203.529 366.189 204.319 367.07 204.502C366.946 208.172 363.589 215.663 362.805 219.726C361.404 223.674 358.454 234.414 357.383 238.688C357.222 239.186 356.937 239.977 356.823 240.458C356.61 241.052 356.255 242.274 355.769 242.616C353.324 241.995 351.669 241.536 349.295 240.682C349.362 239.748 349.557 239.185 349.806 238.277L349.789 237.193L350.073 236.577C350.374 235.901 350.525 235.348 350.746 234.647C350.844 233.767 350.895 232.746 350.962 231.851C350.392 232.04 350.391 232.013 349.785 232.092C349.087 231.559 349.368 231.912 349.158 230.819C350.101 227.981 351.021 224.478 351.87 221.562C352.998 217.827 355.516 206.511 358.408 204.461Z" fill="#C1C0C0"/>
<path d="M358.408 204.46C359.422 205.012 359.114 204.622 359.53 205.52C359.198 206.235 359.446 205.979 358.814 206.358C357.348 207.479 354.16 218.715 353.533 221.193C352.699 224.002 351.64 227.161 351.575 230.043C351.564 230.57 351.19 231.354 350.962 231.851C350.392 232.039 350.391 232.012 349.785 232.091C349.087 231.558 349.368 231.912 349.158 230.818C350.101 227.98 351.021 224.478 351.87 221.562C352.998 217.827 355.516 206.51 358.408 204.46Z" fill="url(#paint1_linear_15630_38448)"/>
<path d="M349.806 238.275C351.773 238.792 354.896 239.714 356.823 240.457C356.61 241.051 356.255 242.273 355.769 242.615C353.324 241.994 351.669 241.535 349.295 240.681C349.362 239.747 349.556 239.184 349.806 238.275Z" fill="#C1C0C0"/>
<path d="M358.814 206.358C358.746 208.399 355.433 219.587 354.277 221.076L353.533 221.194C354.16 218.715 357.348 207.479 358.814 206.358Z" fill="#EEEFEF"/>
<path d="M350.074 236.576C352.326 236.946 355.157 237.971 357.383 238.687C357.223 239.185 356.938 239.976 356.824 240.457C354.896 239.714 351.774 238.793 349.807 238.276L349.79 237.192L350.074 236.576Z" fill="#777678"/>
<path d="M308.506 248.909C310.173 249.057 312.203 248.553 313.786 248.045C313.013 250.177 312.06 253.013 311 254.946C310.334 255.437 309.987 255.77 309.186 255.999L306.565 256.162L306.359 255.973C306.022 255.214 306.348 254.343 306.538 253.489L306.799 252.366L307.662 252.844C308.001 251.47 308.244 250.294 308.506 248.909Z" fill="#F7BD9F"/>
<path d="M306.799 252.365L307.662 252.844C307.186 256.03 308.142 254.188 309.186 255.998L306.565 256.162L306.359 255.972C306.022 255.214 306.348 254.343 306.538 253.488L306.799 252.365Z" fill="#E18F68"/>
<path d="M316.634 239.557L317.236 238.859C318.434 238.575 318.941 238.438 320.151 238.354C319.291 241.009 318.429 246.163 314.891 245.796C315.482 244.528 316.281 240.99 316.634 239.557Z" fill="#F7BD9F"/>
<path d="M360.721 202.68C362.715 198.95 367.188 200.165 367.07 204.502C366.189 204.319 364.41 203.529 363.409 203.286C362.423 203.047 361.703 202.965 360.721 202.68Z" fill="#434343"/>
<path d="M295.656 170.59C299.303 172.786 299.009 173.658 296.272 176.462C295.867 174.866 295.424 172.199 295.656 170.59Z" fill="#AAA9A9"/>
<path d="M233.918 95.4795C235.763 101.981 237.417 112.658 238.827 119.667C241.29 132.102 244.076 144.471 247.18 156.761C248.365 161.646 249.611 167.953 251.625 172.545C252.018 173.442 253.883 174.888 254.712 175.498C254.838 176.46 255.033 176.718 255.689 177.433C256.503 179.036 257.226 179.272 258.839 180.154C259.251 191.582 250.322 198.46 249.298 210.482C248.502 219.83 247.311 220.752 249.459 230.389C249.383 233.363 249.843 236.2 249.775 239.196C250.478 240.101 250.548 240.066 251.617 240.546L251.882 240.667C252.857 240.823 253.626 240.718 254.541 240.43C260.03 238.013 261.218 233.196 261.407 227.791C262.144 226.578 262.793 225.325 263.463 224.074C273.767 227.184 278.069 245.225 282.416 254.037C283.34 255.909 284.311 258.327 285.97 259.66C286.637 259.801 286.627 259.808 287.304 259.76L287.692 260.219C286.951 260.446 286.748 260.322 286.023 260.138L262.818 267.877C261.146 268.425 255.288 270.039 254.17 270.63L255.226 275.737C255.393 277.381 255.405 277.418 254.214 278.662C256.96 281.341 258.851 282.68 259.744 286.532L259.796 287.04C258.406 289.538 257.697 290.343 254.723 290.336L254.193 289.758L253.798 290.23C249.89 292.766 246.409 292.128 242.101 292.28C237.546 295.21 234.107 296.581 228.507 296.828C224.663 297.445 219.047 299.216 215.49 298.639C213.836 298.488 211.794 297.626 210.21 297.038C209.192 296.666 208.107 296.315 207.077 295.963L204.731 294.845C192.834 288.238 190.45 285.191 182.88 273.784C181.098 271.099 178.704 268.06 177.067 265.332C175.711 264.007 175.013 263.441 173.485 262.307C172.729 261.722 170.369 260.361 169.446 259.797C171.89 254.036 173.969 250.278 177.339 245.022C180.092 239.887 187.824 232.156 192.404 228.598C193.6 227.772 194.428 227.532 195.777 227.02C194.422 224.828 192.729 224.081 190.664 222.593C191.101 217.655 184.376 212.896 180.908 209.801L168.989 199.191C157.593 189.232 146.316 179.139 135.159 168.914C126.808 161.224 119.275 154.372 111.9 145.727C111.509 144.979 111.083 143.466 110.806 142.603C109.703 138.463 107.985 128.763 107.362 124.45C118.648 122.262 130.473 119.226 141.773 116.699L223.478 97.9806C223.743 97.8624 223.79 97.7296 224.009 97.4741C225.382 97.9433 232.003 95.9824 233.918 95.4795Z" fill="#EEEFEF"/>
<path d="M209.688 225.725C210.46 226.643 210.001 226.338 211.08 226.732C212.38 226.618 213.189 226.699 214.175 227.67C218.007 231.444 221.567 236.584 224.983 240.803C232.739 243.109 241.721 249.238 248.906 253.136C253.06 255.389 253.018 261.108 253.113 265.303C253.429 267.086 253.782 268.862 254.17 270.63L255.225 275.736C255.393 277.381 255.405 277.418 254.214 278.661C256.96 281.341 258.851 282.68 259.744 286.532L259.796 287.04C258.406 289.538 257.696 290.343 254.723 290.336L254.193 289.758L253.798 290.23C249.889 292.766 246.409 292.127 242.101 292.28C237.546 295.21 234.106 296.581 228.507 296.828C224.663 297.445 219.047 299.216 215.489 298.639C213.835 298.487 211.794 297.626 210.21 297.038C209.192 296.666 208.107 296.315 207.076 295.963L204.731 294.845C192.834 288.238 190.45 285.191 182.88 273.784C181.098 271.099 178.704 268.06 177.067 265.332C175.711 264.007 175.013 263.441 173.485 262.307C172.729 261.722 170.369 260.361 169.446 259.797C171.89 254.036 173.969 250.278 177.339 245.022C180.092 239.887 187.823 232.156 192.404 228.598C193.599 227.772 194.428 227.532 195.777 227.02C196.127 228.136 196.033 229.662 196.038 230.873C198.164 231.835 205.897 235.113 208.001 234.942C207.076 233.643 205.866 232.214 204.85 230.957L204.376 229.774C206.048 228.34 207.892 227 209.688 225.725Z" fill="#F6AC88"/>
<path d="M236.491 282.368C233.829 279.708 215.429 267.311 215.768 265.02C217.568 265.377 231.056 276.888 234.265 278.868C237.51 280.87 252.396 288.577 253.797 290.23C249.889 292.767 246.409 292.128 242.101 292.281C237.546 295.211 234.106 296.582 228.507 296.828C224.663 297.446 219.046 299.216 215.489 298.64C216.394 297.813 217.503 297.093 218.515 296.386C214.98 293.929 204.994 287.685 202.497 285.137C208.224 286.789 215.756 293.711 221.542 296.055C222.938 296.621 223.32 296.741 224.653 296.158C226.51 294.818 227.304 293.893 228.575 292.066C227.094 290.765 223.645 288.624 221.868 287.423C218.993 285.452 216.159 283.421 213.368 281.334C211.807 280.182 209.895 278.885 208.677 277.396L208.731 277.073C211.611 277.205 226.327 290.076 230.776 290.67C234.479 291.165 236.311 285.125 236.491 282.368Z" fill="#E18F68"/>
<path d="M209.688 225.725C210.459 226.643 210 226.338 211.08 226.732C212.38 226.618 213.189 226.699 214.175 227.67C218.007 231.444 221.567 236.584 224.983 240.803C226.208 242.334 227.659 244.059 228.794 245.63C229.605 247.112 229.688 246.665 229.076 248.283C229.258 249.553 230.298 250.343 231.237 251.296C230.668 252.809 228.848 254.307 227.62 255.477C223.046 250.959 218.141 248.624 214.49 243.21C212.802 240.706 210.003 237.175 208.001 234.942C207.076 233.643 205.866 232.214 204.85 230.957L204.376 229.774C206.048 228.34 207.891 227 209.688 225.725Z" fill="#25282B"/>
<path d="M211.08 226.733C212.38 226.619 213.189 226.699 214.175 227.671C218.007 231.445 221.567 236.584 224.983 240.804C226.208 242.334 227.659 244.06 228.794 245.631C228.27 245.633 227.254 245.584 226.808 245.721C225.92 245.437 212.844 229.572 212.224 228.145L212.386 227.939C212.167 227.319 211.831 227.319 211.09 226.881L211.08 226.733Z" fill="#434343"/>
<path d="M212.224 228.145C214.02 229.02 226.833 244.652 226.808 245.721C225.919 245.436 212.844 229.572 212.224 228.145Z" fill="#C1C0C0"/>
<path d="M209.688 225.725C210.459 226.643 210 226.338 211.08 226.732L211.09 226.88C208.989 228.537 207.378 229.966 204.85 230.957L204.376 229.774C206.048 228.34 207.891 227 209.688 225.725Z" fill="#35475D"/>
<path d="M233.263 253.865C238.599 260.972 245.779 268.428 251.191 275.853C247.675 273.369 243.598 270.388 240.403 267.486C236.763 264.18 233.363 260.47 229.561 257.302C230.743 256.153 231.979 254.887 233.263 253.865Z" fill="#25282B"/>
<path d="M177.339 245.022C177.803 245.745 177.88 245.705 177.677 246.749C177.051 249.963 174.982 254.703 175.434 257.907C175.722 259.94 176.749 262.472 177.486 264.399C177.665 264.867 177.316 265.118 177.067 265.332C175.711 264.007 175.013 263.442 173.485 262.308C172.729 261.723 170.369 260.362 169.446 259.797C171.89 254.036 173.969 250.279 177.339 245.022Z" fill="#E18F68"/>
<path d="M254.192 289.758C253.559 288.554 252.575 288.57 251.663 286.843C251.564 285.89 251.629 285.725 252.222 284.964C255.193 281.152 257.445 286.781 259.743 286.532L259.796 287.04C258.405 289.538 257.696 290.343 254.722 290.336L254.192 289.758Z" fill="#F7BD9F"/>
<path d="M231.238 251.296C231.824 252.034 232.751 253.125 233.264 253.865C231.979 254.887 230.744 256.153 229.561 257.302L227.621 255.477C228.849 254.307 230.668 252.809 231.238 251.296Z" fill="#35475D"/>
<path d="M253.114 265.303C253.429 267.086 253.782 268.862 254.17 270.63L255.226 275.737C251.662 273.443 252.878 268.746 253.114 265.303Z" fill="#F7BD9F"/>
<path d="M195.776 227.02C196.127 228.136 196.032 229.661 196.038 230.872L192.403 228.598C193.599 227.771 194.428 227.532 195.776 227.02Z" fill="#AAA9A9"/>
<path d="M233.918 95.4795C235.764 101.981 237.417 112.658 238.827 119.667C241.291 132.102 244.076 144.471 247.18 156.761C248.365 161.646 249.611 167.953 251.625 172.545C252.018 173.442 253.883 174.888 254.712 175.498C254.838 176.46 255.033 176.718 255.689 177.433C256.503 179.036 257.226 179.272 258.84 180.154C259.251 191.582 250.322 198.46 249.298 210.482C248.502 219.83 247.311 220.752 249.459 230.389C249.383 233.363 249.843 236.2 249.775 239.196C248.579 236.93 247.872 230.998 247.369 228.249C245.76 219.466 245.112 210.136 248.129 201.58C250.762 194.112 252.958 190.601 253.018 182.58C251.649 181.833 248.418 180.21 247.753 178.909C244.694 172.931 242.563 164.194 240.62 157.763C235.832 141.909 231.807 126.017 227.262 110.118C226.745 108.307 224.253 99.0317 223.479 97.9806C223.743 97.8624 223.79 97.7296 224.01 97.4741C225.383 97.9433 232.003 95.9824 233.918 95.4795Z" fill="#BBCBEF"/>
<path d="M204.376 229.774C202.223 225.858 205.966 223.18 209.688 225.725C207.891 227.001 206.047 228.34 204.376 229.774Z" fill="#434343"/>
<path d="M186.993 220.109C188.552 220.937 189.269 221.518 190.664 222.593C192.729 224.081 194.422 224.828 195.777 227.02C194.429 227.532 193.6 227.772 192.404 228.598C187.824 232.156 180.093 239.887 177.339 245.022C173.97 250.278 171.89 254.036 169.447 259.797C168.75 261.733 168.472 262.28 168.473 264.362L168.292 264.499C167.134 264.268 163.844 261.559 162.808 260.742C161.207 259.324 159.755 258.168 158.065 256.851C157.856 256.18 157.883 256.228 158.197 255.373C163.143 241.9 174.206 226.661 186.993 220.109Z" fill="#FDFEFD"/>
<path d="M74.7451 146.919C82.716 140.909 93.7602 139.081 103.439 140.625C105.757 140.995 108.645 142.502 110.807 142.604C111.084 143.466 111.51 144.98 111.9 145.728C109.264 146.608 105.906 145.937 103.484 146.454C96.388 147.971 88.4236 151.017 82.3601 155.015C79.9607 156.598 78.7882 157.874 76.7022 159.548C82.3276 149.635 92.7408 144.67 103.778 143.608C97.6071 142.355 87.7537 142.797 81.5305 144.39C79.5286 144.903 76.7199 146.095 74.7451 146.919Z" fill="#293A4E"/>
<path d="M33.8135 108.171C34.7951 111.243 35.6181 115.181 36.3768 118.381C37.7574 124.205 39.1136 129.775 40.7994 135.522L33.8135 136.771V108.171Z" fill="#FDFEFD"/>
<path d="M227.536 76.9727C229.598 83.9781 231.329 88.6968 233.918 95.4793C232.002 95.9822 225.382 97.9431 224.009 97.4739C224.998 90.9408 226.315 83.4482 227.536 76.9727Z" fill="#FDFEFD"/>
<path d="M33.8135 332.611C44.7469 345.506 56.0128 360.182 66.7021 373.467L137.762 461.574C144.835 470.339 151.733 479.556 158.849 488.229L411.295 392.214L509.503 355.043C519.047 351.366 530.001 347.536 539.338 343.696C542.572 342.793 545.62 341.302 548.813 341.259V355.827V550.546H33.8135V348.931V332.611Z" fill="#F8FAFC"/>
<path d="M33.8135 332.611C44.7469 345.506 56.0128 360.182 66.7021 373.467L137.762 461.574C144.835 470.339 151.733 479.556 158.849 488.229L411.295 392.214L509.503 355.043C519.047 351.366 530.001 347.536 539.338 343.696C542.572 342.793 545.62 341.302 548.813 341.259V355.827C539.037 359.175 527.448 363.971 517.605 367.715L450.944 393.178L238.392 474.254L186.576 493.857C177.324 497.371 167.601 501.26 158.318 504.548C154.577 500.441 148.987 492.692 145.292 488.076L114.969 450.121L63.692 386.14C53.6199 373.827 43.6599 361.424 33.8135 348.931L33.8135 332.611Z" fill="#C9CBD2"/>
<path d="M486.194 35.5469H548.814V220.307V270.399V322.007C535.814 324.816 522.703 327.082 509.514 328.8C503.263 329.61 496.855 330.485 490.543 330.547C489.753 330.555 488.791 330.357 488.343 330.96C488.486 332.458 488.994 334.662 488.689 335.98C488.044 336.717 487.927 336.604 486.673 336.779C482.809 337.037 477.795 338.275 473.86 337.975C473.123 337.919 472.945 337.491 472.636 337.006C472.646 335.467 472.598 334.492 472.461 332.963C471.245 333.036 470.058 333.075 468.858 333.281C463.569 333.81 461.456 334.935 456.843 337.351C454.245 338.711 450.42 339.583 447.55 340.174C432.39 342.721 416.919 340.191 401.86 342.632C395.941 343.592 390.205 347.561 384.643 349.006C382.258 350.126 378.667 351.092 376.036 351.302L375.36 351.296L374.792 351.065C373.562 350.588 373.323 350.489 372.265 349.714C369.337 347.161 374.643 344.185 376.347 343.227C375.095 342.632 370.767 343.769 369.104 343.92C366.864 344.123 364.635 344.275 362.383 344.39L362.81 343.651C360.4 343.537 359.194 343.407 357.465 341.727L356.632 340.134C356.84 339.433 356.834 339.414 356.867 338.68C356.234 337.863 355.7 337.878 354.603 337.476C355.374 337.217 355.689 337.237 356.484 337.195C356.482 336.509 356.586 336.501 356.983 335.909C356.438 335.736 355.716 335.668 355.133 335.584C360.088 332.146 359.432 331.696 356.759 327.377C358.654 326.05 360.108 323.32 361.656 321.245C362.599 320.51 365.244 317.087 366.037 316.021C367.106 315.431 371.498 310.276 372.545 309.078C371.225 307.701 368.501 305.668 366.929 304.265C364.119 301.756 361.239 299.254 358.438 296.732C357.215 295.631 355.62 294.618 354.62 293.451C354.461 293.214 354.164 293.027 353.917 292.833C353.133 292.157 351.414 290.252 350.531 289.854C349.594 289.433 350.776 290.659 349.084 289.719C348.103 289.086 344.101 287.564 342.773 286.98L343.73 283.914C344.041 282.609 344.711 281.383 344.743 280.007C340.945 273.458 345.602 268.866 349.718 264.154C351.229 257.523 353.927 250.332 355.227 244.001C355.469 243.462 355.569 243.171 355.769 242.616C356.255 242.274 356.61 241.052 356.824 240.458C356.937 239.977 357.223 239.186 357.383 238.688C358.455 234.413 361.404 223.674 362.805 219.726C369.877 217.659 372.794 217.078 377.967 211.771C377.649 210.195 377.255 208.248 377.545 206.665C378.391 204.432 380.593 201.211 382.07 199.293C381.824 198.226 381.618 196.623 381.437 195.503C381.301 192.857 390.72 179.857 392.718 176.909C399.723 166.581 406.848 156.337 414.094 146.177C417.595 141.321 421.38 136.527 424.797 131.706C429.999 125.405 431.796 121.651 435.889 114.869L447.156 96.5568C459.924 76.0647 472.938 55.7266 486.194 35.5469Z" fill="#EEEFEF"/>
<path d="M486.194 35.5469H548.814V220.307C543.438 223.684 537.584 226.482 531.07 226C514.209 224.753 509.889 207.555 507.417 193.828C506.191 187.129 505.298 180.374 504.74 173.587C504.622 172.246 504.288 166.205 503.7 165.541L503.316 166.395C504.051 153.806 503.441 142.131 504.028 129.963C499.563 134.732 494.954 140.234 490.666 145.206C484.984 151.665 479.435 158.24 474.022 164.926C468.622 171.681 463.409 178.652 458.024 185.408C451.627 193.435 444.838 201.259 438.332 209.206C434.888 213.077 431.537 217.052 428.217 221.029C425.73 224.008 424.029 225.681 419.859 225.356C418.849 226.36 414.106 231.523 413.345 231.85C413.018 230.032 412.587 228.523 412.092 226.74C408.732 218.478 401.734 212.601 393.652 209.188C391.118 207.584 385.693 206.947 382.795 206.671C381.529 206.339 378.866 206.57 377.546 206.665C378.391 204.432 380.594 201.211 382.07 199.293C381.824 198.226 381.618 196.623 381.438 195.503C381.301 192.857 390.72 179.857 392.719 176.909C399.723 166.581 406.849 156.337 414.095 146.177C417.595 141.321 421.381 136.527 424.797 131.706C429.999 125.405 431.796 121.651 435.889 114.869L447.157 96.5568C459.925 76.0647 472.939 55.7266 486.194 35.5469Z" fill="#C1C0C0"/>
<path d="M385.839 194.538C386.725 193.865 391.62 194.442 392.986 194.678C407.296 197.148 420.015 206.568 423.52 220.901C422.355 222.846 421.427 223.717 419.859 225.355C418.849 226.36 414.106 231.523 413.345 231.85C413.018 230.032 412.587 228.522 412.092 226.74C408.732 218.477 401.734 212.601 393.652 209.188C391.118 207.583 385.693 206.947 382.795 206.67C381.529 206.338 378.866 206.57 377.546 206.665C378.391 204.432 380.594 201.211 382.07 199.292C381.824 198.225 381.618 196.622 381.438 195.502C383.137 194.837 384.019 194.536 385.839 194.538Z" fill="#FDFEFD"/>
<path d="M381.437 195.503C383.136 194.837 384.018 194.537 385.838 194.539C384.425 196.114 383.33 197.605 382.069 199.293C381.823 198.226 381.617 196.623 381.437 195.503Z" fill="#AAA9A9"/>
<path d="M464.069 292.961C464.832 293.652 467.017 300.712 467.246 301.898C469.633 309.081 471.868 325.052 472.461 332.963C471.245 333.036 470.058 333.075 468.858 333.281C463.569 333.81 461.455 334.935 456.843 337.351C454.245 338.711 450.419 339.584 447.55 340.174C432.39 342.721 416.919 340.191 401.859 342.632C395.941 343.592 390.204 347.561 384.643 349.006C382.258 350.126 378.666 351.093 376.035 351.302L375.359 351.296L374.792 351.065C373.562 350.588 373.323 350.49 372.264 349.714C369.337 347.161 374.643 344.185 376.347 343.227C375.095 342.632 370.766 343.769 369.104 343.92C366.863 344.123 364.634 344.275 362.382 344.391L362.809 343.651C360.4 343.537 359.193 343.407 357.464 341.728L356.631 340.134C356.84 339.433 356.834 339.414 356.866 338.68C356.234 337.864 355.699 337.878 354.603 337.476C355.374 337.217 355.688 337.237 356.484 337.195C356.482 336.509 356.586 336.501 356.983 335.909C356.438 335.736 355.716 335.668 355.133 335.584C360.088 332.146 359.432 331.696 356.759 327.377C358.654 326.05 360.108 323.32 361.656 321.245C362.599 320.51 365.244 317.087 366.037 316.021C367.106 315.431 371.498 310.276 372.545 309.078C377.773 303.699 380.573 303.173 387.616 300.674C384.164 290.511 393.598 295.599 398.269 294.803C414.441 292.049 429.821 293.251 446.074 294.049C451.607 294.32 458.463 293.534 464.069 292.961Z" fill="#E18F68"/>
<path d="M467.247 301.898C469.634 309.081 471.869 325.052 472.462 332.963C471.246 333.036 470.059 333.075 468.859 333.281C463.569 333.81 461.456 334.935 456.843 337.351C454.245 338.711 450.42 339.583 447.55 340.174C432.39 342.721 416.92 340.191 401.86 342.632C395.941 343.592 390.205 347.561 384.644 349.006L384.799 348.411C386.191 347.189 387.808 346.616 389.385 345.74C395.072 342.371 400.091 341.789 406.373 340.526C421.831 337.332 439.15 339.624 453.545 332.227C458.326 329.77 461.689 327.855 466.835 326.584C468.929 326.067 468.612 312.757 468.175 310.849C467.891 309.61 466.809 302.675 467.247 301.898Z" fill="#D86F56"/>
<path d="M386.816 333.871C388.687 333.24 402.643 329.782 403.512 330.111C400.316 331.385 395.765 332.478 392.83 333.963C387.511 336.654 381.978 340.157 376.787 343.163L376.347 343.227C375.095 342.632 370.767 343.769 369.104 343.92C366.864 344.124 364.635 344.275 362.383 344.391L362.81 343.651C366.797 343.128 374.685 339.089 378.834 337.427C380.822 336.241 384.651 334.621 386.816 333.871Z" fill="#C9CBD2"/>
<path d="M356.983 335.909C362.593 333.427 370.424 327.345 375.93 323.954C382.678 319.799 387.584 318.968 395.167 316.954C398.189 316.151 400.997 315.182 404.109 314.641C398.905 318.584 390.068 319.199 383.986 321.513C379.343 323.279 374.9 326.634 370.611 329.256C368.457 330.573 364.514 332.736 362.695 334.105C361.268 334.831 357.75 337.14 356.988 337.387L356.484 337.195C356.482 336.509 356.586 336.501 356.983 335.909Z" fill="#D86F56"/>
<path d="M362.694 334.105C363.686 334.819 364.476 335.749 364.745 337.032C365.381 340.063 361.606 341.173 359.336 341.547C358.643 341.662 358.25 341.368 357.464 341.728L356.631 340.135C356.84 339.433 356.834 339.414 356.866 338.68C356.234 337.864 355.699 337.878 354.603 337.476C355.374 337.217 355.688 337.238 356.484 337.195L356.988 337.388C357.75 337.141 361.268 334.832 362.694 334.105Z" fill="#F6AC88"/>
<path d="M376.346 343.228L376.786 343.164C380.499 346.04 380.088 347.822 375.64 349.133C374.687 349.413 372.899 349.305 372.264 349.715C369.337 347.162 374.642 344.186 376.346 343.228Z" fill="#F6AC88"/>
<path d="M548.471 270.325L548.813 270.399V322.007C535.814 324.816 522.702 327.082 509.514 328.799C503.263 329.61 496.854 330.485 490.543 330.546C489.753 330.555 488.79 330.356 488.343 330.96C488.486 332.458 488.994 334.662 488.689 335.98C488.043 336.717 487.927 336.603 486.673 336.778C482.808 337.036 477.795 338.275 473.86 337.975C473.123 337.918 472.945 337.491 472.636 337.006C472.646 335.467 472.598 334.491 472.461 332.963C471.868 325.052 469.633 309.081 467.246 301.898C467.017 300.712 464.832 293.652 464.069 292.961C464.135 292.673 464.285 291.828 464.306 291.676C464.723 288.683 474.954 290.206 476.503 288.739C477.098 287.062 477.714 286.298 478.77 284.952C483.839 283.447 492.531 281.826 497.867 280.745L534.884 273.374C536.859 272.962 547.229 270.957 548.471 270.325Z" fill="#C1C0C0"/>
<path d="M476.503 288.74L478.919 288.536C482.488 299.544 485.967 310.888 487.405 322.415C487.583 323.84 488.056 330.232 488.343 330.961C488.486 332.458 488.994 334.663 488.689 335.981C488.043 336.718 487.927 336.604 486.673 336.779C482.808 337.037 477.795 338.276 473.86 337.976C473.123 337.919 472.945 337.492 472.636 337.007C472.646 335.468 472.598 334.492 472.461 332.964C471.868 325.053 469.633 309.082 467.246 301.899C467.017 300.713 464.832 293.652 464.069 292.961C464.135 292.674 464.285 291.829 464.306 291.677C464.723 288.683 474.954 290.206 476.503 288.74Z" fill="#FDFEFD"/>
<path d="M377.545 206.665C378.865 206.57 381.528 206.339 382.794 206.671C385.693 206.947 391.117 207.584 393.651 209.189C401.733 212.601 408.731 218.478 412.091 226.74C412.586 228.523 413.017 230.032 413.345 231.851C410.991 232.276 409.348 232.243 406.958 232.18C404.14 234.81 400.478 238.35 398.446 241.552C395.201 246.666 394.315 251.453 389.513 255.632C383.926 260.493 379.55 260.246 373.446 264.783C371.665 266.586 370.074 267.627 368.06 268.982C367.112 269.62 362.383 272.275 361.979 272.767C359.723 273.623 357.548 274.797 355.422 275.945C353.299 277.456 349.941 280.058 347.321 280.287C346.352 280.12 345.729 280.073 344.743 280.008C340.945 273.458 345.602 268.866 349.718 264.154C351.228 257.524 353.927 250.332 355.227 244.001C355.469 243.462 355.569 243.171 355.769 242.616C356.255 242.274 356.61 241.052 356.824 240.458C356.937 239.977 357.222 239.186 357.383 238.688C358.455 234.413 361.404 223.674 362.805 219.726C369.877 217.659 372.794 217.079 377.967 211.771C377.648 210.195 377.255 208.248 377.545 206.665Z" fill="#E18F68"/>
<path d="M393.651 209.188C401.734 212.601 408.732 218.478 412.092 226.74C412.587 228.523 413.018 230.032 413.345 231.85C410.991 232.276 409.348 232.243 406.958 232.18C404.14 234.81 400.478 238.35 398.446 241.552C395.201 246.666 394.315 251.453 389.513 255.632C383.926 260.493 379.551 260.246 373.447 264.783C373.364 263.366 376.858 260.244 377.857 259.258C382.344 254.833 386.774 250.538 390.482 245.409C392.637 242.429 394.206 238.947 396.533 236.119C398.827 233.332 402.533 231.333 404.126 228.029C404.944 226.333 404.798 224.618 404.311 222.844C402.342 215.667 394.643 211.987 393.651 209.188Z" fill="#D86F56"/>
<path d="M412.092 226.74C412.587 228.523 413.018 230.032 413.345 231.851C410.992 232.276 409.348 232.243 406.958 232.18C408.218 230.515 410.469 228.855 412.092 226.74Z" fill="#AFA293"/>
<path d="M359.528 239.483C367.853 251.01 359.035 257.379 350.419 263.725C350.185 263.867 349.952 264.011 349.718 264.154C351.229 257.523 353.927 250.332 355.227 244.001C357.614 246.825 358.18 247.372 361.23 249.39C360.894 243.833 360.605 244.332 359.528 239.483Z" fill="#D86F56"/>
<path d="M347.321 280.287C345.914 278.092 344.386 275.86 345.731 273.155C346.243 272.102 347.177 271.313 348.302 270.985C351.412 270.06 354.691 273.222 355.423 275.945C353.299 277.456 349.942 280.058 347.321 280.287Z" fill="#F6AC88"/>
<path d="M377.546 206.665C378.866 206.57 381.529 206.339 382.795 206.671C381.277 206.902 379.314 210.414 377.968 211.771C377.649 210.195 377.255 208.248 377.546 206.665Z" fill="#AFA293"/>
<path d="M503.315 166.395L503.7 165.541C504.287 166.205 504.622 172.247 504.74 173.587C505.298 180.374 506.191 187.13 507.417 193.829C509.889 207.555 514.208 224.753 531.07 226.001C537.583 226.483 543.437 223.684 548.814 220.307V270.399L548.472 270.326C542.416 267.392 533.517 262.152 527.503 258.753C516.688 252.64 504.78 246.375 494.191 240.018C495.009 236.304 495.7 231.679 496.352 227.849C498.238 216.875 499.776 205.843 500.965 194.771C501.913 185.998 503.096 175.196 503.315 166.395Z" fill="#AAA9A9"/>
<path d="M438.332 209.207C444.233 211.706 451.32 216.438 457.275 219.235C449.53 224.863 441.094 230.186 433.309 235.919C430.937 237.665 423.696 242.974 421.411 243.977C420.486 243.652 419.35 243.289 418.459 242.93C415.606 244.81 408.947 249.533 407.049 252.093C402.727 257.923 400.136 264.149 394.25 269.061C387.427 274.756 375.892 278.174 369.033 283.537C369.115 284.748 369.699 285.019 369.444 286.284C367.963 288.655 363.873 287.126 362.3 289.006C362.217 290.104 362.275 291.494 361.336 292.041C359.75 292.963 356.401 293.268 354.62 293.451C354.461 293.214 354.164 293.028 353.917 292.833C353.133 292.158 351.414 290.252 350.531 289.855C349.594 289.433 350.776 290.66 349.084 289.72C348.103 289.086 344.101 287.564 342.773 286.98L343.73 283.914C344.041 282.61 344.711 281.383 344.743 280.008C345.729 280.073 346.352 280.121 347.321 280.287C349.942 280.059 353.299 277.457 355.423 275.945C357.548 274.798 359.723 273.623 361.979 272.768C362.384 272.275 367.113 269.62 368.061 268.982C370.074 267.627 371.666 266.586 373.447 264.784C379.551 260.247 383.926 260.493 389.513 255.632C394.315 251.454 395.201 246.666 398.446 241.552C400.478 238.351 404.14 234.811 406.958 232.18C409.348 232.244 410.991 232.276 413.345 231.851C414.106 231.524 418.848 226.361 419.859 225.356C424.028 225.682 425.73 224.008 428.216 221.03C431.537 217.053 434.888 213.077 438.332 209.207Z" fill="#BBCBEF"/>
<path d="M361.979 272.768C365.374 273.328 368.407 275.603 368.616 279.239C367.857 281.941 363.742 282.015 361.4 282.748C361.375 283.375 361.381 284.029 361.271 284.639C359.092 287.222 355.23 286.338 351.976 286.278C351.663 287.34 351.597 288.088 350.736 288.712C350.247 288.844 349.756 288.968 349.263 289.085L349.084 289.719C348.103 289.086 344.101 287.564 342.773 286.98L343.73 283.914C344.041 282.609 344.711 281.383 344.743 280.008C345.729 280.073 346.352 280.12 347.321 280.287C349.942 280.059 353.299 277.456 355.423 275.945C357.548 274.797 359.723 273.623 361.979 272.768Z" fill="#D86F56"/>
<path d="M343.73 283.914C345.057 284.039 347.396 284.253 348.468 284.989C349.936 287.134 349.024 286.966 349.263 289.085L349.084 289.719C348.103 289.086 344.101 287.564 342.773 286.98L343.73 283.914Z" fill="#E18F68"/>
<path d="M352.61 283.508C354.475 283.482 357.499 282.933 359.205 283.361C360.326 283.642 359.025 284.048 361.271 284.639C359.092 287.222 355.23 286.337 351.976 286.277C352.024 285.423 352.378 284.363 352.61 283.508Z" fill="#E18F68"/>
<path d="M366.085 278.213C367.146 278.774 367.465 279.015 368.616 279.238C367.857 281.94 363.741 282.014 361.4 282.747C361.383 281.73 361.42 280.61 361.432 279.584C363.019 279.06 364.473 278.652 366.085 278.213Z" fill="#E18F68"/>
<path d="M294.602 254.047C295.389 255.541 296.316 257.816 297.694 258.656C298.796 260.947 300.919 262.045 303.414 261.361C306.279 260.035 305.279 257.149 306.566 256.162L309.186 255.999C309.988 255.77 310.335 255.437 311 254.946C311.768 255.943 319.504 262.619 320.52 263.228C323.664 268.514 324.754 269.825 326.201 275.779C325.501 277.859 325.869 279.693 327.199 281.455C328.107 282.028 328.774 282.329 329.35 283.21L329.294 283.658L328.787 284.002C329.75 285.153 330.586 285.667 331.604 286.658C332.817 285.731 333.882 287.439 334.62 288.365L335.465 288.964C335.336 289.922 335.089 291.228 335.21 292.153C337.091 293.393 337.511 293.617 339.811 293.996C341.686 291.717 342.085 289.756 342.774 286.98C344.101 287.564 348.103 289.086 349.084 289.719C350.776 290.66 349.594 289.433 350.531 289.854C351.415 290.252 353.133 292.157 353.917 292.833C354.164 293.027 354.461 293.214 354.62 293.451C355.621 294.618 357.215 295.631 358.438 296.733C361.239 299.254 364.12 301.756 366.929 304.265C368.501 305.669 371.225 307.701 372.546 309.078C371.499 310.276 367.106 315.431 366.037 316.021C365.245 317.087 362.599 320.51 361.657 321.245C360.108 323.32 358.654 326.05 356.759 327.377C359.432 331.696 360.089 332.146 355.134 335.584C355.717 335.668 356.438 335.736 356.983 335.909C356.586 336.501 356.483 336.509 356.485 337.195C355.689 337.237 355.375 337.217 354.603 337.476C355.7 337.878 356.235 337.864 356.867 338.68C356.835 339.414 356.84 339.433 356.632 340.134L357.465 341.728C359.194 343.407 360.4 343.537 362.81 343.651L362.383 344.391C364.635 344.275 366.864 344.124 369.104 343.92C370.767 343.769 375.095 342.632 376.347 343.227C374.643 344.185 369.337 347.161 372.265 349.714C373.324 350.49 373.563 350.588 374.793 351.066C371.875 352.479 367.965 353.924 364.873 355.152C359.362 357.369 353.83 359.532 348.277 361.642L319.273 372.917L307.481 377.442C305.369 378.257 301.485 379.691 299.61 380.775C298.171 379.834 293.23 375.034 291.644 373.59L275.997 359.151C272.991 356.336 269.773 353.131 266.689 350.456L264.406 348.29C263.31 348.358 263.263 348.376 262.328 347.866C261.405 346.998 260.288 345.747 259.132 345.722L258.788 344.377C258.166 343.883 258.124 343.841 257.415 343.498C256.589 342.753 255.709 341.832 254.913 341.038C254.734 339.643 253.74 339.147 252.538 338.764C251.819 338.212 251.779 338.237 251.306 337.422C252.055 337.712 252.601 338.509 253.134 338.433L253.135 338.236L252.991 338.438L252.833 338.298L253.071 337.867L252.929 337.638C252.759 337.36 252.812 337.477 252.729 337.254C251.547 336.195 250.352 335.152 249.143 334.124L247.749 334.157C245.69 332.219 243.654 330.256 241.641 328.27L242.097 327.471L240.187 325.761C232.24 318.06 223.891 310.666 216.007 302.943C214.853 301.894 210.528 298.154 210.21 297.038C211.794 297.626 213.836 298.488 215.49 298.64C219.047 299.216 224.663 297.446 228.507 296.828C234.107 296.582 237.546 295.211 242.101 292.281C246.409 292.128 249.89 292.766 253.798 290.23L254.193 289.758L254.723 290.336C257.697 290.343 258.406 289.538 259.796 287.04L259.744 286.533C258.851 282.68 256.96 281.341 254.214 278.662C255.405 277.419 255.393 277.381 255.226 275.737L254.17 270.63C255.289 270.039 261.146 268.425 262.818 267.877L286.023 260.138C286.748 260.322 286.952 260.446 287.692 260.219C289.812 261.56 291.143 262.026 293.329 260.463C294.454 259.229 294.454 255.855 294.602 254.047Z" fill="#FDFEFD"/>
<path d="M356.632 340.135L357.464 341.728C359.193 343.408 360.4 343.538 362.81 343.652L362.383 344.391C358.301 345.282 347.772 349.772 343.504 351.432C329.017 356.989 314.594 362.708 300.236 368.589C298.801 367.08 297.091 365.515 295.57 364.083L337.065 347.793C340.794 346.336 344.535 344.912 348.289 343.519C350.653 342.646 354.543 341.328 356.632 340.135Z" fill="#F0BB56"/>
<path d="M335.913 301.427C336.087 301.48 336.26 301.533 336.433 301.585C338.329 299.972 344.011 299.374 345.971 297.85C346.082 298.921 346.834 299.894 347.425 300.85C324.528 308.936 301.814 318.241 279.051 326.725C273.62 328.75 268.204 331.033 262.767 333.006C261.93 332.317 261.1 331.667 260.332 330.901L297.836 316.572C302.325 314.875 306.83 313.08 311.316 311.368C311.408 311.333 311.67 310.495 311.708 310.371C312.828 310.021 314.353 310.111 314.779 309.716C315.355 309.183 315.421 308.846 316.326 308.567C316.843 308.828 316.714 308.747 317.192 309.126C318.344 308.417 318.789 307.543 319.839 307.212C321.47 307.76 320.96 307.398 322.515 306.672C323.166 306.368 325.532 304.759 326.104 304.844C327.872 305.106 327.722 305.862 328.814 303.738C329.644 303.343 329.689 303.468 330.498 304.038C332.25 302.658 331.599 301.996 334.12 302.454L335.009 301.859C335.709 301.729 335.404 301.853 335.913 301.427Z" fill="#F0BB56"/>
<path d="M254.193 289.758L254.723 290.336C256.228 292.234 257.798 294.409 259.803 295.752L264.15 298.679C261.351 299.138 256.744 297.29 254.271 296.061C249.319 296.738 246.135 298.442 241.584 299.963C234.075 302.471 223.961 303.639 216.007 302.943C214.853 301.894 210.528 298.154 210.21 297.038C211.794 297.626 213.836 298.488 215.49 298.64C219.047 299.216 224.663 297.446 228.507 296.828C234.107 296.582 237.546 295.211 242.101 292.281C246.409 292.128 249.89 292.766 253.798 290.23L254.193 289.758Z" fill="#CCDDF8"/>
<path d="M279.67 349.144C287.622 346.337 296.632 342.604 304.59 339.506L350.045 322.185C355.207 320.245 360.972 317.829 366.037 316.021C365.244 317.087 362.599 320.51 361.656 321.244C359.96 320.628 290.432 348.264 281.801 351.426C281.133 350.671 280.364 349.885 279.67 349.144Z" fill="#F0BB56"/>
<path d="M331.604 286.658C332.816 285.731 333.881 287.439 334.62 288.365C332.721 288.671 329.272 290.163 327.374 290.902C323.474 292.434 319.564 293.943 315.646 295.427C293.519 303.659 271.439 312.017 249.406 320.502C248.751 319.85 248.055 319.079 247.412 318.4C257.032 314.369 268.397 310.371 278.236 306.64C295.96 299.806 313.75 293.145 331.604 286.658Z" fill="#F0BB56"/>
<path d="M255.486 326.226C261.094 324.64 268.929 321.213 274.639 319.068L316.302 303.173C319.392 301.973 332.736 296.51 335.059 296.193C335.011 296.991 334.873 298.473 334.924 299.21C328.038 301.004 317.276 305.848 310.319 308.502L257.781 328.517L255.486 326.226Z" fill="#F0BB56"/>
<path d="M327.199 281.455C328.107 282.028 328.774 282.329 329.35 283.21L329.294 283.658L328.787 284.002C327.278 284.157 321.294 286.636 319.566 287.275C309.483 290.974 299.434 294.765 289.421 298.648C288.682 297.909 287.877 297.227 287.092 296.537C290.524 295.046 294.684 293.663 298.213 292.31C307.821 288.629 317.633 285.227 327.199 281.455Z" fill="#F0BB56"/>
<path d="M342.773 286.979C344.1 287.564 348.102 289.086 349.083 289.719C350.775 290.659 349.593 289.433 350.53 289.854C351.414 290.252 353.132 292.157 353.916 292.833C350.559 293.238 345.265 292.731 342.574 293.63C340.926 293.293 341.353 294.112 339.894 294.349L339.811 293.995C341.685 291.717 342.084 289.756 342.773 286.979Z" fill="#CCDDF8"/>
<path d="M356.758 327.377C359.431 331.696 360.088 332.146 355.133 335.584L353.785 336.227C352.997 335.283 352.455 334.107 351.22 334.537C350.805 331.881 354.861 328.872 356.758 327.377Z" fill="#F6AC88"/>
<path d="M259.796 287.04C260.969 288.601 262.971 291.104 263.784 292.799C262.039 293.84 261.268 294.932 259.803 295.752C257.798 294.409 256.228 292.234 254.723 290.336C257.696 290.343 258.406 289.538 259.796 287.04Z" fill="#25282B"/>
<path d="M335.21 292.152C337.091 293.393 337.51 293.616 339.811 293.995L339.895 294.349L339.875 294.491C339.107 295.665 338.488 296.239 337.866 297.132C337.106 298.627 336.232 298.535 335.947 300.27L335.912 301.427C335.403 301.852 335.708 301.728 335.008 301.859L334.924 299.21C334.873 298.472 335.011 296.99 335.059 296.193C335.178 294.714 335.205 293.625 335.21 292.152Z" fill="#AAA9A9"/>
<path d="M263.783 292.799C264.37 294.077 266.908 299.178 266.848 300.24C266.1 300.18 265.004 299.197 264.149 298.679L259.803 295.752C261.268 294.931 262.039 293.839 263.783 292.799Z" fill="#434343"/>
<path d="M339.894 294.349C341.353 294.112 340.926 293.293 342.574 293.63C343.093 294.183 344.051 295.072 344.255 295.725C341.336 297.479 338.398 298.003 335.946 300.27C336.232 298.535 337.106 298.627 337.866 297.132C338.488 296.239 339.107 295.665 339.875 294.491L339.894 294.349Z" fill="#F0BB56"/>
<path d="M339.875 294.491L340.391 294.975C340.453 297.034 339.518 297.082 337.866 297.133C338.488 296.239 339.107 295.666 339.875 294.491Z" fill="#C9CBD2"/>
<path d="M251.306 337.421C252.054 337.712 252.6 338.509 253.133 338.433L253.134 338.236L252.99 338.438L252.832 338.297L253.07 337.867L252.928 337.638C252.758 337.36 252.811 337.477 252.728 337.254C254.42 338.837 256.902 341.011 258.439 342.615L258.22 343.203C258.538 343.715 258.663 343.793 258.787 344.376C258.166 343.883 258.123 343.841 257.414 343.498C256.588 342.753 255.708 341.832 254.912 341.037C254.733 339.643 253.739 339.146 252.537 338.764C251.818 338.211 251.778 338.237 251.306 337.421Z" fill="#BBCBEF"/>
<path d="M242.097 327.471C244.459 329.675 246.808 331.893 249.144 334.124L247.75 334.157C245.691 332.219 243.654 330.256 241.642 328.27L242.097 327.471Z" fill="#BBCBEF"/>
<path d="M258.438 342.614C260.161 344.219 262.869 346.633 264.405 348.289C263.309 348.357 263.262 348.376 262.327 347.866C261.404 346.997 260.287 345.747 259.132 345.721L258.787 344.376C258.663 343.793 258.538 343.715 258.22 343.203L258.438 342.614Z" fill="#BBCBEF"/>
<path d="M355.133 335.583C355.716 335.667 356.438 335.735 356.983 335.908C356.585 336.5 356.482 336.508 356.484 337.194C355.688 337.237 355.374 337.216 354.602 337.475L353.402 337.204L353.786 336.226L355.133 335.583Z" fill="#D27C5F"/>
<path d="M345.97 297.85C347.151 298.226 348.694 298.75 348.564 300.196C348.047 300.575 348.013 300.594 347.424 300.85C346.833 299.894 346.08 298.921 345.97 297.85Z" fill="#C9CBD2"/>
<path d="M351.221 334.537C352.455 334.107 352.998 335.282 353.786 336.226L353.403 337.205C352.165 336.392 351.763 335.898 351.221 334.537Z" fill="#E18F68"/>
<path d="M361.076 311.437C361.708 311.651 362.977 313.042 363.552 313.601C353.722 317.029 343.331 321.35 333.519 325.104C314.82 332.184 296.16 339.366 277.539 346.648C276.398 346.594 275.54 345.348 274.8 344.53C303.345 333.403 332.69 322.804 361.076 311.437Z" fill="#F0BB56"/>
<path d="M355.716 307.115L356.319 307.049C357.181 307.373 357.894 308.416 358.523 309.157C348.857 312.296 335.967 317.701 326.331 321.42L272.786 342.038L272.334 342.118C271.506 341.7 270.713 340.72 270.054 340.018C280.304 336.343 291.605 331.732 301.767 327.753L331.256 316.5C339.387 313.315 347.541 310.187 355.716 307.115Z" fill="#F0BB56"/>
<path d="M351.021 302.549C351.909 302.677 352.931 303.994 353.593 304.695C332.849 312.414 312.161 320.283 291.531 328.299C283.708 331.302 275.605 334.637 267.748 337.438C266.947 337.423 265.94 336.043 265.202 335.283C273.465 332.437 281.435 329.059 289.608 325.997L351.021 302.549Z" fill="#F0BB56"/>
<path d="M341.447 337.767C342.302 337.837 343.329 339.181 343.957 339.854C339.026 342.096 331.684 344.684 326.459 346.734L291.879 360.289L291.611 360.366C290.83 360.081 289.948 359.014 289.329 358.378C301.48 353.488 313.659 348.667 325.865 343.916C330.965 341.916 336.449 339.923 341.447 337.767Z" fill="#F0BB56"/>
<path d="M311.481 266.859C312.369 267.279 312.981 268.114 313.649 268.861C309.621 270.036 303.702 272.495 299.679 274.041C291.256 277.336 282.784 280.503 274.264 283.541C273.662 283.149 272.619 282.043 272.059 281.491C280.249 278.555 288.414 275.545 296.552 272.465C301.485 270.619 306.626 268.854 311.481 266.859Z" fill="#F0BB56"/>
<path d="M321.663 276.681C322.692 276.697 323.803 277.946 324.646 278.693C322.158 279.798 317.727 281.228 315.088 282.174C308.996 284.335 302.94 286.594 296.922 288.951C296.824 288.975 296.382 288.932 296.261 288.924C295.437 288.229 295.139 287.861 294.43 287.03C302.915 283.326 313.561 280.44 321.663 276.681Z" fill="#F0BB56"/>
<path d="M204.731 294.846L207.076 295.963C208.107 296.315 209.191 296.666 210.209 297.038C210.528 298.154 214.852 301.894 216.007 302.943C223.89 310.666 232.24 318.06 240.187 325.761L242.096 327.471L241.641 328.27C243.653 330.256 245.69 332.219 247.749 334.157L249.143 334.125C250.351 335.153 251.546 336.196 252.728 337.254C252.812 337.477 252.758 337.36 252.928 337.638L253.07 337.867L252.832 338.298L252.991 338.439L253.134 338.236L253.133 338.434C252.6 338.509 252.054 337.712 251.306 337.422C251.778 338.237 251.818 338.212 252.537 338.764C253.739 339.147 254.733 339.643 254.912 341.038C255.708 341.832 256.589 342.753 257.414 343.498C258.124 343.841 258.166 343.883 258.787 344.377L259.132 345.722C260.288 345.747 261.404 346.998 262.328 347.867C263.262 348.377 263.309 348.358 264.406 348.29L266.689 350.456C269.773 353.131 272.991 356.336 275.996 359.151L291.643 373.59C293.23 375.034 298.17 379.834 299.61 380.775C301.484 379.691 305.369 378.257 307.481 377.442L319.273 372.917L348.277 361.642C353.83 359.533 359.362 357.369 364.873 355.153C367.965 353.924 371.874 352.479 374.792 351.066L375.359 351.296L375.185 351.538C376.538 351.565 376.523 351.705 377.505 352.567C378.981 353.861 381.049 355.138 382.797 356.033C382.599 356.382 382.499 356.552 382.27 356.889C380.801 357.18 375.295 359.515 373.557 360.186L350.594 369.097L301.61 387.294C295.776 389.508 289.547 391.636 283.841 394.048C280.857 391.423 277.419 387.83 274.562 384.982C268.559 379 262.587 372.986 256.646 366.942L212.726 323.411C205.47 316.203 198.526 308.789 191.104 301.709L189.373 300.183C191.17 299.116 195.64 297.968 197.81 297.352L197.739 297.173C199.691 296.958 202.856 295.586 204.731 294.846Z" fill="#FDFEFD"/>
<path d="M264.843 350.187C265.895 350.884 266.658 351.671 267.643 352.435L267.655 352.023L267.967 352.578C267.861 351.769 267.119 351.205 266.69 350.456C269.773 353.13 272.991 356.336 275.997 359.151L291.644 373.589C293.23 375.034 298.171 379.834 299.61 380.774C301.485 379.691 305.369 378.257 307.481 377.442L319.273 372.916L348.277 361.641C353.83 359.532 359.362 357.369 364.873 355.152C367.966 353.923 371.875 352.478 374.793 351.065L375.36 351.295L375.186 351.537L320.983 373.438C314.114 376.26 305.356 379.528 298.828 382.626C297.909 381.654 294.434 378.452 294.119 377.763C293.415 376.747 290.362 373.701 289.148 373.476C287.57 371.848 286.561 370.932 284.808 369.49C284.289 368.147 283.7 367.419 282.214 367.259C279.647 364.763 277.106 362.241 274.591 359.692C274.111 359.017 272.846 357.999 272.137 357.292L269.632 355.047C269.678 354.744 269.663 354.35 269.666 354.032C269.015 353.136 268.36 353.099 267.287 352.88C266.302 351.927 265.627 351.334 264.843 350.187Z" fill="#BBCBEF"/>
<path d="M289.148 373.477C290.362 373.701 293.415 376.747 294.119 377.764C291.261 378.693 287.998 379.994 285.151 381.063C283.735 379.61 282.348 378.128 280.991 376.618C283.687 375.512 286.407 374.465 289.148 373.477Z" fill="#C1C0C0"/>
<path d="M204.731 294.846L207.077 295.963C208.49 297.235 213.619 301.497 214.399 302.502C208.371 301.737 203.17 298.883 197.811 297.352L197.739 297.173C199.692 296.958 202.857 295.586 204.731 294.846Z" fill="#CCDDF8"/>
<path d="M207.076 295.963C208.107 296.315 209.191 296.666 210.209 297.038C210.528 298.154 214.852 301.893 216.007 302.943C223.89 310.666 232.24 318.06 240.187 325.761L239.251 326.101C237.699 324.524 231.135 317.91 229.573 317.121L228.693 317.795C227.962 317.874 228.301 317.946 227.684 317.454C227.799 316.573 228.131 317.425 229.016 316.648C226.876 314.132 217.149 304.742 214.398 302.502C213.619 301.497 208.49 297.235 207.076 295.963Z" fill="#BBCBEF"/>
<path d="M262.327 347.866C263.262 348.376 263.309 348.358 264.405 348.29L266.689 350.456C267.118 351.205 267.86 351.769 267.967 352.579L267.654 352.023L267.642 352.435C266.657 351.671 265.894 350.884 264.842 350.187C262.628 350.868 259.071 352.336 256.754 353.172C256.073 352.478 255.361 351.66 254.699 350.935C257.134 349.879 259.842 348.877 262.327 347.866Z" fill="#C9CBD2"/>
<path d="M249.143 334.124C250.351 335.152 251.546 336.195 252.728 337.254C252.812 337.477 252.758 337.36 252.928 337.638L253.07 337.867L252.832 338.297L252.991 338.438L253.134 338.235L253.133 338.433C252.6 338.509 252.054 337.712 251.306 337.421C251.2 337.337 250.58 336.841 250.441 336.792C249.073 336.312 244.248 338.512 242.886 339.039L240.591 336.825C242.504 336.215 246.058 335.064 247.749 334.156L249.143 334.124Z" fill="#C9CBD2"/>
<path d="M282.214 367.26C283.7 367.42 284.289 368.147 284.808 369.491C282.458 370.279 279.11 371.724 276.77 372.677L274.459 370.376C276.671 369.369 279.884 368.215 282.214 367.26Z" fill="#C1C0C0"/>
<path d="M267.286 352.88C268.359 353.099 269.014 353.136 269.666 354.033C269.662 354.35 269.677 354.744 269.631 355.047C267.234 355.718 263.966 357.061 261.48 357.909L259.455 355.852C261.729 354.668 264.818 353.684 267.286 352.88Z" fill="#C1C0C0"/>
<path d="M272.135 357.292C272.844 357.999 274.11 359.017 274.59 359.692C271.956 360.515 268.934 361.732 266.309 362.728C265.498 361.713 265.065 361.353 264.102 360.497C266.768 359.334 269.316 358.599 272.135 357.292Z" fill="#C1C0C0"/>
<path d="M252.538 338.764C253.739 339.146 254.734 339.643 254.913 341.037C252.487 341.816 249.864 342.848 247.348 343.674C246.657 342.812 246.118 342.268 245.339 341.477C247.538 340.712 250.479 339.726 252.538 338.764Z" fill="#C1C0C0"/>
<path d="M240.187 325.761L242.096 327.47L241.641 328.269C239.745 328.799 236.872 330.008 234.961 330.748L232.65 328.489C235.041 327.718 236.925 327.019 239.251 326.101L240.187 325.761Z" fill="#C1C0C0"/>
<path d="M257.415 343.498C258.124 343.841 258.166 343.883 258.788 344.377L259.132 345.722C256.767 346.632 254.391 347.512 252.004 348.361C251.489 347.733 250.541 346.864 249.938 346.275C251.933 345.346 255.257 344.267 257.415 343.498Z" fill="#C1C0C0"/>
<path d="M548.813 322.007V335.018V341.259C545.62 341.303 542.572 342.793 539.338 343.696C535.642 343.512 531.57 344.363 527.873 344.742C522.369 345.306 494.374 347.986 490.723 347.039C489.058 346.607 487.718 344.955 486.542 343.774C483.4 344.034 479.608 344.552 476.534 344.535C473.671 344.519 470.933 343.207 467.788 343.593C464.21 344.032 461.186 345.413 457.801 346.545C454.989 347.457 452.105 348.127 449.179 348.546C436.49 350.318 425.137 348.962 412.674 349.548C399.877 350.149 389.26 352.677 376.035 351.302C378.666 351.092 382.257 350.126 384.643 349.006C390.204 347.561 395.941 343.592 401.859 342.632C416.919 340.19 432.389 342.721 447.55 340.174C450.419 339.583 454.245 338.711 456.842 337.351C461.455 334.935 463.569 333.81 468.858 333.281C470.058 333.074 471.245 333.036 472.461 332.963C472.598 334.492 472.646 335.467 472.636 337.006C472.945 337.491 473.123 337.919 473.86 337.975C477.794 338.275 482.808 337.036 486.673 336.778C487.926 336.603 488.043 336.717 488.688 335.98C488.993 334.662 488.485 332.458 488.343 330.96C488.79 330.356 489.753 330.555 490.542 330.547C496.854 330.485 503.262 329.61 509.513 328.799C522.702 327.082 535.813 324.816 548.813 322.007Z" fill="#BBCBEF"/>
<path d="M548.813 322.007V335.018C534.78 336.889 520.708 338.458 506.606 339.723C501.548 340.149 496.429 340.645 491.356 340.654C489.005 340.658 487.531 338.806 486.673 336.778C487.927 336.603 488.043 336.717 488.689 335.98C488.993 334.662 488.485 332.458 488.343 330.96C488.79 330.356 489.753 330.555 490.542 330.547C496.854 330.485 503.262 329.61 509.513 328.799C522.702 327.082 535.814 324.816 548.813 322.007Z" fill="#AAA9A9"/>
<path d="M472.461 332.964C472.598 334.492 472.646 335.468 472.636 337.007C471.534 335.602 470.19 334.464 468.858 333.281C470.058 333.075 471.245 333.037 472.461 332.964Z" fill="#C1C0C0"/>
<path d="M40.7994 135.522C41.7934 139.583 43.4218 144.924 44.6684 148.966C47.9324 159.55 52.058 173.585 58.2421 182.865C62.1019 188.658 72.2915 196.866 77.6429 201.458C85.5438 208.237 93.8537 214.668 102.008 221.112C112.848 229.724 123.819 238.17 134.916 246.448C141.314 251.218 149.487 257.381 156.216 261.45L156.585 261.672C156.77 260.206 157.192 258.079 158.065 256.851C159.755 258.168 161.207 259.324 162.807 260.742C163.843 261.56 167.134 264.268 168.291 264.499L168.472 264.362C168.471 262.28 168.749 261.733 169.446 259.797C170.369 260.362 172.729 261.723 173.485 262.308C175.012 263.442 175.711 264.007 177.066 265.332C178.704 268.061 181.098 271.099 182.879 273.784C190.449 285.191 192.833 288.239 204.731 294.846C202.856 295.586 199.691 296.957 197.739 297.173C188.967 293.498 180.2 278.294 173.697 271.718C171.4 269.394 167.384 269.182 163.182 265.749C161.09 266.572 159.992 266.889 157.813 267.356C155.181 266.146 151.542 263.458 149.042 261.713L136.092 252.646C118.013 240.15 99.9135 227.795 82.4173 214.454C72.7138 207.055 60.459 198.157 51.9254 189.541C45.1466 182.697 38.3222 171.008 33.8135 162.515V136.771L40.7994 135.522Z" fill="#BBCBEF"/>
<path d="M158.065 256.852C159.754 258.169 161.206 259.324 162.807 260.743C161.053 261.382 158.413 262.066 156.585 261.672C156.77 260.206 157.192 258.08 158.065 256.852Z" fill="#293A4E"/>
<path d="M169.446 259.797C170.369 260.362 172.728 261.723 173.484 262.308C171.802 263.093 170.241 263.769 168.472 264.362C168.471 262.28 168.749 261.733 169.446 259.797Z" fill="#AAA9A9"/>
<path d="M191.372 302.802C190.425 302.02 189.655 301.483 188.94 300.482L189.373 300.184L191.105 301.709C198.526 308.789 205.471 316.203 212.726 323.411L256.647 366.942C262.587 372.987 268.56 379 274.563 384.983C277.419 387.831 280.858 391.423 283.841 394.048C289.547 391.636 295.776 389.508 301.611 387.294L350.595 369.098L373.558 360.186C375.295 359.516 380.802 357.18 382.27 356.889C381.271 358.112 375.521 360.027 373.731 360.715L359.844 366.092L308.066 386.465C300.206 389.603 290.989 392.824 283.478 396.418C277.096 390.587 269.995 382.922 263.802 376.636C252.106 364.929 240.505 353.128 229 341.233L203.967 315.578C200.265 311.809 194.622 306.594 191.372 302.802Z" fill="#BBCBEF"/>
<path d="M94.2011 344.553C96.5518 343.409 103.341 341.376 106.079 340.478C113.848 337.849 121.645 335.305 129.47 332.847C137.781 330.188 146.025 327.238 154.374 324.679C157.97 323.576 162.062 322.119 165.699 321.281C168.005 322.643 174.185 329.763 176.246 332.017L196.128 354.025C205.526 364.413 215.009 374.727 224.497 385.033C225.226 385.824 225.959 386.496 225.715 387.624C224.877 389.867 221.894 389.157 220.409 390.641C220.5 391.199 220.418 390.988 220.567 391.302C220.976 391.636 221.218 391.74 221.443 392.152C221.699 395.362 220.242 394.398 217.777 395.887C218.538 396.499 219.444 397.074 219.819 397.941C219.662 398.754 219.561 398.736 218.73 399.175L218.551 400.054L218.974 400.235L218.508 400.475C219.02 400.817 218.821 400.732 219.421 400.897L219.649 401.429L220.01 401.847C219.731 402.473 219.421 402.636 218.674 402.948C212.561 405.506 206.366 408.055 200.238 410.563C186.606 415.992 173.036 421.574 159.53 427.309C159.142 426.733 158.447 425.625 158.046 425.123C155.729 425.875 152.361 427.364 149.863 427.358C149.069 427.356 148.451 426.573 147.91 425.912C144.877 422.208 141.926 418.472 138.842 414.803L116.712 388.625C108.047 378.249 97.2946 366.192 89.208 355.637C90.3004 354.988 91.0336 354.675 92.1823 354.167C91.5667 350.744 91.7528 347.239 94.2011 344.553Z" fill="#35475D"/>
<path d="M94.2011 344.553L132.478 390.163C136.92 395.45 141.416 400.693 145.964 405.891C147.536 407.699 150.604 411.44 152.228 413.003C175.763 403.811 201.189 396.024 225.064 387.084C225.599 387.368 225.39 387.179 225.715 387.624C224.877 389.867 221.894 389.157 220.409 390.641C220.5 391.199 220.418 390.988 220.567 391.302C220.976 391.636 221.218 391.74 221.443 392.152C221.699 395.362 220.242 394.398 217.777 395.887C218.538 396.499 219.444 397.074 219.819 397.941C219.662 398.753 219.561 398.736 218.73 399.175L218.551 400.054L218.974 400.235L218.508 400.475C219.02 400.816 218.821 400.732 219.421 400.896L219.649 401.429L220.01 401.847C219.731 402.473 219.421 402.636 218.674 402.948C212.561 405.506 206.366 408.055 200.238 410.563C186.606 415.992 173.036 421.574 159.53 427.309C159.142 426.733 158.447 425.625 158.046 425.123C155.729 425.875 152.361 427.364 149.863 427.358C149.069 427.356 148.451 426.573 147.91 425.912C144.877 422.208 141.926 418.472 138.842 414.803L116.712 388.624C108.047 378.249 97.2946 366.192 89.208 355.637C90.3004 354.988 91.0336 354.675 92.1823 354.167C91.5667 350.744 91.7528 347.239 94.2011 344.553Z" fill="#293A4E"/>
<path d="M217.777 395.888C218.538 396.5 219.443 397.074 219.819 397.941C219.662 398.754 219.561 398.737 218.73 399.175L218.551 400.054L218.974 400.235L218.507 400.475C219.019 400.817 218.821 400.732 219.421 400.897L219.649 401.429L220.01 401.847C219.731 402.474 219.421 402.637 218.674 402.949C212.561 405.507 206.366 408.056 200.238 410.563C186.606 415.992 173.035 421.574 159.529 427.309C159.142 426.733 158.447 425.625 158.045 425.123C157.529 424.355 157.596 424.323 157.591 423.422L157.193 423.431L156.367 422.748C154.672 420.635 152.714 418.701 151.197 416.427L151.989 414.965C152.886 414.285 152.93 414.227 153.987 413.911L155.157 413.433C156.636 414.899 158.213 416.876 159.549 418.509C164.205 416.495 169.642 414.594 174.385 412.809C184.535 409.073 194.639 405.214 204.696 401.234C207.868 399.957 215.033 397.352 217.777 395.888Z" fill="#CCDDF8"/>
<path d="M217.776 395.888C218.538 396.5 219.443 397.074 219.818 397.941C219.661 398.754 219.561 398.737 218.729 399.175C217.265 398.617 204.05 404.152 201.821 405.028L183.54 412.117L165.618 418.941C164.115 419.52 161.185 420.401 159.892 421.084C157.908 418.657 155.755 416.542 153.986 413.911L155.157 413.433C156.636 414.899 158.213 416.876 159.549 418.509C164.204 416.495 169.642 414.594 174.385 412.809C184.535 409.073 194.639 405.214 204.696 401.234C207.868 399.957 215.032 397.352 217.776 395.888Z" fill="#CCDDF8"/>
<path d="M219.648 401.429L220.01 401.847C219.73 402.473 219.42 402.636 218.673 402.948C212.56 405.506 206.365 408.055 200.237 410.562C186.606 415.992 173.035 421.574 159.529 427.308C159.141 426.733 158.446 425.625 158.045 425.122C157.529 424.354 157.595 424.322 157.59 423.421L157.879 423.361C158.591 424.091 159.308 424.816 160.032 425.534C161.677 424.995 163.238 424.357 164.846 423.726C180.899 417.423 196.797 410.737 212.745 404.189C215.041 403.247 217.404 402.51 219.648 401.429Z" fill="url(#paint2_linear_15630_38448)"/>
<path d="M159.892 421.084C161.185 420.401 164.115 419.52 165.617 418.941L183.54 412.117L201.821 405.028C204.05 404.152 217.265 398.617 218.729 399.175L218.55 400.054L218.01 399.746C214.835 400.833 209.853 403.133 206.39 404.476L174.053 416.795C169.335 418.592 164.197 420.902 159.519 422.488L159.146 422.252L159.105 421.87L159.892 421.084Z" fill="#9FBAEB"/>
<path d="M151.989 414.965C152.885 414.285 152.93 414.226 153.986 413.911C155.755 416.541 157.908 418.657 159.892 421.084L159.106 421.87L159.146 422.252L159.52 422.488L159.319 422.53C158.142 422.266 154.567 417.949 153.567 416.822C153.071 416.174 152.529 415.578 151.989 414.965Z" fill="#9FBAEB"/>
<path d="M151.989 414.965C152.529 415.578 153.071 416.174 153.568 416.822L153.153 417.186C153.188 418.962 157.274 421.915 157.88 423.362L157.591 423.422L157.193 423.431L156.367 422.748C154.672 420.635 152.714 418.701 151.197 416.427L151.989 414.965Z" fill="#BBCBEF"/>
<path d="M156.758 412.856C161.915 410.816 168.298 408.76 173.565 406.934L201.98 397.004L214.308 392.601C215.792 392.063 217.595 391.306 219.097 390.908C219.749 390.735 219.885 391.009 220.336 391.364L220.566 391.302C220.975 391.636 221.217 391.74 221.442 392.152C221.698 395.362 220.241 394.398 217.776 395.887C215.032 397.351 207.868 399.957 204.695 401.233C194.639 405.213 184.534 409.072 174.385 412.809C169.641 414.594 164.204 416.494 159.548 418.509C158.213 416.875 156.635 414.898 155.156 413.433L156.758 412.856Z" fill="#CCDDF8"/>
<path d="M220.566 391.302C220.975 391.636 221.217 391.74 221.442 392.152C221.698 395.362 220.241 394.398 217.776 395.887C215.032 397.351 207.868 399.957 204.695 401.234C194.639 405.213 184.534 409.072 174.385 412.809C169.641 414.594 164.204 416.495 159.548 418.509C158.213 416.876 156.635 414.899 155.156 413.433L156.758 412.856C158.001 414.063 159.246 415.345 160.471 416.576C165.206 415.241 172.054 411.887 176.924 410.128C181.567 408.217 186.406 406.802 191.026 404.835C199.766 401.115 208.768 398.079 217.397 394.178C218.592 393.637 220.588 393.709 220.976 392.26L220.336 391.364L220.566 391.302Z" fill="#9FBAEB"/>
<path d="M89.208 355.637C90.3004 354.987 91.0336 354.674 92.1823 354.167C92.4051 355.243 92.5776 356.18 93.2712 357.046C96.2852 360.806 99.4632 364.556 102.563 368.241C108.738 375.477 114.848 382.767 120.894 390.11L139.194 412.294C142.262 416.043 147.394 422.679 150.583 425.86C152.607 425.345 155.476 424.652 157.194 423.43L157.591 423.421C157.596 424.322 157.53 424.354 158.046 425.122C155.729 425.875 152.361 427.364 149.863 427.357C149.069 427.355 148.451 426.573 147.91 425.912C144.877 422.208 141.926 418.472 138.842 414.803L116.712 388.624C108.047 378.248 97.2946 366.192 89.208 355.637Z" fill="#BBCBEF"/>
<path d="M156.368 422.748C154.814 423.247 152.714 423.992 151.16 424.265C149.449 422.989 149.954 417.915 151.198 416.427C152.715 418.701 154.672 420.635 156.368 422.748Z" fill="#35475D"/>
<path d="M212.984 415.006C212.919 414.465 212.934 414.078 213.182 413.579C213.492 412.952 213.977 412.525 214.522 412.104C217.303 409.96 250.195 386.135 251.428 385.866C253.024 385.518 254.565 386.149 255.922 386.929C258.191 388.359 259.708 389.273 262.142 390.483C263.761 391.333 266.906 393.252 268.463 394.199C270.706 395.564 279.99 400.169 280.735 401.932C280.749 402.389 280.778 402.768 280.742 403.219C280.476 404.134 280.534 404.051 279.625 404.731C272.144 410.333 264.594 415.909 257.177 421.595L247.491 429.07C245.916 430.288 243.621 432.279 241.855 433.072C238.679 432.009 214.511 417.763 213.346 415.899C213.184 415.64 213.082 415.29 212.984 415.006Z" fill="#F0BB56"/>
<path d="M212.984 415.006C212.919 414.465 212.934 414.078 213.182 413.579C213.492 412.952 213.977 412.525 214.522 412.104C217.303 409.96 250.195 386.135 251.428 385.866C253.024 385.518 254.565 386.149 255.922 386.929C258.191 388.359 259.708 389.273 262.142 390.483C259.236 393.176 254.071 396.827 250.737 399.316L234.45 411.447C230.55 414.314 225.637 417.807 221.904 420.863C221.093 420.908 216.465 417.697 215.668 416.988C214.942 415.856 214.195 415.545 212.984 415.006Z" fill="#434343"/>
<path d="M212.984 415.006C212.919 414.465 212.934 414.078 213.182 413.579C213.492 412.952 213.977 412.525 214.522 412.104C217.303 409.96 250.195 386.135 251.428 385.866C253.024 385.518 254.565 386.149 255.922 386.929C244.226 395.823 232.275 404.334 220.537 413.167C218.923 414.382 217.17 415.646 215.668 416.988C214.942 415.856 214.195 415.545 212.984 415.006Z" fill="#F0BB56"/>
<path d="M280.743 403.218C280.476 404.133 280.534 404.05 279.625 404.73C272.144 410.331 264.594 415.908 257.178 421.594L247.491 429.068C245.917 430.286 243.621 432.278 241.855 433.07C238.68 432.008 214.512 417.761 213.346 415.897C213.185 415.638 213.082 415.289 212.984 415.005C214.195 415.544 214.942 415.855 215.669 416.986C216.465 417.696 221.094 420.906 221.904 420.862C225.637 422.507 238.669 431.718 241.853 431.573C244.914 431.434 277.38 403.703 280.743 403.218Z" fill="#C9953B"/>
<path d="M250.09 402.948C250.961 403.411 253.077 405.571 253.835 406.321C250.698 408.102 246.274 411.525 243.349 413.75C239.267 416.867 235.167 419.96 231.048 423.029C229.395 421.939 228.344 421.163 226.8 419.923C229.025 418.587 231.434 416.523 233.595 414.983C239.053 411.094 244.556 406.678 250.09 402.948Z" fill="#F9DBA2"/>
<path d="M266.071 399.453C268.878 399.242 274.707 399.502 273.76 404.322C273.478 405.758 271.437 406.774 270.162 407.405C267.085 408.074 261.881 407.068 262.621 402.737C262.921 400.978 264.628 400.252 266.071 399.453Z" fill="#C9953B"/>
<path d="M261.757 393.821C263.46 394.699 264.577 395.364 266.196 396.397C262.928 398.917 259.59 401.392 256.627 404.261C255.081 403.157 253.512 402.131 251.927 401.084C254.446 398.961 258.972 395.862 261.757 393.821Z" fill="#F9DBA2"/>
<path d="M262.418 408.949C263.126 409.427 263.418 409.692 263.669 410.393C256.854 414.933 246.602 422.761 240.168 427.973L239.998 427.972C239.152 427.477 239.407 427.815 239.054 427.059C240.879 424.468 258.941 411.704 262.418 408.949Z" fill="#C9953B"/>
<path d="M259.583 407.355C260.534 407.852 260.345 407.515 260.647 408.238C259.902 409.294 257.434 410.863 256.337 411.825C250.324 417.095 243.503 421.441 237.299 426.403C236.65 426.017 236.663 426.069 236.307 425.413C236.577 424.94 257.523 408.939 259.583 407.355Z" fill="#C9953B"/>
<path d="M221.443 392.152C223.476 393.593 225.287 394.661 225.309 397.407C225.336 397.819 225.5 398.487 225.222 398.762C223.742 400.226 221.258 400.296 219.42 400.897C218.82 400.732 219.019 400.817 218.507 400.475L218.974 400.235L218.55 400.054L218.729 399.175C219.561 398.737 219.661 398.754 219.818 397.941C219.443 397.074 218.538 396.5 217.776 395.888C220.242 394.398 221.698 395.363 221.443 392.152Z" fill="#35475D"/>
<path d="M225.309 397.407C225.336 397.819 225.5 398.487 225.221 398.762C223.742 400.226 221.257 400.296 219.42 400.897C218.82 400.732 219.019 400.817 218.507 400.475L218.974 400.235C220.91 399.447 223.577 398.462 225.309 397.407Z" fill="#C9CBD2"/>
</g>
</g>
<defs>
<filter id="filter0_d_15630_38448" x="0.000343323" y="-0.000264645" width="601.7" height="601.7" filterUnits="userSpaceOnUse" color-interpolation-filters="sRGB">
<feFlood flood-opacity="0" result="BackgroundImageFix"/>
<feColorMatrix in="SourceAlpha" type="matrix" values="0 0 0 0 0 0 0 0 0 0 0 0 0 0 0 0 0 0 127 0" result="hardAlpha"/>
<feOffset dx="9.53704" dy="7.80303"/>
<feGaussianBlur stdDeviation="21.6751"/>
<feComposite in2="hardAlpha" operator="out"/>
<feColorMatrix type="matrix" values="0 0 0 0 0.129903 0 0 0 0 0.517427 0 0 0 0 0.834491 0 0 0 0.1 0"/>
<feBlend mode="normal" in2="BackgroundImageFix" result="effect1_dropShadow_15630_38448"/>
<feBlend mode="normal" in="SourceGraphic" in2="effect1_dropShadow_15630_38448" result="shape"/>
</filter>
<linearGradient id="paint0_linear_15630_38448" x1="291.713" y1="241.009" x2="296.949" y2="241.219" gradientUnits="userSpaceOnUse">
<stop stop-color="#CCCFD4"/>
<stop offset="1" stop-color="#C8CCE7"/>
</linearGradient>
<linearGradient id="paint1_linear_15630_38448" x1="356.695" y1="219.524" x2="351.451" y2="216.697" gradientUnits="userSpaceOnUse">
<stop stop-color="#5F4744"/>
<stop offset="1" stop-color="#405052"/>
</linearGradient>
<linearGradient id="paint2_linear_15630_38448" x1="187.884" y1="411.253" x2="189.338" y2="414.739" gradientUnits="userSpaceOnUse">
<stop stop-color="#BFCAEB"/>
<stop offset="1" stop-color="#9CBAED"/>
</linearGradient>
<clipPath id="clip0_15630_38448">
<rect x="33.8135" y="35.5469" width="515" height="515" rx="257.5" fill="white"/>
</clipPath>
</defs>
</svg>
