<svg width="50" height="51" viewBox="0 0 50 51" fill="none" xmlns="http://www.w3.org/2000/svg">
<circle opacity="0.3" cx="25" cy="25" r="25" fill="#60A5FA"/>
<path d="M37.6773 22.6055C33.3345 30.9809 27.5739 38.5408 20.651 44.9502L10.0156 36.8448C16.9434 30.4368 22.7082 22.8767 27.0541 14.5L37.6773 22.6055Z" fill="#407BFF"/>
<path opacity="0.2" d="M37.6773 22.6055C37.3203 23.2961 36.9522 23.9807 36.5729 24.6592C32.3743 32.2238 26.9999 39.0729 20.651 44.9502L10.0156 36.8448C16.9434 30.4368 22.7082 22.8767 27.0541 14.5L37.6773 22.6055Z" fill="white"/>
<path opacity="0.2" d="M28.7166 16.6646C28.6153 16.8694 28.4691 17.0488 28.289 17.1895C28.1088 17.3301 27.8993 17.4283 27.6759 17.4768C27.4526 17.5253 27.2212 17.5229 26.9989 17.4697C26.7767 17.4166 26.5692 17.314 26.3921 17.1696C22.6213 23.9166 17.9121 30.0943 12.4053 35.518C12.5925 35.6495 12.7475 35.8218 12.8585 36.0219C12.9695 36.222 13.0337 36.4447 13.0461 36.6732C13.0586 36.9017 13.019 37.13 12.9304 37.341C12.8418 37.552 12.7065 37.7401 12.5346 37.8912L19.1629 42.9434C19.5355 42.6039 20.013 42.4022 20.5162 42.3718C21.0193 42.3413 21.5178 42.484 21.9286 42.7761C27.4358 37.3528 32.1451 31.175 35.9154 24.4277C35.1167 23.8192 34.8718 22.6113 35.3449 21.7168L35.3525 21.7031L28.7227 16.6509L28.7166 16.6646ZM27.4996 32.7188C26.2475 34.3572 23.8363 34.6204 22.2039 33.376C20.5716 32.1316 20.3282 29.8466 21.5817 28.2036C22.8353 26.5606 25.1066 26.1955 26.742 27.4429C28.3774 28.6904 28.7607 31.0804 27.5057 32.7188H27.4996Z" fill="white"/>
<path d="M36.5776 24.6562C32.3778 32.2223 27.0019 39.0724 20.6511 44.9503C20.6511 44.9503 16.1451 38.0756 14.2754 36.7977C14.2754 36.7977 28.7916 31.4108 36.5776 24.6562Z" fill="#172554"/>
<path d="M47.8339 33.7945C40.7591 40.0373 32.6566 45.0078 23.8857 48.4857L16.8877 37.0881C25.6584 33.6106 33.7604 28.6401 40.8344 22.397C43.1691 26.1972 45.5022 29.9964 47.8339 33.7945Z" fill="#407BFF"/>
<path opacity="0.3" d="M47.8337 33.7945C40.7588 40.0372 32.6564 45.0077 23.8854 48.4856L20.8626 43.5597C19.5442 41.4045 18.2211 39.2478 16.8936 37.0896C25.6643 33.6121 33.7663 28.6416 40.8403 22.3984C43.1709 26.1976 45.502 29.9963 47.8337 33.7945Z" fill="white"/>
<path opacity="0.2" d="M41.6158 25.0183C41.4485 25.1745 41.248 25.2906 41.0294 25.3581C40.8107 25.4255 40.5796 25.4424 40.3534 25.4075C40.1273 25.3727 39.912 25.2869 39.7238 25.1568C39.5356 25.0267 39.3794 24.8555 39.2669 24.6562C33.3146 29.5873 26.6928 33.649 19.5996 36.7201C19.7269 36.9103 19.8093 37.1269 19.8407 37.3536C19.8721 37.5802 19.8515 37.8111 19.7806 38.0287C19.7097 38.2462 19.5903 38.4449 19.4313 38.6095C19.2724 38.7742 19.0782 38.9006 18.8633 38.9792L23.2248 46.0776C23.6949 45.8956 24.2131 45.88 24.6933 46.0333C25.1734 46.1866 25.5867 46.4997 25.8643 46.9204C32.9581 43.8505 39.58 39.7887 45.5316 34.8565C45.0052 34.0016 45.2136 32.786 45.9773 32.1182L45.9895 32.1076L41.6325 25.0077L41.6158 25.0183ZM34.6939 39.5528C32.9337 40.6299 30.5864 40.0092 29.5215 38.2551C28.4566 36.5011 29.0468 34.2861 30.807 33.2105C32.5671 32.1349 34.8186 32.602 35.8942 34.3621C36.9697 36.1222 36.4601 38.4787 34.6939 39.5528Z" fill="white"/>
<path d="M47.8339 33.7944C40.7591 40.0372 32.6566 45.0077 23.8857 48.4856L20.8629 43.5596L20.335 35.9273C20.335 35.9273 37.1148 37.1382 47.8339 33.7944Z" fill="#172554"/>
<path d="M49.8627 48.5662C40.679 50.7299 31.19 51.2873 21.8161 50.2137C21.5565 45.7644 21.2958 41.3147 21.0342 36.8644C30.41 37.9402 39.9014 37.3828 49.0869 35.2168C49.3435 39.6671 49.6021 44.1169 49.8627 48.5662Z" fill="#407BFF"/>
<path opacity="0.4" d="M49.8627 48.5662C40.679 50.7299 31.19 51.2873 21.8161 50.2137C21.5565 45.7644 21.2958 41.3147 21.0342 36.8644C30.41 37.9402 39.9014 37.3828 49.0869 35.2168C49.3435 39.6671 49.6021 44.1169 49.8627 48.5662Z" fill="white"/>
<path opacity="0.2" d="M48.5273 37.8911C48.3059 37.9476 48.0746 37.9536 47.8507 37.9084C47.6267 37.8633 47.4157 37.7683 47.2335 37.6305C47.0512 37.4927 46.9023 37.3156 46.7979 37.1123C46.6935 36.9091 46.6362 36.685 46.6303 36.4565C39.0552 37.9931 31.3004 38.4464 23.5979 37.8029C23.6201 38.0306 23.5904 38.2605 23.511 38.4751C23.4315 38.6897 23.3044 38.8835 23.1391 39.0418C22.9739 39.2001 22.7749 39.3189 22.5571 39.3892C22.3393 39.4594 22.1084 39.4793 21.8818 39.4474C22.0451 42.2212 22.2074 44.9951 22.3686 47.7689C22.8691 47.8298 23.3335 48.0604 23.6845 48.4222C24.0355 48.784 24.2519 49.2552 24.2977 49.7572C32.0001 50.4007 39.755 49.9474 47.3301 48.4109C47.2707 47.4083 48.0283 46.4332 49.0157 46.2111H49.0309L48.5425 37.8911H48.5273ZM35.5628 47.4373C33.503 47.5544 31.7322 45.8977 31.6075 43.8485C31.4827 41.7993 33.0634 40.1259 35.1232 40.0088C37.183 39.8916 38.9432 41.3779 39.0633 43.4271C39.1835 45.4763 37.6212 47.3232 35.5628 47.4373Z" fill="white"/>
<path d="M32.5086 48.5797C32.5481 49.0351 32.5953 49.4981 32.6501 49.9687H0.657227C1.65824 41.5118 0.657227 37.8455 0.657227 37.8455C11.3489 37.0407 32.6501 37.8455 32.6501 37.8455C32.6501 37.8455 32.0066 41.9195 32.4401 47.7537C32.4604 48.0245 32.4832 48.2998 32.5086 48.5797Z" fill="#407BFF"/>
<path opacity="0.2" d="M32.6501 37.8455C31.249 38.4996 24.3955 38.5924 20.4523 38.3475C16.5091 38.1026 11.3489 38.8495 11.3489 38.8495C8.36107 37.8181 0.657227 37.8455 0.657227 37.8455C11.3489 37.0407 32.6501 37.8455 32.6501 37.8455Z" fill="white"/>
<path opacity="0.2" d="M0.657227 49.9688C1.65824 41.5119 0.657227 37.8456 0.657227 37.8456C0.657227 37.8456 6.99951 37.7072 11.3489 38.8497C11.3489 38.8497 11.501 40.1397 11.3489 40.803C11.3489 40.803 16.5806 39.9541 21.2373 40.0667C21.2373 40.0667 14.0294 40.8958 11.3489 41.5119C11.3489 41.5119 7.03754 40.8395 4.30986 40.803C4.30986 40.803 9.98125 41.5408 11.3489 41.982C11.3489 41.982 12.9706 41.6869 13.8195 41.6869C13.8195 41.6869 11.7885 42.0565 11.3489 42.3867V44.7234C11.3489 44.7234 6.82152 44.8131 4.55022 44.4891C5.62882 44.658 10.0269 45.3349 11.3489 45.3349C11.3489 45.3349 16.3448 45.1509 19.2459 45.3349C19.2459 45.3349 12.6359 45.7153 11.3489 46.0226H5.67446L11.3489 46.4987V46.9718H13.783L11.3489 47.3917C11.3489 47.3917 4.30986 46.9445 2.28501 47.3917C2.28501 47.3917 10.5928 47.769 11.3398 48.0626L11.3489 48.7624C11.3489 48.7624 20.6653 47.5317 28.9046 48.5905C28.9046 48.5905 16.8727 48.1128 11.3489 49.4516C11.3489 49.4516 28.6323 49.0758 32.647 49.9688H0.657227Z" fill="black"/>
<path d="M0.844319 38.8496L0 39.1447C0 39.1447 5.08569 39.3197 8.36712 39.8217C8.36408 39.8217 3.30882 38.9226 0.844319 38.8496Z" fill="#407BFF"/>
<path d="M12.0898 39.8216L13.3769 40.0665C13.3769 40.0665 19.3692 39.4154 26.4524 39.3363C26.4524 39.3363 16.2217 38.8403 12.0898 39.8216Z" fill="#CCA559"/>
<path d="M16.1504 41.1985C16.1504 41.1985 19.7437 40.2188 22.8943 40.2675C26.0449 40.3162 32.0418 39.8218 32.0418 39.8218L32.2776 40.2675C32.2776 40.2675 27.5753 40.5429 23.6945 40.5109C21.1644 40.5157 18.6397 40.7459 16.1504 41.1985Z" fill="#CCA559"/>
<path d="M12.584 42.6636C12.584 42.6636 16.868 41.7509 21.0682 41.8345C25.2685 41.9182 30.5581 42.2468 30.5581 42.2468C30.5581 42.2468 19.0784 42.2468 16.1499 42.8553L12.584 42.6636Z" fill="#CCA559"/>
<path d="M19.9941 41.3368C19.9941 41.3368 23.6833 41.0326 26.8674 41.1984C30.0514 41.3642 33.3952 41.5133 33.3952 41.5133L32.2771 41.8297C32.2771 41.8297 24.6113 41.0615 19.9941 41.3368Z" fill="#407BFF"/>
<path opacity="0.2" d="M19.9941 41.3368C19.9941 41.3368 23.6833 41.0326 26.8674 41.1984C30.0514 41.3642 33.3952 41.5133 33.3952 41.5133L32.2771 41.8297C32.2771 41.8297 24.6113 41.0615 19.9941 41.3368Z" fill="black"/>
<path opacity="0.2" d="M12.7227 43.4378C12.7227 43.4378 19.1121 43.3587 22.1897 43.205C25.2673 43.0514 29.3945 43.9048 29.3945 43.9048C29.3945 43.9048 24.3028 43.7968 22.7267 44.0463L12.7227 43.4378Z" fill="black"/>
<path d="M12.0898 44.4054L16.1502 44.0464L24.8003 44.4054L16.0391 44.7644L12.0898 44.4054Z" fill="#CCA559"/>
<path d="M15.127 46.3114C15.127 46.3114 21.0311 45.7607 23.3313 45.7318C25.6315 45.7029 31.8217 45.2891 31.8217 45.2891L31.134 46.2018C31.134 46.2018 19.4946 45.9539 15.127 46.3114Z" fill="#CCA559"/>
<path d="M30.0967 43.2048L32.2767 43.4102L32.87 43.2048C31.9476 43.1186 31.0191 43.1186 30.0967 43.2048Z" fill="#407BFF"/>
<path d="M32.5529 38.603L33.3957 38.7384L32.4905 39.2115L27.166 39.099C27.166 39.099 31.1579 39.0457 32.5529 38.603Z" fill="#407BFF"/>
<path opacity="0.2" d="M30.0967 43.2048L32.2767 43.4102L32.87 43.2048C31.9476 43.1186 31.0191 43.1186 30.0967 43.2048Z" fill="white"/>
<path opacity="0.2" d="M32.5529 38.603L33.3957 38.7384L32.4905 39.2115L27.166 39.099C27.166 39.099 31.1579 39.0457 32.5529 38.603Z" fill="black"/>
<path opacity="0.2" d="M32.5084 48.5796C31.0784 48.4868 21.0576 47.2271 21.0576 47.2271C21.7255 47.1496 30.4729 47.6668 32.4399 47.7535C32.4602 48.0243 32.4831 48.2997 32.5084 48.5796Z" fill="black"/>
<path d="M17.4199 47.0552C17.4199 47.0552 26.7896 47.0308 29.4701 47.2241C32.1506 47.4173 32.391 47.0552 32.391 47.0552L33.7267 47.6987C33.7267 47.6987 33.7951 48.3376 30.2794 47.8919C26.7637 47.4462 17.4199 47.0552 17.4199 47.0552Z" fill="#407BFF"/>
<path d="M9.76472 42.344C9.76472 42.344 4.27741 41.4738 1.07812 41.696C1.55897 41.8053 2.0069 42.0274 2.38492 42.344H9.76472Z" fill="#407BFF"/>
<path d="M1.07167 44.7234C1.19642 44.7097 5.17917 45.2346 6.70046 45.2893L0.508789 45.5388L1.07167 44.7234Z" fill="#407BFF"/>
<path d="M0.847362 48.1646L6.86256 48.3775L0 48.8856L0.847362 48.1646Z" fill="#407BFF"/>
<path d="M11.8071 37.4347C11.8071 37.4347 20.3507 38.8952 25.3055 33.0488L34.6402 35.4449C34.6402 35.4449 32.9227 39.0077 20.0221 38.5346C7.1215 38.0615 11.8071 37.4347 11.8071 37.4347Z" fill="#407BFF"/>
<path opacity="0.5" d="M11.8071 37.4347C11.8071 37.4347 20.3507 38.8952 25.3055 33.0488L34.6402 35.4449C34.6402 35.4449 32.9227 39.0077 20.0221 38.5346C7.1215 38.0615 11.8071 37.4347 11.8071 37.4347Z" fill="white"/>
<path opacity="0.2" d="M16.6855 37.7496C16.6855 37.7496 21.9082 37.4742 24.861 34.1335C25.132 34.2174 25.422 34.2178 25.6933 34.1348C25.9646 34.0518 26.2046 33.8891 26.3823 33.668L33.1962 35.4737C33.1962 35.4737 32.4629 35.7308 32.72 36.5797C32.7139 36.5797 23.7702 40.2035 16.6855 37.7496Z" fill="black"/>
<path d="M23.1025 38.6154C23.1025 38.6154 2.68521 38.7569 1.41797 35.8892L10.5108 35.229C12.3153 35.986 14.1622 36.6377 16.0422 37.1808C18.1416 37.7939 20.6304 38.375 23.1025 38.6154Z" fill="#407BFF"/>
<path opacity="0.2" d="M23.1018 38.6152C23.1018 38.6152 22.4613 38.6152 21.3964 38.6152C17.0287 38.311 11.9294 36.1416 11.9294 36.1416C10.0886 36.5463 8.82288 35.8206 8.82288 35.8206L3.86042 36.1051C3.88714 36.2273 3.88597 36.3539 3.857 36.4756C3.82803 36.5973 3.772 36.7109 3.69308 36.8079C6.26559 37.5306 9.03891 37.9702 11.2996 38.2364C6.52421 37.8789 1.99227 37.1974 1.41113 35.8936L10.5039 35.2334C10.5039 35.2334 16.8553 38.0067 23.1018 38.6152Z" fill="white"/>
<path opacity="0.2" d="M23.1025 38.6153C23.1025 38.6153 2.68521 38.7568 1.41797 35.8892C1.41797 35.8892 8.31704 38.8694 16.0422 37.1807C18.1416 37.7938 20.6304 38.375 23.1025 38.6153Z" fill="black"/>
</svg>
