<svg width="16" height="16" viewBox="0 0 16 16" fill="none" xmlns="http://www.w3.org/2000/svg">
<path fill-rule="evenodd" clip-rule="evenodd" d="M5.21553 3.30653C5.44817 2.53106 6.16192 2 6.97153 2H9.65412C10.4637 2 11.1775 2.53106 11.4101 3.30653L12.1251 5.68966C12.1705 5.84105 12.1417 6.00499 12.0473 6.1318C11.953 6.25861 11.8042 6.33333 11.6462 6.33333H4.9795C4.82144 6.33333 4.6727 6.25861 4.57835 6.1318C4.484 6.00499 4.45516 5.84105 4.50058 5.68966L5.21553 3.30653Z" fill="#B48C3D"/>
<path fill-rule="evenodd" clip-rule="evenodd" d="M2.24217 8.72167C2.44621 7.90554 3.17951 7.33301 4.02077 7.33301H6.60536C7.44661 7.33301 8.17994 7.90554 8.38394 8.72167L9.25774 12.2167C9.44181 12.9531 8.88487 13.6663 8.12587 13.6663H2.50025C1.74125 13.6663 1.18433 12.9531 1.36841 12.2167L2.24217 8.72167Z" fill="#B48C3D"/>
<path fill-rule="evenodd" clip-rule="evenodd" d="M2.24217 8.72167C2.44621 7.90554 3.17951 7.33301 4.02077 7.33301H6.60536C7.44661 7.33301 8.17994 7.90554 8.38394 8.72167L9.25774 12.2167C9.44181 12.9531 8.88487 13.6663 8.12587 13.6663H2.50025C1.74125 13.6663 1.18433 12.9531 1.36841 12.2167L2.24217 8.72167Z" fill="#B48C3D"/>
<path d="M9.95234 13.6663H14.1265C14.8855 13.6663 15.4424 12.9531 15.2583 12.2167L14.3845 8.72167C14.1805 7.90554 13.4472 7.33301 12.6059 7.33301H10.0214C9.64594 7.33301 9.29207 7.44701 8.99707 7.64581C9.15714 7.89741 9.27927 8.17754 9.35474 8.47914L10.2285 11.9742C10.3811 12.5848 10.2594 13.1869 9.95234 13.6663Z" fill="#B48C3D"/>
</svg>
