<svg width="50" height="55" viewBox="0 0 50 55" fill="none" xmlns="http://www.w3.org/2000/svg">
<circle opacity="0.3" cx="25" cy="25" r="25" fill="#60A5FA"/>
<path d="M30.2698 52.6753L25.1615 54.044L20.07 52.6004C21.7147 51.5291 23.0872 50.0894 24.0786 48.3953C21.4024 45.8572 14.7545 34.6177 11.3577 29.3902C18.1618 26.9624 25.3933 28.9426 25.3933 28.9426C25.3933 28.9426 32.6552 27.0796 39.421 29.6401C35.9252 34.8011 29.0614 45.9089 26.3396 48.3941C27.2984 50.1077 28.6442 51.5737 30.2698 52.6753Z" fill="#407BFF"/>
<path opacity="0.5" d="M30.2698 52.6753L25.1615 54.044L20.07 52.6004C21.7147 51.5291 23.0872 50.0894 24.0786 48.3953C21.4024 45.8572 14.7545 34.6177 11.3577 29.3902C18.1618 26.9624 25.3933 28.9426 25.3933 28.9426C25.3933 28.9426 32.6552 27.0796 39.421 29.6401C35.9252 34.8011 29.0614 45.9089 26.3396 48.3941C27.2984 50.1077 28.6442 51.5737 30.2698 52.6753Z" fill="white"/>
<path d="M31.8756 23.4613C31.8746 23.9284 32.0122 24.3853 32.2709 24.7741C32.5297 25.163 32.898 25.4663 33.3293 25.6457C33.7605 25.8251 34.2353 25.8725 34.6935 25.782C35.1517 25.6914 35.5727 25.4669 35.9033 25.137C36.2339 24.807 36.4591 24.3863 36.5505 23.9283C36.6418 23.4702 36.5952 22.9954 36.4166 22.5638C36.2379 22.1323 35.9353 21.7634 35.5469 21.504C35.1585 21.2445 34.7018 21.1061 34.2348 21.1064C33.9251 21.1054 33.6182 21.1657 33.3319 21.2837C33.0455 21.4017 32.7852 21.575 32.566 21.7938C32.3469 22.0126 32.173 22.2726 32.0546 22.5587C31.9361 22.8449 31.8753 23.1516 31.8756 23.4613Z" fill="#407BFF"/>
<path d="M23.5864 20.8704C23.5773 21.8595 23.8617 22.8291 24.4038 23.6566C24.9458 24.484 25.7211 25.1321 26.6315 25.5189C27.5419 25.9057 28.5466 26.0137 29.5185 25.8294C30.4903 25.6451 31.3857 25.1767 32.0912 24.4834C32.7968 23.7901 33.2809 22.9032 33.4824 21.9347C33.6838 20.9662 33.5934 19.9598 33.2227 19.0427C32.8521 18.1256 32.2177 17.3391 31.3999 16.7825C30.5822 16.226 29.6177 15.9246 28.6286 15.9163C27.972 15.9097 27.3206 16.0327 26.7116 16.2783C26.1027 16.5239 25.5481 16.8871 25.0798 17.3473C24.6114 17.8075 24.2384 18.3556 23.9822 18.9601C23.7259 19.5646 23.5914 20.2138 23.5864 20.8704Z" fill="#407BFF"/>
<path d="M29.4901 23.7694C28.7516 23.9691 27.9732 23.9684 27.235 23.7673C26.4969 23.5661 25.8257 23.1719 25.2905 22.6252L25.6647 22.2599C26.3703 22.9731 27.3293 23.3784 28.3326 23.3873C29.3358 23.3962 30.3018 23.0081 31.02 22.3076C31.2992 22.0338 31.5217 21.7077 31.6748 21.3479C31.8278 20.9881 31.9085 20.6017 31.9122 20.2107C31.9159 19.8198 31.8426 19.4319 31.6963 19.0693C31.55 18.7067 31.3338 18.3764 31.0598 18.0974C30.8452 17.8749 30.5882 17.6974 30.304 17.5756C30.0198 17.4537 29.7141 17.3899 29.4049 17.3879C29.0957 17.3858 28.7892 17.4456 28.5034 17.5637C28.2176 17.6818 27.9584 17.8559 27.7408 18.0757C27.571 18.2418 27.4355 18.4398 27.3422 18.6583C27.2489 18.8769 27.1996 19.1117 27.1972 19.3493C27.1947 19.5869 27.239 19.8226 27.3277 20.0431C27.4164 20.2635 27.5476 20.4643 27.714 20.634C27.9741 20.8976 28.3281 21.0474 28.6984 21.0506C29.0687 21.0539 29.4253 20.9102 29.6899 20.6512C29.8883 20.4523 30.0007 20.1834 30.0029 19.9024C30.0051 19.6215 29.8969 19.3509 29.7015 19.1489C29.5532 18.9978 29.3509 18.9116 29.1392 18.9094C28.9274 18.9071 28.7234 18.9889 28.5718 19.1368C28.5174 19.1904 28.4743 19.2543 28.4448 19.3248C28.4153 19.3953 28.4002 19.4709 28.4002 19.5473C28.3981 19.6246 28.4113 19.7016 28.4392 19.7737C28.4671 19.8459 28.509 19.9118 28.5625 19.9676C28.6406 20.0453 28.7459 20.0895 28.856 20.0909C28.9662 20.0923 29.0725 20.0508 29.1526 19.9752L29.5257 20.3473C29.437 20.4344 29.3321 20.5031 29.2168 20.5495C29.1015 20.5959 28.9783 20.6191 28.854 20.6178C28.7297 20.6165 28.607 20.5906 28.4927 20.5418C28.3785 20.4929 28.275 20.4219 28.1883 20.333C28.0863 20.2295 28.0057 20.107 27.9512 19.9724C27.8966 19.8377 27.8692 19.6937 27.8704 19.5484C27.8705 19.4015 27.9003 19.2562 27.9581 19.1211C28.0158 18.9861 28.1003 18.8641 28.2065 18.7626C28.3296 18.6388 28.4762 18.541 28.6378 18.4749C28.7994 18.4089 28.9726 18.3759 29.1471 18.378C29.4979 18.3845 29.8327 18.5263 30.0814 18.7737C30.3773 19.0769 30.5409 19.4849 30.5363 19.9084C30.5318 20.332 30.3596 20.7364 30.0573 21.0332C29.6917 21.3885 29.2006 21.5853 28.6908 21.5808C28.1809 21.5763 27.6934 21.3709 27.3341 21.0091C26.8985 20.5643 26.657 19.965 26.6626 19.3425C26.6681 18.7199 26.9202 18.125 27.3636 17.688C27.905 17.1578 28.6346 16.8637 29.3924 16.8702C30.1502 16.8768 30.8745 17.1834 31.4067 17.7229C31.7313 18.0524 31.9878 18.4428 32.1614 18.8715C32.335 19.3002 32.4225 19.759 32.4187 20.2215C32.415 20.6841 32.3201 21.1414 32.1395 21.5672C31.9589 21.9931 31.6962 22.3792 31.3663 22.7035C30.8409 23.2115 30.1955 23.5782 29.4901 23.7694Z" fill="#EDD097"/>
<path d="M25.8623 23.8638C25.8575 24.3307 25.9913 24.7885 26.2468 25.1794C26.5023 25.5702 26.868 25.8765 27.2976 26.0595C27.7273 26.2424 28.2015 26.2938 28.6603 26.2072C29.1192 26.1205 29.542 25.8997 29.8753 25.5727C30.2086 25.2456 30.4375 24.8271 30.5328 24.37C30.6282 23.9129 30.5858 23.4377 30.4111 23.0047C30.2363 22.5717 29.9371 22.2002 29.5511 21.9373C29.1652 21.6744 28.71 21.5319 28.2431 21.5278C27.6208 21.5326 27.0248 21.7789 26.5806 22.2147C26.1365 22.6505 25.8789 23.2417 25.8623 23.8638Z" fill="#407BFF"/>
<path d="M24.9482 26.5354C27.6034 25.776 29.1403 23.0079 28.381 20.3527C27.6216 17.6975 24.8535 16.1606 22.1983 16.92C19.5431 17.6793 18.0062 20.4474 18.7656 23.1026C19.5249 25.7578 22.293 27.2947 24.9482 26.5354Z" fill="#407BFF"/>
<path d="M24.4805 24.5486C23.74 24.7487 22.9596 24.7475 22.2197 24.5454C21.4797 24.3433 20.8071 23.9475 20.2711 23.3987L20.6831 23.0813C21.0314 23.4364 21.4463 23.7193 21.904 23.9139C22.3618 24.1085 22.8534 24.2109 23.3508 24.2153C23.8482 24.2198 24.3416 24.1261 24.8027 23.9397C25.2639 23.7533 25.6837 23.4778 26.0383 23.129C26.6002 22.575 26.9198 21.8211 26.9272 21.0322C26.9347 20.2432 26.6294 19.4834 26.0781 18.9189C25.8624 18.6982 25.605 18.5225 25.321 18.4019C25.0369 18.2813 24.7318 18.2181 24.4232 18.2161C24.1146 18.2141 23.8086 18.2732 23.523 18.3901C23.2374 18.507 22.9778 18.6793 22.7591 18.8971C22.418 19.2337 22.2238 19.6915 22.2188 20.1707C22.2137 20.6499 22.3983 21.1117 22.7323 21.4554C22.86 21.5879 23.0128 21.6935 23.1818 21.7662C23.3509 21.8389 23.5327 21.8772 23.7167 21.8788C23.9006 21.8804 24.0831 21.8453 24.2533 21.7756C24.4236 21.7058 24.5783 21.6028 24.7082 21.4726C24.9086 21.2747 25.0223 21.0055 25.0245 20.7239C25.0266 20.4423 24.9171 20.1713 24.7198 19.9703C24.5711 19.8229 24.3706 19.7397 24.1612 19.7385C23.9518 19.7373 23.7503 19.8182 23.5999 19.9639C23.5434 20.017 23.4981 20.0811 23.4669 20.1521C23.4357 20.2231 23.4192 20.2998 23.4183 20.3773C23.4174 20.4549 23.4323 20.5319 23.4619 20.6036C23.4915 20.6753 23.5353 20.7403 23.5906 20.7947C23.628 20.834 23.6728 20.8655 23.7224 20.8874C23.7721 20.9092 23.8256 20.9209 23.8798 20.9217C23.934 20.9226 23.9879 20.9127 24.0382 20.8926C24.0886 20.8724 24.1344 20.8424 24.173 20.8043L24.5481 21.1842C24.3681 21.3581 24.1268 21.4541 23.8765 21.4514C23.6262 21.4487 23.387 21.3476 23.2107 21.1698C23.1077 21.0654 23.0264 20.9416 22.9714 20.8056C22.9164 20.6697 22.8889 20.5241 22.8904 20.3774C22.8919 20.2308 22.9224 20.0858 22.9801 19.951C23.0379 19.8161 23.1217 19.6941 23.2269 19.5918C23.4784 19.3456 23.8173 19.2093 24.1693 19.2128C24.5212 19.2163 24.8574 19.3594 25.1039 19.6106C25.3975 19.9126 25.5602 20.3181 25.5567 20.7392C25.5533 21.1604 25.3839 21.5632 25.0854 21.8603C24.7198 22.2156 24.2287 22.4125 23.7189 22.4079C23.209 22.4034 22.7215 22.198 22.3622 21.8362C22.1446 21.617 21.9726 21.3569 21.8562 21.0708C21.7398 20.7847 21.6813 20.4783 21.684 20.1695C21.6868 19.8606 21.7507 19.5554 21.8722 19.2714C21.9937 18.9875 22.1702 18.7304 22.3917 18.5151C22.6593 18.2521 22.9762 18.0446 23.3242 17.9044C23.6723 17.7643 24.0446 17.6943 24.4197 17.6984C24.7949 17.7026 25.1656 17.7808 25.5104 17.9286C25.8552 18.0764 26.1675 18.2909 26.4292 18.5598C26.7567 18.8877 27.0157 19.2775 27.1911 19.7065C27.3666 20.1355 27.455 20.5951 27.4512 21.0585C27.4475 21.522 27.3516 21.9801 27.1692 22.4061C26.9868 22.8322 26.7215 23.2177 26.3888 23.5404C25.8493 24.0339 25.1923 24.3811 24.4805 24.5486Z" fill="#EDD097"/>
<path d="M16.1804 26.3087C16.1706 27.231 15.8871 28.1296 15.3659 28.8906C14.8447 29.6516 14.1093 30.2406 13.2528 30.583C12.3964 30.9254 11.4575 31.0058 10.5554 30.8139C9.6532 30.622 8.82835 30.1665 8.18542 29.5051C7.5425 28.8437 7.11048 28.0064 6.94414 27.0991C6.7778 26.1919 6.88465 25.2557 7.25112 24.4093C7.6176 23.5628 8.22719 22.8443 9.00259 22.3448C9.77799 21.8454 10.6843 21.5874 11.6065 21.6037C12.8355 21.6254 14.0061 22.1323 14.863 23.0137C15.7198 23.8951 16.1934 25.0795 16.1804 26.3087Z" fill="#407BFF"/>
<path d="M12.8034 28.9448C12.4473 29.0367 12.0808 29.082 11.7131 29.0796C11.1874 29.0712 10.6686 28.9594 10.1862 28.7504C9.70383 28.5414 9.26738 28.2393 8.90181 27.8615C8.29332 27.2399 7.95592 26.4025 7.96347 25.5327C7.97103 24.6629 8.32292 23.8315 8.94212 23.2206C9.45061 22.7232 10.1355 22.4476 10.8467 22.4542C11.558 22.4608 12.2377 22.749 12.7368 23.2557C12.9392 23.4604 13.0987 23.7034 13.2058 23.9706C13.313 24.2377 13.3657 24.5236 13.3608 24.8114C13.3586 25.1009 13.299 25.3871 13.1856 25.6535C13.0721 25.9199 12.9071 26.1612 12.6999 26.3634C12.3561 26.6974 11.8944 26.882 11.4151 26.877C10.9359 26.8719 10.4781 26.6777 10.1415 26.3366C10.0037 26.1963 9.89482 26.0302 9.82123 25.8477C9.74765 25.6653 9.71076 25.4702 9.71268 25.2735C9.7146 25.0768 9.75529 24.8824 9.83242 24.7014C9.90954 24.5205 10.0216 24.3565 10.1622 24.2189C10.3994 23.9852 10.7198 23.8552 11.0528 23.8576C11.3859 23.86 11.7043 23.9946 11.9382 24.2317C12.0354 24.3302 12.112 24.4471 12.1634 24.5755C12.2149 24.7039 12.2403 24.8413 12.238 24.9797C12.2392 25.1189 12.2121 25.2569 12.1582 25.3853C12.1043 25.5137 12.0248 25.6297 11.9245 25.7263C11.7529 25.8895 11.5251 25.9802 11.2883 25.9796C11.0494 25.9775 10.8209 25.8809 10.653 25.7108L11.035 25.3434C11.1027 25.4093 11.1927 25.4473 11.2872 25.4498C11.3348 25.4574 11.3835 25.4548 11.4301 25.4424C11.4767 25.4299 11.5202 25.4077 11.5576 25.3774C11.6071 25.3296 11.6467 25.2725 11.6739 25.2093C11.7012 25.1462 11.7157 25.0782 11.7165 25.0094C11.7173 24.9406 11.7045 24.8724 11.6788 24.8086C11.653 24.7448 11.6149 24.6867 11.5665 24.6378C11.5006 24.5692 11.4218 24.5143 11.3346 24.4763C11.2473 24.4384 11.1534 24.4181 11.0583 24.4166C10.9632 24.4151 10.8687 24.4325 10.7804 24.4678C10.692 24.503 10.6115 24.5555 10.5435 24.622C10.3596 24.8034 10.2551 25.0503 10.2529 25.3086C10.2507 25.5669 10.351 25.8156 10.5318 26.0001C10.7701 26.2414 11.0945 26.3782 11.4337 26.3805C11.7729 26.3828 12.0991 26.2504 12.3407 26.0124C12.6552 25.7037 12.8344 25.2828 12.839 24.8421C12.8436 24.4015 12.6732 23.9769 12.3652 23.6617C12.1689 23.4581 11.9336 23.296 11.6733 23.185C11.4131 23.074 11.1332 23.0165 10.8503 23.0157C10.5734 23.0124 10.2986 23.0645 10.0421 23.1688C9.7856 23.2731 9.55248 23.4275 9.35644 23.6231C8.83774 24.1344 8.54214 24.8299 8.53404 25.5582C8.52593 26.2865 8.80598 26.9884 9.31317 27.5111C9.63696 27.8418 10.0228 28.1054 10.4486 28.2868C10.8743 28.4683 11.3317 28.5639 11.7945 28.5684C12.2573 28.5729 12.7165 28.4861 13.1457 28.3129C13.5749 28.1397 13.9657 27.8836 14.2958 27.5592L14.6612 27.9335C14.1458 28.4338 13.5033 28.7835 12.8034 28.9448Z" fill="#EDD097"/>
<path d="M21.3012 20.8451C21.2951 21.6097 21.0624 22.3553 20.6325 22.9875C20.2025 23.6198 19.5947 24.1103 18.8859 24.397C18.177 24.6836 17.3991 24.7536 16.6505 24.598C15.9019 24.4424 15.2163 24.0682 14.6805 23.5228C14.1446 22.9774 13.7826 22.2854 13.6402 21.5341C13.4978 20.7829 13.5815 20.0063 13.8806 19.3027C14.1797 18.599 14.6809 17.9999 15.3206 17.5812C15.9604 17.1625 16.71 16.9429 17.4745 16.9504C18.4981 16.9603 19.476 17.376 20.1934 18.1062C20.9109 18.8364 21.3093 19.8215 21.3012 20.8451Z" fill="#407BFF"/>
<path d="M18.5111 23.0753C17.9293 23.2311 17.3166 23.2296 16.7356 23.071C16.1546 22.9123 15.6262 22.6021 15.2044 22.1723C14.6913 21.6484 14.407 20.9423 14.4139 20.209C14.4209 19.4757 14.7185 18.7751 15.2415 18.261C15.672 17.8416 16.2511 17.6099 16.8521 17.6165C17.4531 17.6231 18.027 17.8676 18.4481 18.2964C18.7933 18.6489 18.9846 19.1239 18.9802 19.6173C18.9758 20.1106 18.7759 20.5821 18.4245 20.9284C18.1313 21.2161 17.7359 21.3757 17.3252 21.3725C16.9144 21.3692 16.5217 21.2032 16.2331 20.9109C15.9967 20.6661 15.8661 20.3382 15.8695 19.9979C15.8728 19.6576 16.0099 19.3323 16.251 19.0922C16.3522 18.9914 16.4723 18.9117 16.6045 18.8577C16.7366 18.8037 16.8782 18.7764 17.021 18.7774C17.1638 18.7784 17.3049 18.8077 17.4363 18.8637C17.5676 18.9196 17.6866 19.001 17.7863 19.1032C17.8713 19.1897 17.9383 19.2921 17.9836 19.4046C18.0288 19.517 18.0514 19.6373 18.05 19.7585C18.0486 19.8797 18.0233 19.9995 17.9755 20.1109C17.9277 20.2223 17.8583 20.3231 17.7714 20.4076C17.6226 20.5504 17.4244 20.6302 17.2182 20.6304C17.0069 20.6279 16.8053 20.542 16.6571 20.3914L17.0391 20.0241C17.0861 20.0719 17.15 20.0994 17.217 20.1006C17.2855 20.1063 17.3538 20.088 17.4102 20.0489C17.4836 19.9769 17.5258 19.879 17.5277 19.7762C17.5296 19.6735 17.491 19.5741 17.4204 19.4995C17.317 19.3934 17.1759 19.3326 17.0278 19.3304C16.8797 19.3282 16.7368 19.3847 16.6303 19.4875C16.5585 19.5576 16.5012 19.6412 16.4619 19.7335C16.4225 19.8257 16.4018 19.9249 16.401 20.0252C16.4002 20.1256 16.4192 20.2251 16.457 20.318C16.4948 20.4109 16.5506 20.4955 16.6213 20.5667C16.8101 20.7588 17.0675 20.868 17.3368 20.8704C17.6062 20.8728 17.8654 20.7681 18.0576 20.5794C18.1831 20.4563 18.2831 20.3096 18.3517 20.1477C18.4204 19.9859 18.4565 19.8121 18.4578 19.6363C18.4592 19.4605 18.4258 19.2861 18.3597 19.1232C18.2936 18.9603 18.1959 18.8121 18.0724 18.687C17.9114 18.5199 17.7187 18.3869 17.5054 18.2956C17.2922 18.2043 17.0628 18.1567 16.8309 18.1555C16.599 18.1543 16.3691 18.1997 16.155 18.2888C15.9409 18.3779 15.7468 18.5091 15.5842 18.6745C15.3738 18.8799 15.2061 19.1248 15.0907 19.3952C14.9753 19.6656 14.9145 19.9562 14.9116 20.2502C14.9088 20.5441 14.9641 20.8358 15.0743 21.1083C15.1846 21.3809 15.3476 21.629 15.5539 21.8384C16.0863 22.3776 16.8101 22.6847 17.5678 22.6926C18.3254 22.7006 19.0556 22.4089 19.5991 21.881L19.9722 22.2531C19.5612 22.6446 19.059 22.9272 18.5111 23.0753Z" fill="#EDD097"/>
<path d="M17.6863 23.0557C17.6815 23.5226 17.8154 23.9805 18.0709 24.3714C18.3264 24.7622 18.6921 25.0685 19.1217 25.2514C19.5513 25.4344 20.0256 25.4858 20.4844 25.3991C20.9432 25.3125 21.3661 25.0916 21.6994 24.7646C22.0327 24.4376 22.2615 24.019 22.3569 23.5619C22.4522 23.1048 22.4099 22.6297 22.2351 22.1967C22.0604 21.7636 21.7611 21.3922 21.3752 21.1293C20.9893 20.8664 20.5341 20.7239 20.0671 20.7198C19.7572 20.716 19.4496 20.7735 19.1619 20.889C18.8743 21.0045 18.6123 21.1757 18.3911 21.3928C18.1699 21.6099 17.9937 21.8685 17.8728 22.1539C17.7518 22.4393 17.6884 22.7458 17.6863 23.0557Z" fill="#407BFF"/>
<path d="M44.2017 27.0453C44.2947 24.2852 42.1326 21.9723 39.3725 21.8792C36.6124 21.7862 34.2995 23.9483 34.2065 26.7084C34.1135 29.4685 36.2756 31.7815 39.0357 31.8745C41.7958 31.9675 44.1087 29.8054 44.2017 27.0453Z" fill="#407BFF"/>
<path d="M40.1141 29.7274C39.3745 29.9272 38.5951 29.9266 37.8558 29.7259C37.1165 29.5252 36.4438 29.1316 35.9068 28.5853L36.2867 28.2101C36.9897 28.9249 37.9471 29.3322 38.9496 29.343C39.9521 29.3537 40.9181 28.9671 41.6363 28.2676C42.187 27.7126 42.4979 26.9637 42.5022 26.1819C42.5064 25.4001 42.2037 24.6479 41.6591 24.0869C41.2249 23.6445 40.6331 23.392 40.0132 23.3849C39.7075 23.3812 39.4041 23.4382 39.1205 23.5526C38.8369 23.6669 38.5789 23.8364 38.3612 24.0512C38.1914 24.2173 38.0559 24.4153 37.9626 24.6339C37.8694 24.8524 37.8201 25.0872 37.8176 25.3248C37.8151 25.5624 37.8594 25.7981 37.9481 26.0186C38.0368 26.239 38.1681 26.4398 38.3344 26.6095C38.5814 26.8709 38.9199 27.0265 39.2791 27.0439C39.6495 27.043 40.0054 26.9001 40.2738 26.6448C40.4723 26.4442 40.5845 26.1739 40.5863 25.8917C40.5881 25.6095 40.4793 25.3378 40.2833 25.1348C40.134 24.9853 39.9316 24.901 39.7204 24.9002C39.5091 24.8994 39.3061 24.9821 39.1557 25.1304C39.1002 25.1832 39.0562 25.2469 39.0267 25.3176C38.9971 25.3883 38.9826 25.4643 38.984 25.5409C38.9831 25.6171 38.9974 25.6927 39.0263 25.7632C39.0552 25.8338 39.0979 25.8978 39.152 25.9514C39.1894 25.9908 39.2342 26.0222 39.2838 26.0441C39.3335 26.0659 39.387 26.0776 39.4412 26.0785C39.4954 26.0793 39.5493 26.0694 39.5996 26.0493C39.65 26.0291 39.6958 25.9991 39.7344 25.961L40.1095 26.3409C39.9295 26.5148 39.6882 26.6108 39.4379 26.6081C39.1876 26.6054 38.9484 26.5043 38.7721 26.3266C38.565 26.1151 38.4499 25.8303 38.4522 25.5343C38.4522 25.3874 38.4821 25.2421 38.5398 25.107C38.5976 24.9719 38.6821 24.85 38.7883 24.7485C39.0398 24.5023 39.3787 24.366 39.7307 24.3695C40.0826 24.373 40.4188 24.5161 40.6653 24.7674C40.9585 25.0704 41.1202 25.4769 41.1153 25.8986C41.1104 26.3202 40.9393 26.7229 40.6391 27.019C40.4613 27.1979 40.2489 27.3386 40.0149 27.4326C39.7809 27.5266 39.5303 27.572 39.2782 27.5659C39.0254 27.5663 38.7753 27.5158 38.5425 27.4174C38.3098 27.3189 38.0993 27.1746 37.9236 26.9929C37.7074 26.7746 37.5365 26.5159 37.4205 26.2314C37.3044 25.947 37.2457 25.6424 37.2475 25.3353C37.2484 25.0279 37.311 24.7238 37.4316 24.4411C37.5522 24.1584 37.7283 23.9028 37.9495 23.6894C38.2166 23.4249 38.5333 23.2158 38.8815 23.0744C39.2297 22.9329 39.6025 22.8617 39.9783 22.8649C40.3542 22.8682 40.7257 22.9458 41.0714 23.0932C41.4171 23.2407 41.7302 23.4551 41.9927 23.7242C42.3201 24.0522 42.5791 24.442 42.7546 24.8709C42.93 25.2999 43.0185 25.7595 43.0147 26.223C43.0109 26.6864 42.9151 27.1445 42.7327 27.5706C42.5503 27.9966 42.285 28.3822 41.9522 28.7048C41.4329 29.1916 40.8016 29.5429 40.1141 29.7274Z" fill="#EDD097"/>
<path d="M24.4797 28.6896C24.4675 29.7979 24.7844 30.8848 25.3903 31.8128C25.9962 32.7408 26.8637 33.4682 27.8832 33.9029C28.9027 34.3376 30.0282 34.46 31.1173 34.2548C32.2064 34.0495 33.2101 33.5257 34.0014 32.7496C34.7926 31.9736 35.3358 30.9803 35.5622 29.8954C35.7887 28.8105 35.6881 27.6828 35.2733 26.6551C34.8585 25.6274 34.1482 24.7458 33.2321 24.122C32.316 23.4982 31.2355 23.1602 30.1272 23.1509C28.6444 23.1383 27.2171 23.7144 26.1584 24.7527C25.0997 25.791 24.496 27.2068 24.4797 28.6896Z" fill="#407BFF"/>
<path d="M30.497 32.1968C29.675 32.4179 28.8091 32.4164 27.9879 32.1925C27.1666 31.9686 26.4197 31.5304 25.8237 30.9228L26.1958 30.5497C26.993 31.3535 28.076 31.8088 29.208 31.8159C30.3401 31.8231 31.4288 31.3815 32.236 30.5878C32.5546 30.2786 32.8087 29.9093 32.9837 29.5013C33.1587 29.0933 33.2512 28.6547 33.2557 28.2108C33.2628 27.7692 33.1814 27.3307 33.0161 26.9211C32.8509 26.5115 32.6053 26.1393 32.2937 25.8263C32.0521 25.5777 31.7637 25.3793 31.4451 25.2425C31.1265 25.1057 30.7841 25.0332 30.4374 25.0291C30.0908 25.025 29.7467 25.0894 29.425 25.2187C29.1033 25.3479 28.8103 25.5395 28.5629 25.7823C28.1733 26.1654 27.9501 26.6864 27.9415 27.2327C27.9329 27.779 28.1396 28.3067 28.5169 28.7019C28.8137 29.0041 29.2181 29.1764 29.6416 29.1809C30.0652 29.1854 30.4732 29.0218 30.7763 28.726C31.0054 28.4963 31.1352 28.1859 31.1381 27.8615C31.141 27.5371 31.0167 27.2245 30.7918 26.9907C30.6175 26.8187 30.3827 26.7217 30.1378 26.7208C29.8929 26.7198 29.6573 26.8149 29.4817 26.9856C29.4171 27.0471 29.3658 27.1211 29.3308 27.2031C29.2958 27.2851 29.2779 27.3734 29.2782 27.4626C29.277 27.6441 29.3476 27.8186 29.4746 27.9483C29.5193 27.9957 29.573 28.0337 29.6326 28.06C29.6922 28.0863 29.7565 28.1004 29.8216 28.1014C29.8867 28.1025 29.9514 28.0906 30.0118 28.0662C30.0723 28.0419 30.1272 28.0057 30.1735 27.9599L30.5486 28.3397C30.4523 28.4346 30.3382 28.5095 30.2129 28.5601C30.0875 28.6107 29.9534 28.6359 29.8183 28.6344C29.6831 28.6329 29.5496 28.6046 29.4254 28.5512C29.3012 28.4979 29.1888 28.4205 29.0947 28.3235C28.9825 28.2105 28.894 28.0763 28.8346 27.9286C28.7751 27.781 28.7458 27.6229 28.7484 27.4637C28.7491 27.1516 28.8707 26.8519 29.0875 26.6274C29.3631 26.3595 29.7335 26.2114 30.1179 26.2155C30.5022 26.2196 30.8694 26.3755 31.1392 26.6491C31.3035 26.8129 31.4334 27.0077 31.5214 27.2222C31.6095 27.4367 31.6539 27.6667 31.652 27.8985C31.6501 28.1304 31.602 28.3596 31.5105 28.5727C31.419 28.7857 31.2859 28.9784 31.119 29.1394C30.7181 29.5333 30.1773 29.7518 29.6153 29.7471C29.0534 29.7423 28.5163 29.5147 28.1221 29.1142C27.6415 28.6243 27.3747 27.9639 27.3803 27.2777C27.3858 26.5915 27.6633 25.9354 28.1517 25.4534C28.7555 24.8715 29.5635 24.5497 30.402 24.5574C31.2405 24.5651 32.0425 24.9016 32.6355 25.4945C33.3581 26.2314 33.7587 27.2249 33.7495 28.257C33.7403 29.289 33.322 30.2752 32.5865 30.9992C32.0031 31.5695 31.284 31.9817 30.497 32.1968Z" fill="#EDD097"/>
<path d="M23.1805 32.1135C25.7219 30.3505 26.3529 26.8611 24.5899 24.3196C22.8268 21.7782 19.3374 21.1472 16.796 22.9103C14.2546 24.6733 13.6236 28.1628 15.3866 30.7042C17.1496 33.2456 20.6391 33.8766 23.1805 32.1135Z" fill="#407BFF"/>
<path d="M20.4194 30.9714C19.5965 31.1942 18.7291 31.1937 17.9064 30.9702C17.0837 30.7466 16.3354 30.308 15.7383 29.6994L16.1182 29.3243C16.9143 30.13 17.9978 30.5866 19.1304 30.5938C20.2631 30.6009 21.3522 30.158 22.1584 29.3624C22.792 28.7355 23.1519 27.8836 23.1599 26.9924C23.1678 26.1012 22.823 25.243 22.2007 24.605C21.9585 24.3572 21.6699 24.1597 21.3512 24.0237C21.0326 23.8878 20.6902 23.8161 20.3438 23.8127C19.9974 23.8093 19.6537 23.8744 19.3325 24.0041C19.0113 24.1338 18.7188 24.3257 18.4719 24.5687C18.0814 24.9512 17.8579 25.4726 17.8501 26.0192C17.8437 26.2961 17.8935 26.5715 17.9966 26.8286C18.0996 27.0857 18.2538 27.3193 18.4497 27.5151C18.7458 27.8153 19.1485 27.9864 19.5701 27.9913C19.9918 27.9962 20.3983 27.8345 20.7014 27.5413C20.8166 27.4294 20.9085 27.2957 20.9718 27.1481C21.0352 27.0005 21.0686 26.8418 21.0702 26.6812C21.0718 26.5205 21.0416 26.3612 20.9813 26.2123C20.921 26.0634 20.8318 25.9279 20.7189 25.8137C20.6349 25.7258 20.5343 25.6556 20.4228 25.6072C20.3113 25.5588 20.1913 25.5331 20.0698 25.5317C19.9483 25.5303 19.8277 25.5533 19.7152 25.5991C19.6026 25.645 19.5004 25.7129 19.4145 25.7988C19.2858 25.9271 19.2124 26.1007 19.21 26.2825C19.2077 26.4642 19.2764 26.6396 19.4017 26.7713C19.4956 26.8636 19.6219 26.9154 19.7536 26.9157C19.8853 26.916 20.0118 26.8648 20.1062 26.7731L20.4736 27.155C20.3779 27.2496 20.2643 27.3241 20.1396 27.3745C20.0148 27.4248 19.8812 27.4498 19.7467 27.4481C19.6122 27.4464 19.4793 27.418 19.3559 27.3645C19.2324 27.311 19.1208 27.2336 19.0275 27.1366C18.9147 27.0235 18.8254 26.8891 18.7649 26.7413C18.7044 26.5934 18.6738 26.435 18.6749 26.2753C18.676 26.1155 18.7088 25.9576 18.7713 25.8106C18.8339 25.6636 18.925 25.5305 19.0393 25.4189C19.1752 25.2848 19.3363 25.1789 19.5133 25.1073C19.6903 25.0358 19.8797 24.9999 20.0706 25.0018C20.4576 25.0058 20.8273 25.1628 21.0988 25.4386C21.262 25.6028 21.3911 25.7978 21.4785 26.0123C21.5659 26.2267 21.61 26.4564 21.6081 26.688C21.6062 26.9195 21.5585 27.1484 21.4676 27.3614C21.3767 27.5744 21.2445 27.7673 21.0786 27.9289C20.8801 28.1252 20.6447 28.2804 20.3861 28.3855C20.1275 28.4906 19.8506 28.5436 19.5714 28.5414C19.2923 28.5393 19.0163 28.482 18.7593 28.3729C18.5023 28.2638 18.2694 28.105 18.0739 27.9057C17.8352 27.6631 17.6467 27.3758 17.5193 27.0602C17.3919 26.7445 17.3281 26.4069 17.3316 26.0665C17.335 25.7262 17.4057 25.3899 17.5395 25.0769C17.6733 24.764 17.8676 24.4806 18.1113 24.2429C18.715 23.6609 19.523 23.3392 20.3616 23.3469C21.2001 23.3545 22.0021 23.691 22.5951 24.2839C23.3179 25.0231 23.7181 26.0187 23.7078 27.0525C23.6976 28.0863 23.2777 29.0738 22.5403 29.7985C21.9453 30.3644 21.2151 30.7683 20.4194 30.9714Z" fill="#EDD097"/>
<path d="M36.4748 23.2815C38.0284 22.8652 38.9504 21.2683 38.5341 19.7147C38.1178 18.1611 36.5209 17.2391 34.9673 17.6554C33.4137 18.0717 32.4918 19.6686 32.908 21.2222C33.3243 22.7758 34.9212 23.6978 36.4748 23.2815Z" fill="#407BFF"/>
<path d="M36.2721 22.2168C35.8214 22.3377 35.3466 22.337 34.8963 22.2146C34.4459 22.0923 34.036 21.8528 33.7083 21.5205L34.0882 21.1454C34.2807 21.3425 34.5101 21.4997 34.7634 21.6081C35.0167 21.7165 35.2888 21.7739 35.5643 21.777C35.8398 21.7801 36.1131 21.7289 36.3688 21.6263C36.6244 21.5237 36.8574 21.3717 37.0542 21.179C37.2099 21.0312 37.3342 20.8537 37.4198 20.6569C37.5054 20.4601 37.5506 20.2481 37.5526 20.0335C37.5546 19.8189 37.5134 19.606 37.4315 19.4077C37.3496 19.2093 37.2286 19.0295 37.0757 18.8788C36.8441 18.6439 36.5289 18.5102 36.199 18.5071C35.869 18.5039 35.5513 18.6314 35.3152 18.8619C35.2262 18.9486 35.1553 19.0521 35.1064 19.1663C35.0575 19.2806 35.0317 19.4033 35.0303 19.5276C35.029 19.6518 35.0522 19.7751 35.0986 19.8904C35.145 20.0057 35.2137 20.1106 35.3008 20.1993C35.4023 20.3014 35.5327 20.37 35.6744 20.3957C35.816 20.4214 35.9622 20.4031 36.0931 20.3432C35.9765 20.3832 35.8509 20.3887 35.7313 20.359C35.6117 20.3293 35.5032 20.2658 35.4188 20.176C35.2878 20.0276 35.2164 19.836 35.2185 19.6381C35.2205 19.4402 35.2958 19.2501 35.4299 19.1045C35.5123 19.0225 35.6105 18.958 35.7185 18.9148C35.8265 18.8716 35.9421 18.8507 36.0583 18.8533C36.1751 18.8517 36.2909 18.8743 36.3985 18.9195C36.5062 18.9648 36.6033 19.0318 36.6838 19.1164C36.7792 19.2143 36.8543 19.33 36.9049 19.4569C36.9555 19.5839 36.9806 19.7196 36.9788 19.8562C36.9769 19.9929 36.9482 20.1278 36.8942 20.2533C36.8401 20.3789 36.7619 20.4925 36.6639 20.5878C36.43 20.8142 36.116 20.9389 35.7905 20.9346C35.4649 20.9302 35.1543 20.7972 34.9266 20.5646C34.654 20.2857 34.5025 19.9105 34.505 19.5205C34.5076 19.1306 34.6639 18.7573 34.94 18.482C35.2769 18.1604 35.7262 17.9833 36.1919 17.9886C36.6576 17.9938 37.1028 18.1809 37.4324 18.5099C37.8323 18.9162 38.0553 19.4642 38.0529 20.0342C38.0505 20.6043 37.8228 21.1503 37.4196 21.5532C37.1011 21.8701 36.7057 22.0988 36.2721 22.2168ZM35.9832 19.8094L36.3346 20.1625C36.4131 20.0649 36.4531 19.942 36.447 19.8169C36.441 19.6919 36.3893 19.5734 36.3018 19.4838C36.2337 19.4186 36.1439 19.3807 36.0497 19.3774C36.0038 19.378 35.9586 19.3878 35.9166 19.4062C35.8745 19.4245 35.8366 19.4511 35.805 19.4844C35.7809 19.5033 35.7617 19.5278 35.749 19.5557C35.7363 19.5836 35.7305 19.6141 35.732 19.6447C35.7243 19.7052 35.7407 19.7663 35.7776 19.8148C35.8063 19.8398 35.8434 19.8531 35.8814 19.8521C35.9195 19.8511 35.9558 19.8359 35.9832 19.8094Z" fill="#EDD097"/>
<path d="M26.8539 49.2012L23.7716 49.7537C23.5773 49.7888 23.377 49.7462 23.2139 49.6349C23.0508 49.5236 22.9381 49.3527 22.8999 49.159C22.8648 48.9647 22.9075 48.7644 23.0187 48.6013C23.13 48.4382 23.3009 48.3255 23.4946 48.2873L26.5846 47.7327C26.7789 47.6975 26.9792 47.7402 27.1423 47.8515C27.3054 47.9628 27.4182 48.1337 27.4563 48.3274C27.48 48.5215 27.4318 48.7176 27.3208 48.8786C27.2098 49.0395 27.0437 49.1543 26.8539 49.2012Z" fill="#CCA559"/>
<path d="M26.4333 49.9512L23.4702 48.9395C23.2822 48.8753 23.1271 48.7392 23.039 48.5611C22.9509 48.3829 22.937 48.1771 23.0001 47.9887C23.0643 47.8006 23.2004 47.6455 23.3785 47.5574C23.5567 47.4693 23.7625 47.4554 23.9509 47.5185L26.9217 48.5282C27.1098 48.5924 27.2649 48.7285 27.353 48.9066C27.441 49.0848 27.455 49.2906 27.3918 49.479C27.3603 49.5732 27.3104 49.6603 27.2451 49.7351C27.1797 49.8099 27.1001 49.871 27.011 49.9149C26.9219 49.9589 26.8249 49.9847 26.7258 49.9909C26.6266 49.9971 26.5272 49.9836 26.4333 49.9512Z" fill="#CCA559"/>
</svg>
